<?xml version="1.0" encoding="utf-8"?>
<!-- Generator: Adobe Illustrator 19.1.0, SVG Export Plug-In . SVG Version: 6.00 Build 0)  -->
<svg version="1.1" id="Layer_1" xmlns="http://www.w3.org/2000/svg" xmlns:xlink="http://www.w3.org/1999/xlink" x="0px" y="0px"
	 viewBox="0 0 25 25" style="enable-background:new 0 0 25 25;" xml:space="preserve">
<style type="text/css">
	.st0{fill:#FFFFFF;}
</style>
<path class="st0" d="M8.6,12.5c0-2.2,1.7-3.9,3.9-3.9c2.2,0,3.9,1.7,3.9,3.9c0,2.2-1.7,3.9-3.9,3.9C10.4,16.4,8.6,14.7,8.6,12.5
	 M6.5,12.5c0,3.3,2.7,6,6,6c3.3,0,6-2.7,6-6c0-3.3-2.7-6-6-6C9.2,6.5,6.5,9.2,6.5,12.5 M17.3,6.2c0,0.8,0.6,1.4,1.4,1.4
	c0.8,0,1.4-0.6,1.4-1.4c0-0.8-0.6-1.4-1.4-1.4C18,4.8,17.3,5.5,17.3,6.2 M7.8,22c-1.1,0-1.8-0.2-2.2-0.4c-0.5-0.2-0.9-0.5-1.3-0.9
	c-0.4-0.4-0.7-0.8-0.9-1.3C3.2,19,3,18.4,3,17.3c-0.1-1.2-0.1-1.6-0.1-4.7c0-3.1,0-3.5,0.1-4.7C3,6.6,3.2,6,3.4,5.6
	c0.2-0.5,0.5-0.9,0.9-1.3C4.6,3.8,5,3.6,5.6,3.4C6,3.2,6.6,3,7.7,3C9,2.9,9.4,2.9,12.5,2.9c3.1,0,3.5,0,4.7,0.1
	c1.1,0,1.8,0.2,2.2,0.4c0.5,0.2,0.9,0.5,1.3,0.9c0.4,0.4,0.7,0.8,0.9,1.3C21.8,6,22,6.6,22,7.7c0.1,1.2,0.1,1.6,0.1,4.7
	c0,3.1,0,3.5-0.1,4.7c0,1.1-0.2,1.8-0.4,2.2c-0.2,0.5-0.5,0.9-0.9,1.3c-0.4,0.4-0.8,0.7-1.3,0.9c-0.4,0.2-1,0.4-2.2,0.4
	c-1.2,0.1-1.6,0.1-4.7,0.1C9.4,22.1,9,22.1,7.8,22 M7.6,0.9C6.4,0.9,5.6,1.1,4.8,1.4C4,1.7,3.4,2.1,2.7,2.8C2.1,3.4,1.7,4.1,1.4,4.8
	C1.1,5.6,0.9,6.4,0.8,7.7c-0.1,1.2-0.1,1.6-0.1,4.8c0,3.2,0,3.6,0.1,4.8c0.1,1.2,0.3,2.1,0.5,2.8c0.3,0.8,0.7,1.4,1.4,2.1
	c0.7,0.7,1.3,1,2.1,1.3c0.7,0.3,1.6,0.5,2.8,0.5c1.3,0.1,1.6,0.1,4.8,0.1c3.2,0,3.6,0,4.8-0.1c1.2-0.1,2.1-0.3,2.8-0.5
	c0.8-0.3,1.4-0.7,2.1-1.4s1-1.3,1.3-2.1c0.3-0.7,0.5-1.6,0.5-2.8c0.1-1.3,0.1-1.6,0.1-4.8c0-3.2,0-3.6-0.1-4.8
	c-0.1-1.2-0.3-2.1-0.6-2.8c-0.3-0.8-0.7-1.4-1.4-2.1c-0.7-0.6-1.3-1.1-2.1-1.3c-0.7-0.3-1.6-0.5-2.8-0.5c-1.3-0.1-1.6-0.1-4.8-0.1
	C9.3,0.8,8.9,0.8,7.6,0.9"/>
</svg>
