<?xml version="1.0" encoding="utf-8"?>
<!-- Generator: Adobe Illustrator 19.1.0, SVG Export Plug-In . SVG Version: 6.00 Build 0)  -->
<svg version="1.1" id="Layer_1" xmlns="http://www.w3.org/2000/svg" xmlns:xlink="http://www.w3.org/1999/xlink" x="0px" y="0px"
	 viewBox="0 0 79 114" style="enable-background:new 0 0 79 114;" xml:space="preserve">
<style type="text/css">
	.st0{fill:#FFFFFF;}
</style>
<path class="st0" d="M39.5,83.9C48.9,76,56,68.4,60.8,61.1c4.8-7.4,7.2-14.2,7.2-20.7c0-8.5-2.7-15.4-8-20.8
	c-5.3-5.4-12.2-8.1-20.5-8.1S24.3,14.1,19,19.6c-5.3,5.4-8,12.4-8,20.8c0,6.4,2.4,13.3,7.2,20.7S30.1,76,39.5,83.9z M39.5,94.7
	c-12.3-9.5-21.6-18.9-27.8-28c-6.2-9.1-9.3-17.9-9.3-26.4c0-11,3.4-19.9,10.3-27c6.9-7,15.8-10.5,26.7-10.5s19.8,3.5,26.7,10.5
	c6.9,7,10.3,16,10.3,27c0,8.5-3.1,17.3-9.3,26.4C61.1,75.8,51.8,85.2,39.5,94.7z M39.5,50.2c2.8,0,5.3-1,7.3-3c2-2,3-4.4,3-7.3
	s-1-5.3-3-7.3c-2-2-4.4-3-7.3-3c-2.8,0-5.3,1-7.3,3c-2,2-3,4.4-3,7.3c0,2.8,1,5.3,3,7.3C34.2,49.2,36.7,50.2,39.5,50.2z M2.5,111.1
	v-8.5h74.1v8.5H2.5z"/>
</svg>
