<?xml version="1.0" encoding="utf-8"?>
<!-- Generator: Adobe Illustrator 19.1.0, SVG Export Plug-In . SVG Version: 6.00 Build 0)  -->
<svg version="1.1" id="Layer_1" xmlns="http://www.w3.org/2000/svg" xmlns:xlink="http://www.w3.org/1999/xlink" x="0px" y="0px"
	 viewBox="0 0 254.5 122" style="enable-background:new 0 0 254.5 122;" xml:space="preserve">
<style type="text/css">
	.st0{fill:#FFFFFF;}
</style>
<g>
	<path class="st0" d="M43.1,105.9h1.2v8.3l-6.2-9.5h-3.5v1.2h1.2v11.6h-1.2v1.2h3.8v-1.2h-1.2v-9.4L43,117c0.2,0.2,0.3,0.5,0.5,0.7
		c0.1,0.2,0.3,0.5,0.5,0.9h1.8v-12.8h1.2v-1.2h-3.7V105.9z"/>
	<polygon class="st0" points="49,105.9 50.2,105.9 50.2,117.5 49,117.5 49,118.6 54.2,118.6 54.2,117.5 53,117.5 53,105.9 
		54.2,105.9 54.2,104.7 49,104.7 	"/>
	<path class="st0" d="M65.7,116.5c-0.6,0.3-1.2,0.5-1.9,0.5c-1.4,0-2.6-0.6-3.5-1.8c-1-1.2-1.5-2.7-1.5-4.4c0-1.5,0.4-2.7,1.1-3.6
		c0.8-0.9,1.8-1.4,2.9-1.4c0.6,0,1.2,0.2,1.6,0.5c0.4,0.3,0.6,0.7,0.6,1.2c0,0.2,0,0.4-0.1,0.5c-0.1,0.2-0.2,0.3-0.4,0.5l0.8,0.8
		l3.3-2.9l-0.8-0.8l-0.6,0.5c-0.6-0.5-1.2-0.9-1.9-1.1c-0.7-0.2-1.4-0.4-2.3-0.4c-1,0-1.9,0.2-2.9,0.7c-0.9,0.4-1.7,1-2.4,1.8
		c-0.6,0.7-1.1,1.5-1.3,2.3c-0.3,0.9-0.5,1.8-0.5,2.7c0,2,0.6,3.6,1.8,4.9c1.2,1.3,2.7,2,4.5,2c1.2,0,2.3-0.3,3.2-0.7
		c0.9-0.5,1.8-1.3,2.6-2.4l-0.8-0.7C66.8,115.7,66.2,116.2,65.7,116.5"/>
	<path class="st0" d="M76.8,104.7h-2.7l-4.6,12.8h-0.9v1.2h3.6v-1.2H71l1-2.7h5.4l0.9,2.7h-1.3v1.2h5.2v-1.2h-0.9L76.8,104.7z
		 M72.5,113.4l2.3-6.4l2.2,6.4H72.5z"/>
	<path class="st0" d="M100.3,104.7h-4v1.2h1.2v8.5c0,0.9-0.2,1.6-0.7,2.2c-0.5,0.5-1.1,0.8-1.9,0.8c-0.8,0-1.3-0.2-1.7-0.7
		c-0.4-0.5-0.6-1.2-0.6-2.1v-9.8h-4v1.2h1.2v8.7c0,1.4,0.3,2.5,1,3.2c0.7,0.7,1.7,1.1,3,1.1c0.7,0,1.4-0.1,2-0.4
		c0.6-0.3,1.2-0.7,1.7-1.3l0.1,1.4h3.9v-1.2h-1.2V104.7z"/>
	<path class="st0" d="M112.2,105.9h1.2v8.3l-6.2-9.5h-3.5v1.2h1.2v11.6h-1.2v1.2h3.8v-1.2h-1.2v-9.4l5.8,8.9
		c0.1,0.2,0.3,0.5,0.4,0.7c0.2,0.2,0.3,0.5,0.5,0.9h1.7v-12.8h1.2v-1.2h-3.7V105.9z"/>
	<polygon class="st0" points="118,105.9 119.2,105.9 119.2,117.5 118,117.5 118,118.6 123.3,118.6 123.3,117.5 122.1,117.5 
		122.1,105.9 123.3,105.9 123.3,104.7 118,104.7 	"/>
	<path class="st0" d="M136.1,104.8c-0.2,0-0.4,0.1-0.6,0.1c-0.2,0-0.6,0-1-0.1c-0.5-0.1-0.8-0.1-1.1-0.1c-1,0-1.8,0.3-2.5,0.8
		c-0.7,0.5-1.4,1.4-2,2.7l-0.7-2.2h1v-1.2h-4.8v1.2h0.9l3.8,10.7c0.1,0.3,0.2,0.6,0.3,1c0.1,0.3,0.2,0.7,0.3,1.1h2.8
		c0.1-0.4,0.2-0.7,0.3-1.1c0.1-0.4,0.2-0.8,0.4-1.2l3.3-9.3l0.1-0.4c0.3-0.8,0.5-1.3,0.7-1.6l-0.5-0.5
		C136.4,104.7,136.3,104.7,136.1,104.8 M131.6,116.1l-2.5-7c0.4-0.8,0.9-1.3,1.3-1.7c0.5-0.4,0.9-0.5,1.5-0.5c0.2,0,0.6,0.1,1,0.2
		c0.4,0.1,0.7,0.2,0.9,0.2c0.2,0,0.3,0,0.5-0.1c0.2,0,0.3-0.1,0.6-0.2L131.6,116.1z"/>
	<path class="st0" d="M146.4,116.7c-0.8,0.4-1.8,0.6-3,0.6h-1v-6.3h4.3v1.1h1.1v-3.6h-1.1v1.1h-4.3V106h1.6c0.9,0,1.7,0.1,2.2,0.4
		c0.6,0.3,1.1,0.7,1.5,1.2l0.9-0.4l-1-2.5h-9.3v1.2h1.2v11.6h-1.2v1.2h7.5c0.3,0,0.6,0,0.9,0c0.3,0,0.6,0,0.9,0l1.4-3.6l-0.9-0.3
		C147.8,115.7,147.2,116.3,146.4,116.7"/>
	<path class="st0" d="M158.7,113.8c1.2-0.3,2.2-0.8,2.9-1.6c0.7-0.8,1-1.7,1-2.8c0-1.4-0.6-2.6-1.7-3.4c-1.1-0.8-2.6-1.2-4.6-1.2
		h-5.5v1.2h1.2v11.6h-1.2v1.2h5.1v-1.2h-1.2v-3.2h1.2l2.2,3.1c0,0,0,0,0.1,0.1c0.4,0.5,0.6,0.9,0.8,1.2h3.6v-1.2h-1L158.7,113.8z
		 M156,113h-1.2v-7h1.1c1.2,0,2.1,0.3,2.8,0.9c0.7,0.6,1,1.4,1,2.5c0,1.1-0.3,2-1,2.7C158.1,112.7,157.2,113,156,113"/>
	<path class="st0" d="M173.5,111.3c-0.5-0.4-1.4-0.8-2.9-1.4c-0.5-0.2-0.8-0.3-1.1-0.4c-0.9-0.4-1.6-0.7-2-1c-0.3-0.3-0.5-0.6-0.5-1
		c0-0.5,0.2-0.9,0.5-1.2c0.4-0.3,0.9-0.5,1.4-0.5c0.5,0,1.1,0.2,1.8,0.4c0.7,0.3,1.4,0.7,2.2,1.3l1.6-2.2l-0.8-0.6l-0.5,0.6
		c-0.6-0.3-1.2-0.6-1.8-0.8c-0.6-0.2-1.2-0.3-1.8-0.3c-1.3,0-2.4,0.4-3.3,1.3c-0.9,0.8-1.4,1.8-1.4,3c0,0.9,0.3,1.6,0.9,2.2
		c0.6,0.6,1.9,1.2,4,1.9c1.1,0.4,1.9,0.8,2.3,1.1c0.4,0.3,0.6,0.8,0.6,1.3c0,0.6-0.2,1-0.7,1.4c-0.4,0.4-1,0.6-1.6,0.6
		c-0.8,0-1.6-0.2-2.4-0.7c-0.8-0.5-1.6-1.2-2.5-2.2l-1.8,2.3c0.8,0.7,1.6,1.3,2.5,1.7c0.9,0.4,1.9,0.6,2.8,0.6
		c1.5,0,2.8-0.5,3.9-1.5c1.1-1,1.6-2.1,1.6-3.4c0-0.6-0.1-1.1-0.3-1.5C174.3,112,174,111.6,173.5,111.3"/>
	<polygon class="st0" points="176.9,105.9 178.1,105.9 178.1,117.5 176.9,117.5 176.9,118.6 182.1,118.6 182.1,117.5 180.9,117.5 
		180.9,105.9 182.1,105.9 182.1,104.7 176.9,104.7 	"/>
	<path class="st0" d="M194,104.2h-1.1v0.5h-7.5v-0.5h-1.1l-0.5,3.9h1.1c0.1-0.7,0.4-1.2,0.8-1.6c0.4-0.3,0.9-0.5,1.5-0.5h0.5v11.4
		h-1.3v1.2h5.4v-1.2h-1.3V106h0.6c0.7,0,1.2,0.2,1.5,0.5c0.4,0.3,0.6,0.8,0.8,1.6h1.1L194,104.2z"/>
	<path class="st0" d="M201.9,104.7h-2.7l-4.6,12.8h-0.9v1.2h3.6v-1.2h-1.2l1-2.7h5.4l0.9,2.7h-1.3v1.2h5.1v-1.2h-0.9L201.9,104.7z
		 M197.5,113.4l2.3-6.4l2.2,6.4H197.5z"/>
	<path class="st0" d="M216.2,113.8c1.2-0.3,2.2-0.8,2.9-1.6c0.7-0.8,1-1.7,1-2.8c0-1.4-0.6-2.6-1.7-3.4c-1.1-0.8-2.6-1.2-4.6-1.2
		h-5.5v1.2h1.2v11.6h-1.2v1.2h5.1v-1.2h-1.1v-3.2h1.1l2.3,3.1c0,0,0,0,0,0.1c0.4,0.5,0.6,0.9,0.8,1.2h3.6v-1.2h-1L216.2,113.8z
		 M213.5,113h-1.2v-7h1.1c1.2,0,2.1,0.3,2.8,0.9c0.7,0.6,1,1.4,1,2.5c0,1.1-0.3,2-1,2.7C215.6,112.7,214.7,113,213.5,113"/>
	<polygon class="st0" points="222.3,105.9 223.5,105.9 223.5,117.5 222.3,117.5 222.3,118.6 227.5,118.6 227.5,117.5 226.4,117.5 
		226.4,105.9 227.5,105.9 227.5,104.7 222.3,104.7 	"/>
	<path class="st0" d="M236.6,104.7h-2.7l-4.6,12.8h-1v1.2h3.6v-1.2h-1.2l1-2.7h5.4l0.9,2.7h-1.3v1.2h5.2v-1.2h-0.9L236.6,104.7z
		 M232.3,113.4l2.3-6.4l2.2,6.4H232.3z"/>
	<path class="st0" d="M247.7,104.9c-0.1-0.1-0.2-0.2-0.4-0.2c0.4-0.1,0.7-0.2,0.9-0.4c0.2-0.2,0.3-0.5,0.3-0.8
		c0-0.2-0.1-0.5-0.2-0.7c-0.1-0.2-0.3-0.3-0.5-0.4c-0.2-0.1-0.5-0.1-0.9-0.1h-2v4.4h0.6v-2h0.7c0.1,0,0.2,0,0.3,0
		c0.1,0,0.2,0.1,0.3,0.1c0.1,0.1,0.2,0.2,0.3,0.3c0.1,0.2,0.3,0.3,0.4,0.6l0.6,0.9h0.7l-0.8-1.2C248,105.2,247.8,105,247.7,104.9
		 M246.9,104.2h-1.3v-1.5h1.4c0.3,0,0.6,0.1,0.7,0.2c0.2,0.1,0.2,0.3,0.2,0.5c0,0.1,0,0.3-0.1,0.4c-0.1,0.1-0.2,0.2-0.3,0.3
		C247.3,104.2,247.1,104.2,246.9,104.2"/>
	<path class="st0" d="M247,99.6c-2.7,0-4.9,2.2-4.9,4.9c0,2.7,2.2,4.9,4.9,4.9c2.7,0,4.9-2.2,4.9-4.9
		C251.9,101.8,249.7,99.6,247,99.6 M247,108.4c-2.2,0-3.9-1.8-3.9-3.9c0-2.2,1.8-3.9,3.9-3.9c2.2,0,3.9,1.8,3.9,3.9
		C250.9,106.6,249.1,108.4,247,108.4"/>
	<path class="st0" d="M89.8,38c0,2.2,0.5,3.8,1.6,4.9c1,1.1,2.6,1.7,4.6,1.7c1.1,0,2.1-0.2,3.1-0.6c1-0.4,1.9-1.1,2.7-1.9l0.1,2.2h6
		v-1.8h-1.8V23h-6.1v1.8h1.8v12.9c0,1.4-0.4,2.5-1.1,3.3c-0.7,0.8-1.7,1.2-2.9,1.2c-1.2,0-2.1-0.4-2.6-1.1c-0.6-0.7-0.9-1.8-0.9-3.2
		V23H88v1.8h1.8V38z"/>
	<path class="st0" d="M115.8,37.8h-1.4v-9.5c0.6-0.5,1.2-0.9,1.9-1.2c0.7-0.3,1.3-0.5,1.9-0.5c0.7,0,1.3,0.2,1.7,0.6
		c0.4,0.4,0.6,1,0.6,1.7v8.9h-1.4v1.5h6.6v-1.5h-1.4v-9.3c0-1.4-0.4-2.5-1.2-3.3c-0.8-0.8-1.8-1.2-3.2-1.2c-0.8,0-1.6,0.2-2.5,0.6
		c-0.9,0.4-1.9,1.1-3,2l0-2.5h-0.2l-5,1.5V27l1.4-0.4v11.2h-1.4v1.5h6.6V37.8z"/>
	<path class="st0" d="M130,23c0.6,0,1.1-0.2,1.5-0.6c0.4-0.4,0.6-0.9,0.6-1.5c0-0.6-0.2-1.1-0.6-1.5c-0.4-0.4-0.9-0.6-1.6-0.6
		c-0.6,0-1.1,0.2-1.5,0.6c-0.4,0.4-0.6,0.9-0.6,1.5c0,0.6,0.2,1.1,0.7,1.5C128.9,22.8,129.4,23,130,23"/>
	<path class="st0" d="M133.5,37.8h-1.4V26.2c0-0.3,0-0.7,0-1c0-0.4,0.1-0.8,0.1-1.2H132l-5.2,1.6V27l1.4-0.4v11.2h-1.4v1.5h6.6V37.8
		z"/>
	<path class="st0" d="M134.7,27l4.5,10.1c0,0,0.1,0.1,0.1,0.2c0.4,0.8,0.6,1.4,0.7,1.9h3.1c0.1-0.4,0.2-0.8,0.3-1.2
		c0.1-0.4,0.3-0.8,0.4-1.2l4.1-9.7c0-0.1,0.1-0.2,0.2-0.4c0.4-0.9,0.7-1.6,1-2l-0.7-0.6c-0.3,0.2-0.6,0.3-0.8,0.4
		c-0.2,0.1-0.5,0.1-0.7,0.1c-0.4,0-1-0.1-1.9-0.3c-0.9-0.2-1.5-0.3-2-0.3c-0.7,0-1.4,0.2-2,0.6c-0.6,0.4-1.4,1.2-2.3,2.4
		c-0.2-0.6-0.4-1.1-0.6-1.6c-0.2-0.5-0.3-1-0.4-1.5l-4.8,2.4l0.5,1.2L134.7,27z M140.4,27.1c0.4-0.2,0.9-0.4,1.3-0.4
		c0.3,0,0.9,0.1,1.7,0.3c0.8,0.2,1.3,0.3,1.6,0.3c0.3,0,0.5,0,0.7-0.1c0.2-0.1,0.3-0.1,0.5-0.3l-3.7,8.9l-3.3-7.7
		C139.6,27.7,140,27.3,140.4,27.1"/>
	<path class="st0" d="M150.6,37.6c1.3,1.5,3,2.2,5,2.2c1.4,0,2.7-0.3,3.9-0.9c1.2-0.6,2.3-1.6,3.2-2.8l-0.9-1c-0.6,0.6-1.3,1-2,1.3
		c-0.7,0.3-1.4,0.4-2.2,0.4c-1.1,0-2.1-0.3-3-1c-0.8-0.6-1.4-1.6-1.8-2.8l7.8-2.5c0.3-0.1,0.7-0.2,1.1-0.3c0.6-0.2,0.9-0.3,0.9-0.5
		c0-0.2-0.2-0.7-0.5-1.5c-0.3-0.7-0.7-1.4-1.2-1.9c-0.7-0.8-1.4-1.4-2.3-1.8c-0.8-0.4-1.8-0.6-2.7-0.6c-2.1,0-3.8,0.8-5.3,2.3
		c-1.5,1.5-2.2,3.4-2.2,5.7C148.6,34.2,149.3,36.1,150.6,37.6 M153,26.9c0.6-0.8,1.3-1.1,2.1-1.1c0.8,0,1.5,0.3,2.2,0.9
		c0.6,0.6,1.1,1.5,1.5,2.7l-6.5,2c-0.1-0.3-0.1-0.5-0.1-0.8c0-0.3,0-0.6,0-0.8C152.2,28.6,152.5,27.6,153,26.9"/>
	<path class="st0" d="M164.4,27.6c0.2,0.1,0.4,0.2,0.4,0.4c0.1,0.1,0.1,0.4,0.1,0.9v9h-1.4v1.5h7v-1.5h-1.8v-7.8
		c0-0.8,0.2-1.4,0.5-1.9c0.4-0.5,0.8-0.7,1.4-0.7c0.4,0,0.7,0.1,1.1,0.2c0.4,0.1,0.8,0.4,1.4,0.7l1.8-4l-1.2-0.5l-0.5,0.8
		c-0.4-0.2-0.8-0.4-1.2-0.5c-0.4-0.1-0.7-0.2-1-0.2c-0.5,0-1,0.2-1.4,0.6c-0.5,0.4-0.9,1.1-1.5,2.2c-0.2-0.6-0.5-1.1-1-1.5
		c-0.4-0.4-1.1-0.9-1.9-1.3l-2.7,3.4l1,0.9L164.4,27.6z"/>
	<path class="st0" d="M175.5,30.9c0.5,0.7,1.8,1.5,3.8,2.4c0,0,0.1,0.1,0.2,0.1c1.9,0.9,2.9,1.7,2.9,2.5c0,0.5-0.2,1-0.6,1.3
		c-0.4,0.3-0.8,0.5-1.4,0.5c-0.7,0-1.5-0.2-2.3-0.7c-0.8-0.5-1.7-1.3-2.7-2.4l-2.1,2.8c0.8,0.7,1.6,1.3,2.6,1.7c1,0.4,2,0.6,3.1,0.6
		c1.7,0,3.2-0.5,4.3-1.5c1.2-1,1.8-2.2,1.8-3.7c0-1-0.2-1.9-0.8-2.6c-0.5-0.6-1.5-1.3-3.1-2c0,0-0.1,0-0.1-0.1
		c-2.5-1.1-3.7-2-3.7-2.8c0-0.4,0.2-0.7,0.4-1c0.3-0.3,0.7-0.4,1.1-0.4c0.6,0,1.2,0.2,1.9,0.5c0.6,0.4,1.4,0.9,2.2,1.7l1.7-2.5
		c-0.8-0.5-1.6-0.9-2.4-1.1c-0.8-0.2-1.6-0.4-2.4-0.4c-1.5,0-2.8,0.4-3.8,1.3c-1,0.8-1.5,1.9-1.5,3.2
		C174.7,29.4,175,30.2,175.5,30.9"/>
	<path class="st0" d="M189,23c0.6,0,1.1-0.2,1.5-0.6c0.4-0.4,0.6-0.9,0.6-1.5c0-0.6-0.2-1.1-0.6-1.5c-0.4-0.4-0.9-0.6-1.5-0.6
		c-0.6,0-1.1,0.2-1.6,0.6c-0.4,0.4-0.6,0.9-0.6,1.5c0,0.6,0.2,1.1,0.6,1.5C187.9,22.8,188.4,23,189,23"/>
	<path class="st0" d="M192.4,37.8H191V26.2c0-0.3,0-0.7,0-1c0-0.4,0-0.8,0.1-1.2H191l-5.2,1.6V27l1.4-0.4v11.2h-1.4v1.5h6.6V37.8z"
		/>
	<path class="st0" d="M199.2,39.8c0.8,0,1.6-0.2,2.4-0.6c0.8-0.4,1.6-0.9,2.3-1.6l0.3,1.8h4.9v-1.5h-1.4V19.9l1.3-0.5v-1.5l-6.5,2.2
		v1.6l1.4-0.5v3.9c-0.6-0.4-1.1-0.7-1.7-0.9c-0.6-0.2-1.2-0.3-1.9-0.3c-1.9,0-3.6,0.8-5,2.4c-1.4,1.6-2.1,3.6-2.1,6
		c0,2.2,0.5,3.9,1.7,5.3C196,39.1,197.5,39.8,199.2,39.8 M198.1,27.2c0.7-1,1.6-1.5,2.6-1.5c1,0,1.8,0.3,2.3,0.9
		c0.5,0.6,0.8,1.4,0.8,2.5v6.7c-0.4,0.4-0.8,0.8-1.3,1c-0.5,0.3-1,0.4-1.5,0.4c-1.2,0-2.1-0.6-2.9-1.7c-0.8-1.1-1.2-2.6-1.2-4.4
		C197.1,29.5,197.4,28.2,198.1,27.2"/>
	<path class="st0" d="M214.8,39.8c0.8,0,1.7-0.2,2.4-0.5c0.8-0.4,1.5-0.9,2.1-1.6l0.4,1.7h4.8v-1.5h-1.4v-8.7c0-1.7-0.4-3-1.3-3.9
		c-0.9-0.9-2.1-1.3-3.8-1.3c-0.6,0-1.3,0.1-1.9,0.3c-0.6,0.2-1.3,0.5-2,0.8l0.3-1.1l-1.4-0.4l-1.5,4.5l1.4,0.5
		c0.5-0.8,1-1.4,1.7-1.9c0.7-0.4,1.4-0.6,2.1-0.6c0.8,0,1.4,0.2,1.9,0.6c0.4,0.4,0.6,1,0.6,1.8v1.1c-0.3,0-0.6,0-0.9-0.1
		c-0.3,0-0.6,0-0.9,0c-2.4,0-4.3,0.5-5.6,1.4c-1.3,0.9-1.9,2.3-1.9,4c0,1.4,0.5,2.5,1.4,3.5C212.2,39.3,213.4,39.8,214.8,39.8
		 M214.8,31.9c0.8-0.6,1.8-1,3.1-1c0.3,0,0.5,0,0.8,0c0.2,0,0.4,0,0.7,0.1v3c0,1.1-0.2,1.9-0.7,2.5c-0.5,0.6-1.2,0.9-2.1,0.9
		c-0.8,0-1.5-0.3-2.1-0.8c-0.5-0.5-0.8-1.3-0.8-2.1C213.6,33.4,214,32.6,214.8,31.9"/>
	<path class="st0" d="M231.2,39.8c0.8,0,1.6-0.2,2.4-0.6c0.8-0.4,1.6-0.9,2.3-1.6l0.3,1.8h4.9v-1.5h-1.4V19.9l1.3-0.5v-1.5l-6.5,2.2
		v1.6l1.4-0.5v3.9c-0.6-0.4-1.1-0.7-1.7-0.9c-0.6-0.2-1.2-0.3-1.9-0.3c-1.9,0-3.6,0.8-5,2.4c-1.4,1.6-2.1,3.6-2.1,6
		c0,2.2,0.6,3.9,1.7,5.3C228,39.1,229.5,39.8,231.2,39.8 M230.1,27.2c0.7-1,1.6-1.5,2.6-1.5c1,0,1.8,0.3,2.3,0.9
		c0.6,0.6,0.9,1.4,0.9,2.5v6.7c-0.4,0.4-0.8,0.8-1.3,1c-0.5,0.3-1,0.4-1.5,0.4c-1.2,0-2.1-0.6-2.9-1.7c-0.8-1.1-1.1-2.6-1.1-4.4
		C229.1,29.5,229.4,28.2,230.1,27.2"/>
	<path class="st0" d="M117.4,61.8h-2.1v-4.5c0.5,0.2,1,0.3,1.5,0.4c0.5,0.1,1.1,0.1,1.7,0.1c2.3,0,4.2-0.7,5.7-2.2
		c1.5-1.5,2.3-3.3,2.3-5.5c0-2.4-0.8-4.3-2.5-5.7c-1.7-1.4-4-2-7-2h-7.9v1.8h1.8v17.6h-1.8v1.8h8.2V61.8z M115.3,44.3h1
		c1.8,0,3.2,0.6,4.2,1.6c1,1.1,1.5,2.6,1.5,4.6c0,1.7-0.4,3.1-1.1,4.1c-0.8,1-1.8,1.5-3,1.5c-0.9,0-1.5-0.2-1.9-0.7
		c-0.4-0.5-0.6-1.3-0.6-2.4V44.3z"/>
	<path class="st0" d="M134.4,48.2c-2.3,0-4.3,0.7-5.9,2.2c-1.6,1.5-2.3,3.4-2.3,5.7c0,2.3,0.8,4.2,2.3,5.7c1.6,1.5,3.5,2.2,5.9,2.2
		c2.4,0,4.4-0.7,5.9-2.2c1.6-1.5,2.3-3.4,2.3-5.7c0-2.3-0.8-4.2-2.3-5.7C138.8,48.9,136.8,48.2,134.4,48.2 M137.7,61
		c-0.6,0.9-1.5,1.3-2.7,1.3c-1.3,0-2.4-0.7-3.4-2.2c-1-1.4-1.4-3.2-1.4-5.2c0-1.5,0.3-2.8,1-3.7c0.6-0.9,1.5-1.4,2.6-1.4
		c1.3,0,2.5,0.7,3.4,2.1c1,1.4,1.4,3.2,1.4,5.2C138.6,58.9,138.3,60.1,137.7,61"/>
	<path class="st0" d="M143.5,62.1v1.5h6.6v-1.5h-1.4v-9.5c0.6-0.5,1.2-1,1.9-1.2c0.7-0.3,1.3-0.5,1.9-0.5c0.7,0,1.3,0.2,1.7,0.6
		c0.4,0.4,0.6,1,0.6,1.7v8.8h-1.4v1.5h6.6v-1.5h-1.4v-9.3c0-1.4-0.4-2.5-1.2-3.3c-0.8-0.8-1.8-1.2-3.2-1.2c-0.8,0-1.6,0.2-2.5,0.6
		c-0.9,0.4-1.9,1.1-3,1.9l0-2.5h-0.2l-5.1,1.5v1.5l1.4-0.4v11.2H143.5z"/>
	<path class="st0" d="M165.3,45.2c-0.4,1-0.9,1.8-1.6,2.5c-0.7,0.7-1.6,1.3-2.7,1.8v1.2h1.6v9.6c0,1.3,0.2,2.3,0.8,2.9
		c0.5,0.6,1.3,0.9,2.4,0.9c0.8,0,1.5-0.2,2.2-0.5c0.7-0.3,1.4-0.8,2.1-1.4l-0.7-1c-0.3,0.2-0.6,0.4-0.8,0.4
		c-0.2,0.1-0.5,0.1-0.7,0.1c-0.5,0-0.9-0.2-1.1-0.5c-0.2-0.3-0.3-0.9-0.3-1.6v-8.9h2c0.3,0,0.5-0.1,0.6-0.1c0.1-0.1,0.2-0.3,0.2-0.5
		l0.2-1.2h-3v-3.4L165.3,45.2z"/>
	<path class="st0" d="M170.1,62.1v1.5h6.6v-1.5h-1.4V50.4c0-0.3,0-0.7,0-1c0-0.4,0.1-0.8,0.1-1.2h-0.2l-5.2,1.6v1.4l1.4-0.4v11.2
		H170.1z"/>
	<path class="st0" d="M174.8,46.6c0.4-0.4,0.6-0.9,0.6-1.5c0-0.6-0.2-1.1-0.6-1.5c-0.4-0.4-0.9-0.6-1.5-0.6c-0.6,0-1.1,0.2-1.5,0.6
		c-0.4,0.4-0.6,0.9-0.6,1.5c0,0.6,0.2,1.1,0.7,1.5c0.4,0.4,0.9,0.7,1.5,0.7C173.8,47.3,174.3,47,174.8,46.6"/>
	<path class="st0" d="M177.4,51h2v11.1H178v1.5h7.3v-1.5h-2.1V51h2.6l0.7-2h-1.4c-1,0-1.9-0.3-2.6-1c-0.7-0.7-1.1-1.5-1.1-2.4
		c0-0.5,0.1-1,0.5-1.3c0.3-0.3,0.7-0.5,1.1-0.5c0.3,0,0.6,0.1,1,0.3c0.3,0.2,0.7,0.6,1.1,1.2l2.4-2c-0.4-0.5-0.9-0.8-1.5-1.1
		c-0.6-0.3-1.2-0.4-1.9-0.4c-1.3,0-2.6,0.5-3.7,1.5c-1.1,1-1.7,2.1-1.7,3.2c0,0.4,0.1,0.8,0.2,1.2c0.2,0.4,0.4,0.8,0.7,1.2h-1.6
		L177.4,51z"/>
	<path class="st0" d="M189.7,47.3c0.6,0,1.1-0.2,1.5-0.6c0.4-0.4,0.6-0.9,0.6-1.5c0-0.6-0.2-1.1-0.6-1.5c-0.4-0.4-0.9-0.6-1.5-0.6
		c-0.6,0-1.1,0.2-1.5,0.6c-0.4,0.4-0.6,0.9-0.6,1.5c0,0.6,0.2,1.1,0.6,1.5C188.6,47,189.1,47.3,189.7,47.3"/>
	<path class="st0" d="M191.8,50.4c0-0.3,0-0.7,0-1c0-0.4,0.1-0.8,0.1-1.2h-0.2l-5.2,1.6v1.4l1.4-0.4v11.2h-1.4v1.5h6.7v-1.5h-1.4
		V50.4z"/>
	<path class="st0" d="M201,50c0.8,0,1.5,0.3,2.2,0.9c0.6,0.6,1.2,1.4,1.7,2.6l2.7-2.5c-0.8-0.9-1.7-1.6-2.6-2.1
		c-1-0.5-2-0.7-3.1-0.7c-2.1,0-4,0.8-5.6,2.5c-1.6,1.7-2.3,3.7-2.3,6c0,2.2,0.6,3.9,1.9,5.3c1.3,1.4,3,2,5.1,2
		c1.3,0,2.6-0.4,3.7-1.1c1.1-0.7,2.1-1.7,2.8-3l-0.9-0.7c-0.6,0.7-1.2,1.2-1.9,1.6c-0.7,0.4-1.4,0.5-2.1,0.5c-1.4,0-2.6-0.7-3.6-2
		c-1-1.3-1.6-2.9-1.6-4.6c0-1.4,0.3-2.5,1-3.4C199.2,50.5,200,50,201,50"/>
	<path class="st0" d="M208.3,62.1v1.5h6.6v-1.5h-1.4V50.4c0-0.3,0-0.7,0-1c0-0.4,0-0.8,0.1-1.2h-0.2l-5.2,1.6v1.4l1.4-0.4v11.2
		H208.3z"/>
	<path class="st0" d="M211.4,47.3c0.6,0,1.1-0.2,1.5-0.6c0.4-0.4,0.6-0.9,0.6-1.5c0-0.6-0.2-1.1-0.6-1.5c-0.4-0.4-0.9-0.6-1.5-0.6
		c-0.6,0-1.1,0.2-1.5,0.6c-0.4,0.4-0.7,0.9-0.7,1.5c0,0.6,0.2,1.1,0.7,1.5C210.4,47,210.9,47.3,211.4,47.3"/>
	<path class="st0" d="M224.2,53.8c-0.3,0-0.6,0-1,0c-2.4,0-4.3,0.5-5.6,1.4c-1.3,0.9-2,2.2-2,4c0,1.4,0.5,2.5,1.4,3.5
		c0.9,0.9,2.1,1.4,3.5,1.4c0.8,0,1.6-0.2,2.4-0.5c0.8-0.4,1.5-0.9,2.1-1.6l0.3,1.7h4.9v-1.5h-1.4v-8.7c0-1.7-0.4-3-1.3-3.9
		c-0.8-0.9-2.1-1.3-3.8-1.3c-0.6,0-1.3,0.1-1.9,0.3c-0.6,0.2-1.3,0.5-1.9,0.8l0.3-1.1l-1.3-0.4l-1.5,4.5l1.4,0.5
		c0.5-0.8,1-1.4,1.7-1.9c0.7-0.4,1.4-0.6,2.1-0.6c0.8,0,1.4,0.2,1.9,0.6c0.4,0.4,0.7,1,0.7,1.7v1.1
		C224.8,53.8,224.5,53.8,224.2,53.8 M225.1,58.3c0,1.1-0.3,1.9-0.8,2.5c-0.5,0.6-1.2,0.9-2.1,0.9c-0.8,0-1.5-0.3-2-0.8
		c-0.5-0.5-0.8-1.2-0.8-2.1c0-1,0.4-1.9,1.2-2.5c0.8-0.7,1.8-1,3.1-1c0.3,0,0.5,0,0.8,0c0.2,0,0.5,0,0.7,0.1V58.3z"/>
	<path class="st0" d="M102.3,74.8c1.2-0.2,2.2-0.7,2.8-1.4c0.7-0.7,1-1.5,1-2.4c0-1.5-0.5-2.5-1.6-3.3c-1.1-0.7-2.7-1.1-4.8-1.1
		h-8.3v1.8h1.8V86h-1.8v1.8h9.4c2.3,0,4.1-0.6,5.5-1.9c1.4-1.3,2.1-2.9,2.1-5c0-1.7-0.5-3.2-1.6-4.2C105.8,75.6,104.3,75,102.3,74.8
		 M97.5,68.6h1.1c1.2,0,2.1,0.2,2.7,0.7c0.6,0.5,0.9,1.1,0.9,2c0,0.9-0.3,1.6-0.9,2c-0.6,0.5-1.4,0.7-2.5,0.7h-1.4V68.6z
		 M102.9,84.6c-0.9,0.8-2.2,1.2-3.9,1.2h-1.5V76h1.8c1.6,0,2.8,0.4,3.6,1.3c0.9,0.9,1.3,2.1,1.3,3.7
		C104.2,82.6,103.7,83.8,102.9,84.6"/>
	<path class="st0" d="M116.9,88.2c2.4,0,4.3-0.7,5.9-2.2c1.6-1.5,2.3-3.4,2.3-5.7c0-2.3-0.8-4.2-2.3-5.7c-1.6-1.5-3.5-2.2-5.9-2.2
		c-2.3,0-4.3,0.8-5.9,2.2c-1.6,1.5-2.3,3.4-2.3,5.7c0,2.3,0.8,4.2,2.3,5.7C112.6,87.5,114.6,88.2,116.9,88.2 M113.7,75.5
		c0.7-0.9,1.5-1.4,2.6-1.4c1.3,0,2.5,0.7,3.4,2.2c1,1.4,1.4,3.2,1.4,5.2c0,1.6-0.3,2.8-1,3.7c-0.6,0.9-1.5,1.3-2.6,1.3
		c-1.3,0-2.4-0.7-3.4-2.2c-1-1.4-1.4-3.2-1.4-5.2C112.7,77.6,113,76.4,113.7,75.5"/>
	<polygon class="st0" points="125.9,86.3 125.9,87.8 132.5,87.8 132.5,86.3 131.1,86.3 131.1,68.3 132.5,67.9 132.5,66.3 
		125.9,68.5 125.9,70.1 127.3,69.6 127.3,86.3 	"/>
	<path class="st0" d="M138.5,70.8c0.4-0.4,0.6-0.9,0.6-1.5c0-0.6-0.2-1.1-0.6-1.5c-0.4-0.4-0.9-0.6-1.5-0.6c-0.6,0-1.1,0.2-1.5,0.6
		c-0.4,0.4-0.6,0.9-0.6,1.5c0,0.6,0.2,1.1,0.7,1.5c0.4,0.4,0.9,0.7,1.5,0.7C137.6,71.5,138.1,71.3,138.5,70.8"/>
	<path class="st0" d="M133.8,86.3v1.5h6.7v-1.5H139V74.6c0-0.3,0-0.6,0-1c0-0.4,0-0.8,0.1-1.2H139l-5.2,1.6v1.4l1.4-0.4v11.2H133.8z
		"/>
	<path class="st0" d="M140.4,76l1.2-0.5l4.5,10.2c0,0,0,0.1,0.1,0.2c0.4,0.8,0.6,1.4,0.7,1.9h3.1c0.1-0.4,0.2-0.8,0.3-1.2
		c0.1-0.4,0.3-0.8,0.4-1.2l4.1-9.7c0-0.1,0.1-0.2,0.2-0.4c0.4-0.9,0.7-1.6,1-2l-0.7-0.6c-0.3,0.2-0.6,0.3-0.8,0.4
		c-0.2,0.1-0.5,0.1-0.8,0.1c-0.4,0-1-0.1-1.9-0.3c-0.9-0.2-1.5-0.3-2-0.3c-0.7,0-1.4,0.2-2,0.6c-0.6,0.4-1.4,1.2-2.3,2.4
		c-0.2-0.5-0.5-1.1-0.6-1.6c-0.2-0.5-0.3-1-0.4-1.5l-4.8,2.4L140.4,76z M147.4,75.6c0.4-0.2,0.9-0.4,1.3-0.4c0.3,0,0.9,0.1,1.7,0.3
		c0.8,0.2,1.3,0.3,1.6,0.3c0.2,0,0.5,0,0.6-0.1c0.2-0.1,0.3-0.1,0.5-0.3l-3.7,8.9l-3.3-7.7C146.6,76.2,147,75.8,147.4,75.6"/>
	<path class="st0" d="M158.8,72.1l-1.5,4.5l1.4,0.5c0.5-0.8,1-1.4,1.6-1.9c0.7-0.4,1.4-0.6,2.1-0.6c0.8,0,1.4,0.2,1.9,0.6
		c0.4,0.4,0.7,1,0.7,1.7v1.1c-0.3,0-0.6-0.1-0.9-0.1c-0.3,0-0.6,0-0.9,0c-2.4,0-4.3,0.5-5.6,1.4c-1.3,0.9-1.9,2.2-1.9,4
		c0,1.4,0.5,2.5,1.4,3.5c0.9,0.9,2.1,1.4,3.5,1.4c0.9,0,1.7-0.2,2.4-0.5c0.7-0.4,1.5-0.9,2.1-1.6l0.3,1.7h4.9v-1.5h-1.4v-8.7
		c0-1.7-0.4-3-1.3-3.9c-0.8-0.8-2.1-1.3-3.9-1.3c-0.6,0-1.3,0.1-1.9,0.3c-0.6,0.2-1.3,0.5-1.9,0.8l0.3-1.1L158.8,72.1z M165,82.5
		c0,1.1-0.3,1.9-0.8,2.5c-0.5,0.6-1.2,0.9-2.1,0.9c-0.9,0-1.5-0.3-2.1-0.8c-0.5-0.5-0.8-1.3-0.8-2.1c0-1,0.4-1.9,1.2-2.5
		c0.8-0.6,1.8-1,3.1-1c0.3,0,0.5,0,0.8,0c0.2,0,0.5,0,0.7,0.1V82.5z"/>
	<path class="st0" d="M175.2,73.7c-0.5-0.4-1.1-0.9-1.9-1.3l-2.7,3.4l1,0.9l0.7-0.7c0.2,0.1,0.3,0.3,0.4,0.4
		c0.1,0.1,0.1,0.4,0.1,0.9v9h-1.4v1.5h7v-1.5h-1.8v-7.8c0-0.8,0.2-1.4,0.5-1.9c0.4-0.5,0.9-0.7,1.4-0.7c0.4,0,0.7,0.1,1.1,0.2
		c0.3,0.1,0.8,0.4,1.3,0.7l1.8-4l-1.2-0.5l-0.5,0.8c-0.4-0.2-0.8-0.4-1.2-0.5c-0.4-0.1-0.7-0.2-1-0.2c-0.5,0-1,0.2-1.4,0.6
		c-0.4,0.4-0.9,1.1-1.5,2.1C176,74.6,175.6,74.1,175.2,73.7"/>
	<path class="st0" d="M185.9,67.2c-0.6,0-1.1,0.2-1.5,0.6c-0.4,0.4-0.6,0.9-0.6,1.5c0,0.6,0.2,1.1,0.6,1.5c0.4,0.4,1,0.7,1.5,0.7
		c0.6,0,1.1-0.2,1.5-0.6c0.4-0.4,0.6-0.9,0.6-1.5c0-0.6-0.2-1.1-0.6-1.5C187,67.4,186.5,67.2,185.9,67.2"/>
	<path class="st0" d="M182.7,86.3v1.5h6.6v-1.5h-1.4V74.6c0-0.3,0-0.6,0-1c0-0.4,0-0.8,0.1-1.2h-0.2l-5.2,1.6v1.4l1.4-0.4v11.2
		H182.7z"/>
	<path class="st0" d="M198.6,78c-0.3,0-0.6,0-0.9,0c-2.4,0-4.3,0.5-5.6,1.4c-1.3,0.9-2,2.2-2,4c0,1.4,0.5,2.5,1.4,3.5
		c0.9,0.9,2.1,1.4,3.5,1.4c0.8,0,1.6-0.2,2.4-0.5c0.8-0.4,1.5-0.9,2.1-1.6l0.4,1.7h4.8v-1.5h-1.4v-8.7c0-1.7-0.4-3-1.3-3.9
		c-0.9-0.8-2.1-1.3-3.9-1.3c-0.6,0-1.3,0.1-1.9,0.3c-0.6,0.2-1.3,0.5-2,0.8l0.3-1.1l-1.4-0.4l-1.5,4.5l1.4,0.5
		c0.4-0.8,1-1.4,1.7-1.9c0.6-0.4,1.4-0.6,2.1-0.6c0.8,0,1.4,0.2,1.8,0.6c0.4,0.4,0.7,1,0.7,1.7v1.1C199.2,78.1,198.9,78,198.6,78
		 M199.6,82.5c0,1.1-0.2,1.9-0.7,2.5c-0.5,0.6-1.2,0.9-2.1,0.9c-0.8,0-1.5-0.3-2.1-0.8c-0.5-0.5-0.8-1.3-0.8-2.1
		c0-1,0.4-1.9,1.2-2.5c0.8-0.6,1.8-1,3.1-1c0.3,0,0.6,0,0.8,0c0.2,0,0.5,0,0.7,0.1V82.5z"/>
	<path class="st0" d="M206,75.5l1.4-0.4v11.2H206v1.5h6.6v-1.5h-1.4v-9.5c0.6-0.5,1.2-0.9,1.9-1.3c0.7-0.3,1.3-0.5,1.9-0.5
		c0.7,0,1.3,0.2,1.7,0.6c0.4,0.4,0.6,1,0.6,1.7v8.9h-1.4v1.5h6.6v-1.5H221V77c0-1.4-0.4-2.5-1.2-3.3c-0.8-0.8-1.8-1.2-3.2-1.2
		c-0.8,0-1.6,0.2-2.5,0.7c-0.9,0.4-1.9,1.1-3,1.9l0-2.5h-0.2L206,74V75.5z"/>
	<path class="st0" d="M235.2,73.7c-0.8-0.8-2.1-1.3-3.8-1.3c-0.6,0-1.3,0.1-1.9,0.3c-0.6,0.2-1.3,0.5-2,0.8l0.3-1.1l-1.4-0.4
		l-1.5,4.5l1.4,0.5c0.4-0.8,1-1.4,1.7-1.9c0.7-0.4,1.4-0.6,2.1-0.6c0.8,0,1.4,0.2,1.8,0.6c0.4,0.4,0.7,1,0.7,1.7v1.1
		c-0.3,0-0.6-0.1-0.9-0.1c-0.3,0-0.6,0-0.9,0c-2.4,0-4.3,0.5-5.6,1.4c-1.3,0.9-1.9,2.2-1.9,4c0,1.4,0.5,2.5,1.4,3.5
		c0.9,0.9,2.1,1.4,3.5,1.4c0.9,0,1.7-0.2,2.4-0.5c0.8-0.4,1.5-0.9,2.2-1.6l0.3,1.7h4.9v-1.5h-1.4v-8.7
		C236.4,75.9,236,74.6,235.2,73.7 M232.6,82.5c0,1.1-0.3,1.9-0.8,2.5c-0.5,0.6-1.2,0.9-2.1,0.9c-0.8,0-1.5-0.3-2.1-0.8
		c-0.5-0.5-0.8-1.3-0.8-2.1c0-1,0.4-1.9,1.2-2.5c0.8-0.6,1.8-1,3.1-1c0.3,0,0.5,0,0.8,0c0.2,0,0.5,0,0.7,0.1V82.5z"/>
	<path class="st0" d="M11.4,108.4l0.7,0.8l3.3-2.9l-0.8-0.8l-0.6,0.5c-0.6-0.5-1.2-0.9-1.9-1.1c-0.7-0.2-1.4-0.4-2.3-0.4
		c-1,0-2,0.2-2.9,0.7c-0.9,0.4-1.7,1-2.4,1.8c-0.6,0.7-1,1.5-1.3,2.3c-0.3,0.9-0.5,1.8-0.5,2.7c0,2,0.6,3.6,1.8,4.9
		c1.2,1.3,2.7,2,4.5,2c1.2,0,2.3-0.3,3.2-0.7c0.9-0.5,1.8-1.3,2.6-2.4l-0.8-0.7c-0.5,0.6-1.1,1.1-1.6,1.4c-0.6,0.3-1.2,0.5-1.9,0.5
		c-1.4,0-2.6-0.6-3.5-1.8c-1-1.2-1.5-2.7-1.5-4.4c0-1.5,0.4-2.7,1.2-3.6c0.8-0.9,1.7-1.4,2.9-1.4c0.6,0,1.2,0.2,1.6,0.5
		c0.4,0.3,0.6,0.7,0.6,1.2c0,0.2,0,0.4-0.1,0.5C11.7,108.1,11.5,108.2,11.4,108.4"/>
	<path class="st0" d="M23.7,116.7c-0.6,0.4-1.4,0.6-2.4,0.6h-1.1v-11.4h1.6v-1.2h-5.6v1.2h1.2v11.6h-1.2v1.2h7.9l0,0.6h1l1-4.3
		l-0.9-0.2C24.8,115.6,24.3,116.3,23.7,116.7"/>
	<polygon class="st0" points="27.3,105.9 28.4,105.9 28.4,117.5 27.3,117.5 27.3,118.6 32.5,118.6 32.5,117.5 31.3,117.5 
		31.3,105.9 32.5,105.9 32.5,104.7 27.3,104.7 	"/>
	<polygon class="st0" points="28.4,103.3 29.6,103.3 32.5,99.7 30.4,99.7 	"/>
	<rect x="2.8" y="95.1" class="st0" width="239" height="2.6"/>
	<path class="st0" d="M17.6,51.9v11.3c0,3.6,5.9,8.8,9.7,8.8h7.9v7l-16.7,7.9h45.9L47.6,79v-7h7.9c4,0,9.7-5.2,9.7-8.8V51.9h7
		l7.9,14.8V23l-7.9,16.6h-7V17.7H47.6v-7l16.7-7.9H18.5l16.7,7.9v7H17.6v21.9h-7L2.6,23v43.8l7.9-14.8H17.6z M65.3,43.5h7v4.3h-7
		V43.5z M43.6,79h-4.3v-7h0c0.9,0,2.2,1.3,2.2,1.8c0-0.5,1-1.8,2.1-1.8V79z M39.3,10.7h4.3v7h-4.3V10.7z M18.9,19.2H64v43.1
		c0,3.4-5.4,8.3-9.2,8.3H43.6c-1.1,0-2,1.2-2,1.7c0-0.5-1.2-1.7-2.1-1.7H28.1c-3.6,0-9.2-4.9-9.2-8.3V19.2z M10.6,43.5h7v4.3h-7
		V43.5z"/>
	<path class="st0" d="M41.9,48.7c1.5,0,2.7-1.1,2.9-2.4c0.2-1.7-2.1-4.4-3.8-5.2c1.5,1.3,3.2,3.7,3.2,4.7c0,1.4-1.1,2.4-2.4,2.4
		c-1.3,0-3.6-1.2-1.6-4.2l-0.1-0.1C37.3,47,40.4,48.7,41.9,48.7"/>
	<path class="st0" d="M41.8,47.9c-0.7-0.4-1.2-1.3-1.2-2.2c0-0.7,0.3-1.5,0.6-2.1c-0.7,0.6-1.2,1.6-1.2,2.3
		C40,46.8,40.8,47.6,41.8,47.9"/>
	<path class="st0" d="M41,45.7c0,0.7,0.5,1.3,1.2,1.5c0,0-0.1-0.1-0.1-0.1c0.6-0.4,1-1.1,0.8-1.9c-0.1-0.6-0.6-1.4-1.1-1.9
		c0.4,0.5,0.7,1.2,0.8,1.8c0.1,0.8-0.1,1.5-0.5,2c-0.4-0.4-0.7-0.9-0.7-1.6c0-0.5,0.2-1.1,0.4-1.6C41.4,44.4,41,45.1,41,45.7"/>
	<path class="st0" d="M42.2,47.6c-0.2,0-0.3,0-0.5-0.1c0.3,0.2,0.6,0.4,1,0.3c0.3,0,0.5-0.2,0.7-0.4c0.3-0.3,0.5-0.8,0.6-1.3
		c0.1-1.3-1.3-3.2-2.3-3.9c0,0,0,0,0,0c0.9,1,2,2.8,2,3.5C43.6,46.9,43,47.6,42.2,47.6"/>
	<path class="st0" d="M42.5,54.7c-0.1,0-0.3,0-0.4,0v3.5c0.2,0.1,0.4,0.2,0.6,0.2c1,0,2-0.9,1.7-2.2C44.2,55.3,43.5,54.7,42.5,54.7"
		/>
	<path class="st0" d="M53.4,58.6C53.4,58.6,53.4,58.6,53.4,58.6c-0.3,0-0.5-0.1-0.7-0.1c-0.3,0-0.6,0-0.9,0.1v3.3c0.2,0,0.4,0,0.7,0
		c0.2,0,0.4,0,0.7,0c0.1,0,0.2,0,0.3,0c1.5-0.3,1.7-0.7,1.7-1.7C55.1,59.5,54.5,58.6,53.4,58.6"/>
	<path class="st0" d="M53.1,57.8c0.1,0,0.2,0,0.2,0c1.2-0.2,1.6-0.7,1.6-1.6c0-0.9-0.7-1.6-1.6-1.6c0,0,0,0-0.1,0
		c-0.2,0-0.4-0.1-0.6-0.1c-0.3,0-0.6,0-0.8,0.1v3c0.2,0,0.4,0,0.6,0C52.7,57.9,52.9,57.8,53.1,57.8"/>
	<path class="st0" d="M27,67h12.1c0.9,0,2.2,1.3,2.2,1.8c0-0.5,1.2-1.8,2.2-1.8h12c2.3,0,4-1.8,4-3.6V37.2h-0.1V22.7H23v15v0.9v24.7
		C23,65.2,25.2,67,27,67 M52,62.7h-2.9v-0.5h0.4c0.4,0,0.7-0.3,0.8-0.6v-2.2v-2.3v-2.2c-0.1-0.3-0.4-0.6-0.8-0.6h-0.4v-0.5h4.2v0
		c0,0,0.1,0,0.1,0v0c1.8,0,3.2,1.1,3.2,2.3c0,1.2-0.4,1.8-1.1,2.1c0.8,0.4,1.3,1,1.3,1.8C56.8,61.2,56.8,63.1,52,62.7 M57.1,36h-3.8
		l0-1.3h2.5c0.4,0,0.7-0.3,0.7-0.7v-0.1h0.6V36z M47.7,30.5c0.4-1.9,2-3.5,4.5-3.5c2.5,0,4.2,1.6,4.5,3.5c0.1,0.9-0.2,3.7-3.5,4.3
		l0-0.7c1.2-0.4,1.9-1.7,1.9-3.1c0-1.7-1.3-3.1-2.8-3.1c-1.6,0-2.8,1.4-2.8,3.1c0,1.3,0.6,2.5,1.7,3l0.1,0.9
		C48.6,34.4,47.4,32.1,47.7,30.5 M47.6,33.9h0.5V34c0,0.4,0.3,0.7,0.7,0.7h2.5l0.2,1.3h-4V33.9z M43.2,59.1c-1,0-1.4-0.1-1.5-0.2
		v0.6c0,0,0,0,0,0h0v2c0,0.4,0.3,0.7,0.7,0.7h0.6v0.5h-4.2v-0.5h0.4c0.4,0,0.7-0.3,0.8-0.6v-2.2v-2.3v-2.2c-0.1-0.3-0.4-0.6-0.8-0.6
		h-0.4v-0.5h4.2v0c1.6,0.1,2.7,0.9,3,2.2C46.4,57.9,44.9,59.1,43.2,59.1 M40.5,40.3c-0.8-1.1,6.3,2.8,5.3,6.1
		c-0.5,1.7-1.6,3.2-3.7,3.2c-2,0-3.8-1.5-3.8-3.2C38.3,43.8,42.4,43.7,40.5,40.3 M25.4,35.5c0.3-0.1,0.7-0.2,0.9-0.6l3.5-8h0.3
		l3.3,7.9c0.3,0.5,0.8,0.6,1.2,0.6V36H31v-0.6h0.7c0.2,0,0.2-0.3,0.2-0.7l-0.4-1h-3.6l-0.6,1c0,0.4,0,0.7,0.4,0.7h0.6V36h-2.9V35.5z
		 M25.1,53.8h4.1v0.5h-0.6c-0.4,0-0.7,0.3-0.7,0.7v4.3c0,0,0,0,0,0.1c0,0,0,0.1,0,0.1c0,0.9,0.4,2,1.5,2.3c0.2,0.1,0.5,0.1,0.8,0.1
		c0.2,0,0.5,0,0.7-0.1c1.2-0.2,1.6-1.4,1.6-2.3c0-0.1,0-0.1,0-0.2c0,0,0-0.1,0-0.1V55c0-0.4-0.3-0.7-0.7-0.7h-0.5v-0.5h3.5v0.5h-0.6
		c-0.4,0-0.7,0.3-0.7,0.7v4.1c0,0,0,0,0,0c0,0,0,0,0,0v0.1c0,0,0,0,0,0.1c0,0,0,0.1,0,0.1c0,0.1,0,0.1,0,0.2
		c-0.1,1.4-0.7,2.7-2.5,2.9c-0.3,0.1-0.7,0.2-1.1,0.2c-0.4,0-0.8-0.1-1.2-0.2c-1.7-0.4-2.3-1.7-2.3-3.1c0,0,0-0.1,0-0.2v-4.4
		c-0.1-0.3-0.4-0.6-0.8-0.6h-0.4V53.8z"/>
	<path class="st0" d="M30.1,29.8C30.1,29.8,30.1,29.7,30.1,29.8C30.1,29.7,30,29.8,30.1,29.8l-1.6,2.9h2.7L30.1,29.8z"/>
</g>
</svg>
