<?xml version="1.0" encoding="utf-8"?>
<!-- Generator: Adobe Illustrator 19.1.0, SVG Export Plug-In . SVG Version: 6.00 Build 0)  -->
<svg version="1.1" id="Layer_1" xmlns="http://www.w3.org/2000/svg" xmlns:xlink="http://www.w3.org/1999/xlink" x="0px" y="0px"
	 viewBox="0 0 464.5 122" style="enable-background:new 0 0 464.5 122;" xml:space="preserve">
<style type="text/css">
	.st0{fill:#FFFFFF;}
</style>
<g>
	<path class="st0" d="M193.3,109.7c-6.8-0.2-13-2.4-18.8-6c-8-5-14.1-11.7-19.3-19.4c-6.3-9.4-11.9-19.3-17.9-28.9
		c-6.5-10.5-13.8-20.4-22.8-28.8c-5.7-5.3-11.8-9.7-19.5-11.5c-4.1-0.9-8.3-0.8-12.4,0.5c-4.6,1.6-8.5,4.4-12,7.8
		c-8,7.8-13.9,17-18.6,27c-0.4,0.8-0.9,1.5-0.9,2.4c0,0.3,0,0.5,0.3,0.6c0.3,0.1,0.4-0.1,0.5-0.3c0.2-0.2,0.3-0.4,0.5-0.6
		c2.5-3.8,5.3-7.3,8.3-10.7c5.7-6.4,11.9-12.1,20-15.2c3.8-1.4,7.7-1.6,11.6-0.7c4.2,1,7.6,3.4,10.5,6.4c2.9,2.9,5.1,6.3,7.3,9.6
		c4.4,6.6,9,13.2,13.3,19.9c6.9,10.8,14.3,21.2,23.1,30.6c6.4,6.9,13.4,13.1,21.9,17.4c4.5,2.3,9.1,3.8,15.7,3.8
		c2.7,0.1,6-1.1,9.5-3c0.3-0.2,0.8-0.4,0.8-0.8C194.2,109.5,193.7,109.7,193.3,109.7z"/>
	<path class="st0" d="M31.2,58.5c5.9,6.3,11.2,13.1,16.6,19.8c0.7,0.9,1.4,1.8,2.3,2.4c3.1,2,6.1,3.9,9.3,5.7
		c4.3,2.4,8.6,4.5,13.2,6.4c3.7,1.5,7.6,2.7,11.5,3.8c0.3,0.1,0.6,0.1,1-0.3c-0.5-0.4-0.9-0.7-1.4-1c-3.7-2.8-7.3-5.7-10.2-9.4
		c-4.3-5.5-8.5-11.1-12.7-16.6c-4.2-5.5-8.3-10.9-13.8-15.2c-6.6-5.2-14-8.6-22.4-9.5c-5.5-0.6-10.8,0.1-16,2.1
		C6.5,47.3,4.5,48.2,3,50c-0.4,0.5-0.8,1-0.5,1.6c0.3,0.6,0.8,0.9,1.5,0.9c1.1,0.1,2.2-0.1,3.3-0.3c2.1-0.4,4.3-1,6.5-0.9
		c2.4,0,4.8,0.5,7.1,1.2C24.7,53.7,28.4,55.5,31.2,58.5z"/>
	<path class="st0" d="M130.9,42.9c2.9,3.7,5.4,7.6,7.8,11.6c0.4,0.6,0.5,1.6,1.4,1.5c0.9-0.1,0.6-1.1,0.8-1.7
		c1.8-5.4,3.6-10.8,5.2-16.3c1.4-4.7,3.4-9.1,6.4-13c3.8-4.9,8.7-8.1,14.6-9.8c3.4-1,6.9-1.3,10.4-1.9c0.7-0.1,1.5-0.2,1.8-1
		c0.3-0.8-0.3-1.3-0.8-1.9c-2.9-3.2-6.7-3.9-10.8-4.1c-2.2-0.2-4.2,0.3-6.2,0.9c-4.9,1.3-9.2,3.9-13.1,7.2
		c-8.1,7-13.4,15.9-17.9,25.5C129.9,41.2,130.2,42,130.9,42.9z"/>
	<path class="st0" d="M43.9,76c-0.7-0.8-1.2-0.7-1.5,0.3c-0.8,2.1-1.4,4.3-2.2,6.4c-1.4,3.9-2.6,8-4.4,11.7
		c-3.1,6.4-7.8,11.7-13.4,16.1c-2.3,1.8-5.1,3-7.1,5.3c-0.7,0.8-1.5,1.6-1.1,2.7c0.5,1.2,1.6,0.9,2.6,0.9c0.7,0,1.4,0,2.1-0.2
		c4.1-1,7.7-2.8,11.2-5.1c4-2.7,7.6-5.8,10.9-9.4c4.8-5.1,8.7-10.8,11.9-17c0.2-0.5,0.4-0.9,0-1.3C49.6,83.1,46.8,79.5,43.9,76z"/>
	<path class="st0" d="M126.3,25.9c6.2,0,11.5-5,11.4-11.5c-0.1-6.4-4.9-11.2-11.4-11.3c-6.3,0-11.5,5-11.2,11.4
		C114.7,20.5,120.2,25.9,126.3,25.9z"/>
	<path class="st0" d="M428.3,70.4c-0.4,0.3-0.7,0.9-1.3,0.6c-0.5-0.3-0.3-0.9-0.3-1.4c0-4.8,0-9.6,0-14.5c0-0.5,0.1-1.2-0.4-1.4
		c-0.9-0.4-1.9-0.3-2.8-0.1c-0.8,0.2-0.6,1-0.6,1.7c0,5.2,0,10.3,0,15.5c0,5.3,0,10.6,0,15.9c0,0.6,0,1.5,0.9,1.4
		c0.9,0,2.3,0.7,2.8-0.6c0.5-1.4,0.9-1.1,1.7-0.4c3.2,2.8,8.4,1.9,11.1-1c3-3.2,3.1-9.3,1.4-12.6C438.1,68.4,431.8,67.7,428.3,70.4z
		 M437.9,80.5c-0.6,2-1.6,3.7-3.8,4.4c-4,1.3-7.2-1.4-7.6-5.4c0-0.3,0-0.6,0-0.9c0-4.5,3.5-7.4,7.6-6.1
		C437,73.4,438.8,77.3,437.9,80.5z"/>
	<path class="st0" d="M310.7,70.4c-0.3,0.3-0.6,0.9-1.2,0.6c-0.5-0.3-0.4-0.9-0.4-1.4c0-4.7,0-9.5,0-14.2c0-1.8-0.1-1.9-2.1-1.9
		c-1.8,0-1.8,0-1.8,1.8c0,5.2,0,10.3,0,15.5c0,5.2,0,10.3,0,15.5c0,0.7-0.3,1.6,0.8,1.8c1.6,0.3,2.7,0,3.1-1.1
		c0.2-0.6,0.5-0.8,1-0.3c0.3,0.2,0.5,0.4,0.8,0.6c3,2.2,7.4,1.7,10.2-0.8c3.4-3.1,3.9-9.5,1.7-13.5
		C320.5,68.5,314.2,67.7,310.7,70.4z M315.5,85.2c-2.4,0.3-5-1-5.9-3.4c-1-2.5-0.9-4.9,0.6-7.1c1.2-1.8,2.9-2.5,5-2.4
		c2.2,0.1,3.7,1.2,4.7,3.1c0.6,1.1,0.8,2.3,0.7,3.4C320.6,82,318.4,84.9,315.5,85.2z"/>
	<path class="st0" d="M43.9,44.4c5.3,0.2,9.6-4.3,9.7-9.2c0-5.2-4.3-9.6-9.3-9.5c-5.2-0.2-9.5,4.2-9.5,9.1
		C34.7,40.2,38.6,44.2,43.9,44.4z"/>
	<path class="st0" d="M60.2,65.9c0.2,0.3,0.4,0.5,0.9,0.6c0.5,0.1,0.4-0.4,0.5-0.7c0.8-2.3,1.5-4.6,2.3-6.8c1.5-4.3,3-8.6,4.5-12.9
		c1.5-4.5,3.3-8.9,5.9-12.9c0.2-0.4,0.7-0.8,0.3-1.1c-0.4-0.4-0.8,0.1-1.1,0.3c-4.1,2.8-7.7,6.2-11,9.9c-3.7,4.1-7,8.5-10,13.1
		c-0.3,0.5-0.7,1,0,1.6C55.4,59.5,57.8,62.7,60.2,65.9z"/>
	<path class="st0" d="M173.8,59.5c0.1,4.4,0,8.9,0,13.3s0,8.9,0,13.3c0,2,0,2,1.8,2c2,0,2.1-0.1,2.1-2.1c0-2.9,0-5.9,0-8.8
		c0-1,0.3-1.5,1.4-1.5c1.4-0.1,2.8-0.2,4.2-0.5c2.5-0.5,4.7-1.7,6-4.1c0.9-1.7,1-3.4,1-5.2c-0.1-3.6-2.4-6.4-6-7.3
		c-3-0.8-6.1-0.5-9.1-0.7C174,58,173.7,58.4,173.8,59.5z M177.6,66.6c0-1.3,0-2.7,0-4c0-0.5,0.1-1,0.7-1c2.5,0.1,5.1,0,7.1,2.1
		c1.7,1.8,1.3,5.5-0.6,6.9c-2,1.5-4.2,1.4-6.4,1.3c-0.7,0-0.8-0.6-0.8-1.1C177.6,69.3,177.6,68,177.6,66.6z"/>
	<path class="st0" d="M209,69.3c-0.4,0-0.9,0-1.3,0c-0.6,0-0.9,0.2-1,0.8c-0.2,1.4-0.7,1.1-1.6,0.4c-2.9-2.4-7.7-2.2-10.4,0.3
		c-3.6,3.4-3.9,7.5-2.5,12c1.7,5.6,8.9,7.8,13.2,4c0.6-0.5,1-0.6,1.3,0.3c0.3,1,1.2,1.3,2.9,1c1-0.2,0.9-0.9,0.9-1.6
		c0-2.6,0-5.2,0-7.7c0-2.7,0-5.3,0-8C210.5,69.7,210.1,69.2,209,69.3z M206.8,78.6c0,3.9-1.8,6.1-5.2,6.6c-2.1,0.3-4.1-0.8-5.4-3
		c-1.8-3.1-0.9-7.3,2.1-9.3c2.6-1.7,6.6-0.5,7.9,2.4C206.6,76.5,207,77.6,206.8,78.6z"/>
	<path class="st0" d="M449.1,79.4c1.9,0,3.7,0,5.6,0c1.9,0,3.8-0.1,5.7,0c1.1,0,1.4-0.4,1.3-1.4c-0.1-1.1-0.3-2.1-0.5-3.2
		c-1.6-6.8-9.5-7.2-13.5-4.7c-4,2.5-5,9.2-3,13.5c3,6.5,12.3,6.6,16.3,0.9c0.7-0.9,0.5-1.4-0.5-1.9c-1.9-1-1.9-1-3.2,0.5
		c-0.2,0.2-0.4,0.4-0.6,0.6c-1.7,1.4-3.6,1.8-5.6,1c-1.7-0.7-2.7-2-3.2-3.8C447.5,79.6,447.7,79.4,449.1,79.4z M448.1,75.3
		c0.9-2,2.5-3,4.7-3.1c1.9-0.1,3.4,0.9,4.4,2.5c0.7,1.2,0.4,1.8-1,1.8c-1.2,0-2.3,0-3.5,0c-1.2,0-2.5,0-3.7,0
		C447.9,76.5,447.8,76,448.1,75.3z"/>
	<path class="st0" d="M292.8,68.8c-6.2-0.1-10.3,4.9-10.3,9.9c0.1,5.6,4.4,10,10,10c5.8,0,10.3-4.6,10.1-10
		C302.9,73.5,298.3,68.9,292.8,68.8z M292.6,85c-3.5,0-6.3-2.8-6.2-6.3c0-3.4,2.8-6.2,6.1-6.2c3.5,0,6.2,2.7,6.2,6.2
		C298.7,82.3,296.1,85,292.6,85z"/>
	<path class="st0" d="M254.1,68.9c-6-0.4-10.1,4.7-10.1,9.9c0.1,5.6,4.3,10,10,10c5.6,0,10-4.3,10.1-9.9
		C264.1,73.5,259.8,68.6,254.1,68.9z M254,85c-3.4,0-6.1-2.8-6.1-6.2c0-3.6,2.7-6.4,6.2-6.4c3.4,0,6.2,2.9,6.1,6.3
		C260.1,82.3,257.4,85,254,85z"/>
	<path class="st0" d="M335.9,68.9c-5.9-0.4-10.1,4.7-10,9.8c0.1,5.7,4.3,10.1,10,10.1c5.7,0,9.9-4.4,10-10.1
		C346,73.6,341.8,68.5,335.9,68.9z M335.9,85c-3.4,0-6.1-2.7-6.1-6.1c0-3.6,2.6-6.4,6.1-6.4c3.4,0,6.2,2.9,6.2,6.3
		C342,82.3,339.4,85,335.9,85z"/>
	<path class="st0" d="M363.5,70.9c-1.7-2.7-7.5-2.7-9.6-0.6c-0.6,0.5-0.8,0.8-1.2-0.3c-0.5-1.3-1.8-0.6-2.7-0.7c-0.8,0-1,0.7-1,1.4
		c0,2.7,0,5.3,0,8c0,2.5,0,5,0,7.5c0,1.7,0.2,1.9,2,1.9c1.7,0,1.9-0.1,1.9-1.8c0-2.5,0-5,0-7.5c0-1.4,0-2.7,0.6-4.1
		c0.9-2,2.3-2.8,4.8-2.4c1.8,0.3,2.9,1.4,2.9,3.5c0.1,3.6,0.1,7.1,0.1,10.7c0,1.4,0.2,1.6,1.8,1.6c1.7,0,2-0.2,2-1.6
		c0-3.6,0.1-7.2,0-10.8C364.9,74,364.5,72.4,363.5,70.9z"/>
	<path class="st0" d="M286,60c0-0.3,0-0.6,0-0.9c0.1-0.8-0.3-1.1-1.1-1.1c-5.4,0-10.8,0-16.2,0c-0.8,0-1.1,0.4-1.1,1.1
		c0,0.4,0,0.8,0,1.2c-0.1,0.9,0.4,1.3,1.3,1.3c1.4,0,2.8,0,4.1,0c1.5,0,1.7,0.2,1.7,1.7c0,3.8,0,7.7,0,11.5c0,3.7,0,7.4,0,11.1
		c0,2.1,0,2.1,2.2,2.1c0.1,0,0.3,0,0.4,0c1,0.1,1.5-0.4,1.5-1.5c0-1.9,0-3.7,0-5.6c0-5.9,0-11.8,0-17.7c0-1.5,0.2-1.7,1.7-1.7
		c1.2,0,2.5-0.1,3.7,0C285.6,61.7,286.1,61.3,286,60z"/>
	<path class="st0" d="M240.7,70.7c0-5.3,0-10.5,0-15.8c0-1.4-0.7-1.5-1.8-1.5c-1,0-1.9,0-1.8,1.4c0.1,3,0,6,0,9c0,7.4,0,14.9,0,22.3
		c0,0.5-0.2,1.3,0.4,1.5c0.8,0.4,1.8,0.3,2.7,0.1c0.8-0.2,0.5-1.1,0.5-1.7C240.7,81.1,240.7,75.9,240.7,70.7z"/>
	<path class="st0" d="M381.6,46c0.2,0.3,0.5,0.5,0.8,0.5c0.4-0.1,0.4-0.4,0.4-0.7c0-4.8,0-9.6,0-14.3c0-0.8-0.5-1-1.2-1
		c-0.7,0-1.1,0.3-1.1,1.1c0,0.3,0,0.5,0,0.8c0,2.2,0,4.5,0,6.7c0,0.6,0.3,1.5-0.4,1.7c-0.6,0.3-1-0.6-1.4-0.9
		c-0.4-0.3-0.7-0.7-1.1-1.1c-2.6-2.7-5.1-5.4-7.7-8.1c-0.3-0.3-0.6-0.7-1-0.6c-0.5,0.2-0.3,0.7-0.3,1.1c0,2.3,0,4.6,0,6.8
		c0,2.2,0,4.4,0,6.6c0,0.8-0.3,1.9,1.2,1.9c1.5-0.1,0.9-1.2,1-1.9c0.1-2.2,0-4.5,0-6.7c0-0.6-0.3-1.6,0.4-1.9
		c0.8-0.4,1.2,0.6,1.7,1.1C375.9,39.9,378.8,42.9,381.6,46z"/>
	<path class="st0" d="M233.1,29.9c-4.8-0.1-8.7,3.8-8.7,8.4c0,4.4,3,8.3,8.3,8.4c4.9,0.1,8.5-3.3,8.5-8.4
		C241.4,34,237.5,30,233.1,29.9z M239,38.3c-0.1,3.5-3.2,6.4-6.5,6.2c-3.5-0.2-6-3-5.9-6.5c-0.2-3.7,3.5-6.2,6.3-6.1
		C236.3,32.1,239.2,35.1,239,38.3z"/>
	<path class="st0" d="M355.6,46.7c5,0,8.7-3.9,8.4-8.3c0.3-4.9-4-8.5-8.1-8.5c-4.8,0-8.6,3.7-8.6,8.4
		C347.3,43,350.8,46.6,355.6,46.7z M355.7,32c3.4,0,6.2,2.8,6.1,6.3c0,3.5-2.9,6.3-6.2,6.2c-3.4-0.1-6.1-2.9-6.1-6.4
		C349.6,34.4,352.5,32,355.7,32z"/>
	<path class="st0" d="M394.5,60.5c0-2.5,0.1-2.4-2.3-2.5c-1.3,0-1.5,0.4-1.5,1.7c0.1,5.1,0.1,10.2,0.1,15.2c0,1.8-0.1,3.7-0.6,5.5
		c-0.8,2.7-2.8,4.4-5.8,4.6c-3,0.2-5.5-1.2-6.6-3.7c-0.8-1.7-0.9-3.5-0.9-5.3c0-5.2,0-10.3,0-15.5c0-2.4,0-2.4-2.5-2.5
		c-1.3,0-1.5,0.4-1.5,1.6c0,6,0,12.1,0,18.1c0,1.3,0.2,2.6,0.6,3.9c2.1,6.5,9.2,8.6,14.6,6.4c4.7-1.9,6.4-5.7,6.6-10.5
		c0.1-2.9-0.1-5.8-0.1-8.7C394.5,66.1,394.5,63.3,394.5,60.5z M373,68.7c0,1.8,0,3.7,0,5.5C373,72.4,373,70.5,373,68.7
		c0-2.9,0-5.9,0-8.8C373,62.9,373,65.8,373,68.7z"/>
	<path class="st0" d="M217.4,40.1c0,1.7,0,3.4,0,5c0,1,0.4,1.3,1.3,1.3c0.9,0,1.2-0.4,1.2-1.3c0-4.5,0-9,0-13.4
		c0-0.9-0.3-1.3-1.3-1.3c-1,0-1.2,0.5-1.2,1.4c0,1.2,0,2.5,0,3.7c0,0.8-0.3,1.2-1.1,1.2c-1.7,0-3.4,0-5,0c-0.8,0-1.1-0.4-1-1.1
		c0-1.3,0-2.6,0-3.9c0-0.8-0.1-1.3-1.1-1.4c-1,0-1.1,0.6-1.1,1.3c0,2.2,0,4.5,0,6.7c0,2.3,0,4.6,0,6.8c0,0.7,0.2,1.2,1,1.1
		c0.8,0,1.2-0.3,1.2-1.1c0-1.7,0-3.4,0-5.2c0-1,0.3-1.4,1.3-1.4c1.5,0.1,3,0,4.5,0C217,38.7,217.4,39.1,217.4,40.1z"/>
	<path class="st0" d="M404.5,30.8c-0.2-0.3-0.2-0.8-0.7-0.8c-0.5,0-0.6,0.4-0.7,0.8c-0.8,1.8-1.6,3.6-2.5,5.4
		c-1.4,3.1-2.8,6.1-4.3,9.2c-0.2,0.4-0.2,0.8,0.3,0.9c0.9,0.1,2,0.2,2.2-0.9c0.6-2.6,2.2-3.5,4.7-3c0,0,0.1,0,0.1,0
		c0.6,0,1.2,0.1,1.8,0c1.3-0.1,2.1,0.4,2.5,1.7c0.2,0.6,0.5,1.2,0.8,1.7c0.5,0.8,1.4,0.8,2.1,0.5c0.8-0.4,0.1-0.9-0.1-1.4
		C408.7,40.2,406.6,35.5,404.5,30.8z M404.7,40.4c-0.3,0-0.7,0.1-1,0.1c-0.1,0-0.3,0-0.4,0c-1.9,0-2-0.4-1.2-2.1
		c0.4-0.8,0.8-1.8,1.1-2.7c0.1-0.3,0.3-0.5,0.7-0.5c0.4,0,0.5,0.3,0.6,0.6c0.4,1,0.9,2,1.3,3C406.2,40,406,40.3,404.7,40.4z"/>
	<path class="st0" d="M306.3,45.1c-2.2-4.7-4.3-9.4-6.4-14.1c-0.2-0.4-0.3-0.8-0.8-0.9c-0.6-0.1-0.5,0.6-0.7,0.9
		c-2.2,4.7-4.3,9.3-6.4,14c-0.5,1.2-0.4,1.4,0.9,1.4c0.8,0,1.3-0.5,1.4-1.1c0.6-2.6,2.2-3.3,4.6-2.9c0.3,0,0.6,0,0.9,0
		c3.1,0,2.5-0.5,4.1,2.7c0,0.1,0.1,0.2,0.1,0.2c0.2,0.7,0.7,1,1.5,1C306.6,46.4,306.8,46.2,306.3,45.1z M300.4,40.2
		c-0.5,0-1,0-1.5,0c-2.5,0-2.5-0.1-1.5-2.3c0.3-0.7,0.7-1.5,1-2.2c0.1-0.3,0.1-0.6,0.6-0.6c0.3,0,0.5,0.2,0.6,0.4
		c0.5,1.2,1.1,2.4,1.6,3.7C301.4,39.9,301.1,40.2,300.4,40.2z"/>
	<path class="st0" d="M442.7,43.6c-0.8-4-1.6-8.1-2.4-12.1c-0.1-0.4,0.1-0.9-0.4-1c-0.6-0.1-0.8,0.5-0.9,0.9c-0.5,1.3-1,2.6-1.6,3.8
		c-1,2-1.7,4.2-3,6.4c-1.5-3.6-3-6.9-4.4-10.2c-0.2-0.5-0.4-1.1-1-1c-0.5,0.1-0.3,0.7-0.4,1.1c-0.1,0.4-0.2,0.8-0.2,1.3
		c-0.8,4-1.6,8-2.4,12c-0.1,0.6-0.5,1.4,0.5,1.5c0.8,0.1,1.5,0,1.6-1.1c0.4-2.4,0.8-4.7,1.3-7.1c0.1-0.4-0.1-1,0.5-1
		c0.5,0,0.6,0.5,0.8,0.9c1.1,2.4,2.1,4.9,3.2,7.3c0.1,0.3,0.1,0.9,0.6,0.8c0.4,0,0.5-0.6,0.7-0.9c0.8-1.9,1.6-3.8,2.5-5.6
		c0.5-0.9,0.6-2.1,1.7-2.7c0.5,2.9,1.1,5.7,1.5,8.5c0.2,1.1,0.8,1.1,1.6,1c0.9-0.1,0.7-0.7,0.6-1.3
		C442.9,44.6,442.8,44.1,442.7,43.6z"/>
	<path class="st0" d="M409.4,69c-2.4-0.3-4.4,0.3-6,2.4c-0.4-2.1-0.6-2.2-2.8-2c-1.6,0.1-1.1,1.3-1.1,2.1c0,4.8,0,9.6,0,14.4
		c0,2,0,2.1,1.8,2.1c1.8,0,1.9-0.1,1.9-2.1c0-2.8-0.1-5.5,0-8.3c0.2-3.3,1.7-6.3,5.9-4.7c0.4,0.1,0.6,0,0.8-0.3
		c0.2-0.5,0.5-0.9,0.7-1.4C411.4,69.7,411.1,69.2,409.4,69z"/>
	<path class="st0" d="M249.4,46.6c2.4,0.4,5-1,5.6-3c0.9-2.8,0.1-4.9-2.4-6.3c-1.2-0.7-2.6-0.9-3.7-1.8c-0.7-0.6-0.9-1.2-0.6-2
		c0.5-1.2,2.2-1.7,3.4-1.1c0.4,0.2,0.7,0.4,1.1,0.7c0.7,0.6,1.2,0,1.7-0.4c0.6-0.5,0-0.9-0.2-1.2c-1-1.1-2.2-1.6-3.7-1.6
		c-2,0-4,1.2-4.4,2.7c-0.7,2.1,0,3.7,2.1,5c0.8,0.5,1.7,0.8,2.5,1.2c1,0.5,2.1,1,2.3,2.3c0.3,1.5-0.5,2.9-1.9,3.2
		c-1.5,0.4-3.1-0.3-3.5-1.8c-0.3-1-0.9-1.1-1.6-0.8c-1,0.4-0.7,1.3-0.3,2C246.4,45.3,247.6,46.3,249.4,46.6z"/>
	<path class="st0" d="M338.9,46.7c1.2,0,2.6-0.2,3.7-0.9c0.5-0.4,0.9-1.9,0.5-2.4c-0.6-0.6-0.9,0.2-1.2,0.4
		c-2.5,1.3-5.6,0.9-7.4-1.1c-2-2.1-2.1-5.6-0.4-8c2-2.8,5-3.4,8.2-1.7c0.4,0.2,0.7,0.6,1,0c0.4-0.9-0.1-2-1-2.4
		c-5.2-2.2-12,1.8-11.5,7.9C330.3,42.9,334,46.6,338.9,46.7z"/>
	<path class="st0" d="M220,70.5c-0.3,0.3-0.7,0.9-1.2,0.6c-0.5-0.3-0.3-0.9-0.3-1.4c0-4.8,0-9.6,0-14.5c0-1.6-0.1-1.7-1.9-1.8
		c-1.9,0-2.1,0.1-2.1,1.7c0,5.2,0,10.3,0,15.5c0,5.3,0,10.6,0,15.9c0,1.1,0.4,1.6,1.5,1.5c0.5,0,1,0,1.5,0c0.4,0,0.8-0.2,0.9-0.6
		c0.1-1.7,0.9-1,1.6-0.4c3.8,3.1,9.2,1.8,11.7-1.8c2.5-3.8,2.7-7.7,0.7-11.8C230.1,68.6,223.6,67.5,220,70.5z M218.6,81.2
		c-0.2-0.8-0.3-1.6-0.4-2.1c0.1-4.4,3.2-7.9,7.6-6.6c1.6,0.5,2.6,1.6,3.3,3c1.4,2.7,0.7,6.4-1.5,8.4C225,86.4,220,85.7,218.6,81.2z
		 M215,59.4c0,3.8,0,7.6,0,11.3c0,5.1,0,10.2,0,15.2c0-5.1,0-10.2,0-15.2C215,67,215,63.2,215,59.4z"/>
	<path class="st0" d="M415.7,69.3c-1.1,0-1.6,0.1-1.5,1.5c0.1,2.7,0.3,5.3,0.3,8c0,2.4,0,4.7,0,7.1c0,2.3-0.3,2.3,2,2.3
		c1.1,0,1.4-0.4,1.4-1.5c0-5.3-0.1-10.6-0.1-15.9C417.8,69.2,416.8,69.3,415.7,69.3z"/>
	<path class="st0" d="M269.4,34.8c-0.2-2.5-1.2-3.8-3.7-4.3c-1.3-0.2-2.7-0.1-4-0.2c-1,0-1.4,0.3-1.4,1.4c0,2.2,0,4.5,0,6.7
		c0,2.3,0,4.6,0,6.8c0,0.8,0.3,1.1,1.2,1.1c0.9,0,1.2-0.3,1.1-1.2c0-1.1,0-2.2,0-3.2c0-2.2,0-2.2,2.2-2.4c0.3,0,0.6-0.1,0.9-0.1
		C268,39,269.6,37.1,269.4,34.8z M265,37.4c-2.4,0.4-2.4,0.4-2.4-2.5c0-0.1,0-0.2,0-0.3c0.3-0.8-0.8-2.3,1-2.4
		c1.9-0.1,3.4,0.9,3.6,2.4C267.4,36,266.4,37.2,265,37.4z"/>
	<path class="st0" d="M447.4,46.4c0.7,0,1.2-0.2,1.4-0.8c0.3-0.7,0.7-1.3,0.9-2c0.3-1,0.9-1.2,1.8-1.2c1.5,0,3,0.1,4.5,0
		c1-0.1,1.5,0.4,1.9,1.2c0.3,0.6,0.6,1.2,0.8,1.8c0.2,0.8,0.8,1.1,1.4,1c0.9,0,1.5,0,0.9-1.1c-1.4-2.8-2.5-5.6-3.8-8.4
		c-0.9-1.9-1.8-3.9-2.7-5.8c-0.2-0.4-0.4-0.7-0.8-0.8c-0.5-0.1-0.5,0.4-0.6,0.7c-0.3,0.7-0.7,1.4-1,2.1c-1.9,4.1-3.8,8.2-5.6,12.2
		C446.2,46.1,446.6,46.4,447.4,46.4z M452.4,37.9c0.3-0.7,0.7-1.5,1-2.2c0.3-0.9,0.8-0.6,1-0.1c0.6,1.3,1.2,2.6,1.7,3.9
		c0.2,0.5-0.1,0.8-0.6,0.8c-0.6,0-1.1,0-1.7,0C451.5,40.2,451,40.8,452.4,37.9z"/>
	<path class="st0" d="M189,46.4c1.5,0,3,0,4.5,0c0.8,0,1.2-0.3,1.2-1.1c0-0.8-0.4-1-1.1-1c-0.6,0-1.1,0-1.7,0
		c-1.7,0-1.7-0.1-1.7-1.8c0-3.6,0-7.2,0-10.8c0-1-0.4-1.3-1.3-1.3c-0.9,0-1.2,0.4-1.2,1.3c0,2.2,0,4.5,0,6.7c0,2.2,0,4.5,0,6.7
		C187.6,46.1,188,46.4,189,46.4z"/>
	<path class="st0" d="M175.2,30.4c-1.2,0-1.6,0.3-1.6,1.5c0.1,2.1,0,4.3,0,6.5c0,2.2,0,4.5,0,6.7c0,0.9,0.3,1.3,1.3,1.3
		c2.1,0,4.1,0,6.2,0c0.7,0,1.3-0.1,1.3-1c0-1-0.6-1.1-1.4-1.1c-1.3,0-2.7,0-4,0c-0.8,0-1.2-0.2-1.2-1.1c0-1.2,0-2.3,0-3.5
		c0-1,0.4-1.3,1.3-1.3c1.3,0,2.7,0,4,0c0.6,0,1-0.3,1-1c0-0.7-0.4-0.9-1-0.9c-0.8,0-1.5,0-2.3,0c-3.2-0.1-2.9,0.7-2.9-3.1
		c0-1,0.4-1.3,1.3-1.2c1.3,0,2.6,0,3.9,0c0.7,0,1.2-0.2,1.3-1c0-0.9-0.7-0.9-1.3-0.9C179.1,30.4,177.2,30.4,175.2,30.4z"/>
	<path class="st0" d="M312.1,46.4c1.6,0,3.2,0,4.8,0c0.8,0,1-0.4,1-1.1c0-0.7-0.3-1-1-1c-0.6,0-1.2,0-1.8,0c-2,0-2,0-2-2
		c0-3.5,0-7.1,0-10.6c0-0.8-0.1-1.4-1.1-1.3c-0.9,0-1.1,0.6-1.1,1.4c0,2.2,0,4.5,0,6.7c0,2.2,0,4.5,0,6.7
		C310.8,46,311.2,46.4,312.1,46.4z"/>
	<path class="st0" d="M282.2,32.3c1.9,0.1,2,0.1,2,2c0,3.6,0,7.1,0,10.7c0,0.9,0.3,1.4,1.2,1.3c1,0,1.1-0.6,1.1-1.4
		c0-3.3,0-6.5,0-9.8c0-2.3-0.5-3.1,2.6-2.9c0.7,0,1-0.3,1.1-1c0-0.7-0.7-1-1.4-1c-1.3,0-2.3,0-4.3,0c0,0,0,0,0,0c-1,0-2.2,0-3.4,0
		c-1.1,0-0.9,0.7-0.7,1.4C280.6,32.7,281.6,32.3,282.2,32.3z"/>
	<path class="st0" d="M337.4,59.9c-1.1,1.6-2.3,3.1-3.5,4.6c-0.7,0.9-0.3,1.8,0.8,1.9c0.7,0.1,1.1-0.2,1.5-0.6
		c1.2-1.2,2.5-2.3,3.8-3.5c1.9-1.8,1.9-1.8-0.4-3C338.6,58.9,338,59,337.4,59.9z"/>
	<path class="st0" d="M421.6,44.3c-0.7,0-1.4-0.1-2.1,0c-1.3,0.1-1.7-0.4-1.6-1.6c0.1-3.7,0-7.3,0-11c0-0.8-0.3-1.3-1.2-1.3
		c-0.9,0-1.3,0.4-1.3,1.3c0,2.2,0,4.5,0,6.7c0,2.3,0,4.6,0,6.8c0,0.7,0.2,1.1,1,1.1c1.7,0,3.4,0,5.2,0c0.7,0,1.1-0.3,1.1-1.1
		C422.8,44.4,422.3,44.3,421.6,44.3z"/>
	<path class="st0" d="M415.8,58.3c-1.4,0-2.5,1.2-2.5,2.6c0,1.5,1.1,2.6,2.6,2.6c1.3,0,2.5-1.2,2.5-2.6
		C418.3,59.5,417.2,58.3,415.8,58.3z"/>
	<path class="st0" d="M274.5,46.2c0.3,0.2,0.7,0.2,1,0c0.8-0.1,0.6-0.7,0.6-1.2c0-4.4,0-8.8-0.1-13.2c0-0.4,0.5-1-0.5-1.2
		c0,0,0,0,0,0c-1-0.5-1.6-0.3-1.6,0.9c0,4.5,0,9.1,0,13.6C273.9,45.6,273.8,46.2,274.5,46.2z"/>
	<path class="st0" d="M127.5,71.4C127.5,71.4,127.5,71.4,127.5,71.4c-0.3-0.8-0.6-1.5-1.3-2c0,0,0,0,0,0c-1.2-2.2-2.5-4.3-4.1-6.2
		c-0.5-0.2-0.5-0.2-0.6,0.5c-0.3,0.1-0.4,0.4-0.5,0.7c-1.4,3.6-2.8,7.2-4.1,10.8c-0.5,1.3-1.3,2.6-1.4,4.1v0c0,0-0.1,0-0.1,0.1
		c0,0.1,0,0.1,0,0.2c-0.3,0.3-0.5,0.7-0.7,1.1c-1.1,2.9-2.1,5.7-3.5,8.4c-2.8,5.3-7.1,8.7-13.1,9.8c-0.9,0.2-1.9,0.1-2.7,0.7
		c-1.8-0.3-3.6-0.2-5.5,0c-2.3-0.8-4.6-0.8-7-1.3c-0.2,0-0.3,0-0.5-0.1c-0.7-0.4-1.3-0.8-2.1-0.6c-0.2-0.1-0.3-0.2-0.5,0
		c-0.3-0.4-0.8-0.5-1.2-0.7c-4.6-1.4-9-3.3-13.3-5.3c-1.5-0.7-2.9-1.8-4.6-2.2c0,0-0.1,0-0.1,0c-1.6-1.3-3.6-2.1-5.3-3.3
		c-0.1-0.1-0.3-0.2-0.5,0c-0.2,0.2-0.1,0.4,0.1,0.6c0.6,0.7,1.2,1.5,2,1.9c0.1,0.3,0.2,0.5,0.5,0.5c0.1,0.4,0.4,0.7,0.8,0.8
		c0.1,0.4,0.4,0.7,0.8,0.8c0.2,0.6,0.8,0.8,1.3,1.2c0,0.1,0,0.2,0.1,0.1c0.2,0.3,0.3,0.6,0.7,0.7l0.1,0c0.9,1.1,1.9,2,3.2,2.6
		c0.2,0.4,0.5,0.7,0.9,0.8c0,0,0,0,0,0c0.7,0.9,1.7,1.5,2.7,2.1c1.2,1.1,2.5,2,4,2.7l0,0.1l0.1,0c1.1,1.2,2.6,1.8,3.9,2.6
		c2,1.1,3.9,2.3,6,2.9c0.2,0,0.3,0.1,0.5,0.1c1.4,1.1,3,1.5,4.6,1.9c0.2,0.1,0.3,0.2,0.5,0.1c1.5,0.9,3.2,1.2,4.9,1.3
		c0.2,0,0.3,0,0.5,0.1c3.4,0.9,6.7,1,10.1,0c0.3,0.1,0.5,0.1,0.8-0.1c1.3-0.3,2.6-0.4,3.6-1.2c0.2,0,0.3-0.1,0.5-0.1
		c1.5-0.3,2.8-1.2,4.1-2c3.8-2.5,7.2-5.4,9.7-9.2c0,0,0,0,0,0c0.9-0.8,1.6-1.7,2.1-2.8c0,0,0,0,0,0c1.7-2,3-4.3,4.1-6.7
		c0,0,0-0.1,0-0.1c0.1-0.1,0.2-0.2,0.3-0.3c1.5-2.6,2.7-5.3,3.9-8.1c0.2-0.4,0.2-0.8-0.1-1.1C130.7,75.8,129.3,73.4,127.5,71.4z"/>
	<path class="st0" d="M50.8,54.1c0,0.1,0.1,0.2,0.2,0.3c0.1-0.1,0.1-0.2,0.1-0.2c0.1-0.3-0.1-0.3-0.2-0.4
		C50.9,53.9,50.8,54,50.8,54.1z"/>
</g>
</svg>
