<?xml version="1.0" encoding="utf-8"?>
<!-- Generator: Adobe Illustrator 19.1.0, SVG Export Plug-In . SVG Version: 6.00 Build 0)  -->
<svg version="1.1" id="Layer_1" xmlns="http://www.w3.org/2000/svg" xmlns:xlink="http://www.w3.org/1999/xlink" x="0px" y="0px"
	 viewBox="0 0 202.3 96.3" style="enable-background:new 0 0 202.3 96.3;" xml:space="preserve">
<style type="text/css">
	.st0{fill:#134C99;}
</style>
<g>
	<path class="st0" d="M34.6,83.7h0.9v6.6l-4.9-7.5h-2.8v0.9h0.9v9.2h-0.9v0.9h3v-0.9h-1v-7.4l4.6,7c0.1,0.2,0.2,0.4,0.4,0.6
		c0.1,0.2,0.3,0.4,0.4,0.7h1.4V83.7h0.9v-0.9h-2.9V83.7z"/>
	<polygon class="st0" points="39.2,83.7 40.1,83.7 40.1,92.9 39.2,92.9 39.2,93.8 43.3,93.8 43.3,92.9 42.4,92.9 42.4,83.7 
		43.3,83.7 43.3,82.8 39.2,82.8 	"/>
	<path class="st0" d="M52.4,92.1c-0.5,0.2-1,0.4-1.5,0.4c-1.1,0-2-0.5-2.8-1.4c-0.8-1-1.2-2.1-1.2-3.5c0-1.2,0.3-2.1,0.9-2.8
		c0.6-0.7,1.4-1.1,2.3-1.1c0.5,0,0.9,0.1,1.3,0.4c0.3,0.3,0.5,0.6,0.5,0.9c0,0.2,0,0.3-0.1,0.4c-0.1,0.1-0.2,0.3-0.3,0.4l0.6,0.6
		l2.6-2.3l-0.6-0.6l-0.5,0.4c-0.5-0.4-1-0.7-1.5-0.9c-0.5-0.2-1.1-0.3-1.8-0.3c-0.8,0-1.5,0.2-2.3,0.5c-0.7,0.3-1.4,0.8-1.9,1.5
		c-0.5,0.6-0.8,1.2-1.1,1.9c-0.2,0.7-0.4,1.4-0.4,2.2c0,1.6,0.5,2.9,1.4,3.9c1,1,2.1,1.6,3.6,1.6c0.9,0,1.8-0.2,2.5-0.6
		c0.7-0.4,1.4-1,2.1-1.9L53.7,91C53.3,91.5,52.8,91.9,52.4,92.1"/>
	<path class="st0" d="M61.2,82.8h-2.1l-3.6,10.1h-0.7v0.9h2.8v-0.9h-1l0.8-2.2h4.3l0.7,2.2h-1v0.9h4.1v-0.9h-0.7L61.2,82.8z
		 M57.8,89.6l1.8-5l1.7,5H57.8z"/>
	<path class="st0" d="M79.8,82.8h-3.2v0.9h0.9v6.7c0,0.7-0.2,1.3-0.5,1.7c-0.4,0.4-0.9,0.6-1.5,0.6c-0.6,0-1.1-0.2-1.4-0.6
		c-0.3-0.4-0.5-0.9-0.5-1.7v-7.7h-3.2v0.9h0.9v6.9c0,1.1,0.3,2,0.8,2.6c0.5,0.6,1.3,0.9,2.4,0.9c0.6,0,1.1-0.1,1.6-0.3
		c0.5-0.2,1-0.6,1.4-1l0.1,1.1h3.1v-0.9h-0.9V82.8z"/>
	<path class="st0" d="M89.2,83.7h0.9v6.6l-4.9-7.5h-2.8v0.9h0.9v9.2h-0.9v0.9h3v-0.9h-1v-7.4l4.6,7c0.1,0.2,0.2,0.4,0.3,0.6
		c0.1,0.2,0.3,0.4,0.4,0.7h1.4V83.7h0.9v-0.9h-2.9V83.7z"/>
	<polygon class="st0" points="93.9,83.7 94.8,83.7 94.8,92.9 93.9,92.9 93.9,93.8 98,93.8 98,92.9 97.1,92.9 97.1,83.7 98,83.7 
		98,82.8 93.9,82.8 	"/>
	<path class="st0" d="M108.1,82.8c-0.1,0-0.3,0.1-0.5,0.1c-0.2,0-0.5,0-0.8-0.1c-0.4-0.1-0.6-0.1-0.8-0.1c-0.8,0-1.4,0.2-2,0.6
		c-0.6,0.4-1.1,1.1-1.6,2.1l-0.6-1.8h0.8v-0.9h-3.8v0.9h0.7l3,8.4c0.1,0.2,0.2,0.5,0.2,0.8c0.1,0.3,0.2,0.6,0.2,0.9h2.2
		c0.1-0.3,0.1-0.6,0.2-0.9c0.1-0.3,0.2-0.6,0.3-0.9l2.6-7.4l0.1-0.3c0.2-0.6,0.4-1,0.6-1.3l-0.4-0.4
		C108.4,82.8,108.3,82.8,108.1,82.8 M104.6,91.8l-2-5.6c0.3-0.6,0.7-1,1-1.3c0.4-0.3,0.8-0.4,1.2-0.4c0.2,0,0.5,0,0.8,0.1
		c0.3,0.1,0.6,0.1,0.7,0.1c0.1,0,0.2,0,0.4-0.1c0.1,0,0.3-0.1,0.4-0.2L104.6,91.8z"/>
	<path class="st0" d="M116.4,92.3c-0.6,0.3-1.4,0.5-2.4,0.5h-0.8v-5h3.4v0.9h0.8v-2.8h-0.8v0.9h-3.4v-2.8h1.3c0.7,0,1.3,0.1,1.8,0.3
		c0.5,0.2,0.8,0.5,1.2,1l0.7-0.4l-0.8-2H110v0.9h0.9v9.2H110v0.9h5.9c0.3,0,0.5,0,0.7,0c0.3,0,0.5,0,0.7,0l1.1-2.8l-0.7-0.2
		C117.4,91.5,117,92,116.4,92.3"/>
	<path class="st0" d="M126.1,89.9c1-0.2,1.7-0.7,2.3-1.3c0.5-0.6,0.8-1.3,0.8-2.2c0-1.1-0.4-2-1.3-2.7c-0.9-0.7-2.1-1-3.6-1h-4.3
		v0.9h0.9v9.2h-0.9v0.9h4.1v-0.9H123v-2.6h0.9l1.8,2.5c0,0,0,0,0,0c0.3,0.4,0.5,0.7,0.7,1h2.9v-0.9h-0.8L126.1,89.9z M123.9,89.3
		H123v-5.6h0.9c0.9,0,1.7,0.2,2.2,0.7c0.5,0.5,0.8,1.1,0.8,2c0,0.9-0.3,1.6-0.8,2.1C125.6,89.1,124.9,89.3,123.9,89.3"/>
	<path class="st0" d="M137.8,88c-0.4-0.3-1.1-0.7-2.3-1.1c-0.4-0.1-0.6-0.2-0.8-0.3c-0.7-0.3-1.3-0.6-1.5-0.8
		c-0.3-0.2-0.4-0.5-0.4-0.8c0-0.4,0.1-0.7,0.4-0.9c0.3-0.2,0.7-0.4,1.1-0.4c0.4,0,0.9,0.1,1.4,0.3c0.5,0.2,1.1,0.6,1.8,1l1.3-1.8
		l-0.7-0.4l-0.4,0.5c-0.5-0.3-0.9-0.5-1.4-0.6c-0.5-0.1-0.9-0.2-1.4-0.2c-1,0-1.9,0.3-2.6,1c-0.7,0.7-1.1,1.4-1.1,2.4
		c0,0.7,0.2,1.3,0.7,1.7c0.5,0.4,1.5,1,3.2,1.5c0.9,0.3,1.5,0.6,1.8,0.9c0.3,0.3,0.5,0.6,0.5,1.1c0,0.4-0.2,0.8-0.5,1.1
		c-0.3,0.3-0.8,0.5-1.3,0.5c-0.6,0-1.2-0.2-1.9-0.6c-0.6-0.4-1.3-0.9-1.9-1.7l-1.4,1.8c0.6,0.6,1.3,1,2,1.3c0.7,0.3,1.5,0.5,2.2,0.5
		c1.2,0,2.2-0.4,3.1-1.2c0.9-0.8,1.3-1.7,1.3-2.7c0-0.5-0.1-0.9-0.3-1.2C138.4,88.6,138.2,88.3,137.8,88"/>
	<polygon class="st0" points="140.5,83.7 141.4,83.7 141.4,92.9 140.5,92.9 140.5,93.8 144.6,93.8 144.6,92.9 143.7,92.9 
		143.7,83.7 144.6,83.7 144.6,82.8 140.5,82.8 	"/>
	<path class="st0" d="M154,82.4h-0.9v0.4h-6v-0.4h-0.9l-0.4,3.1h0.8c0.1-0.6,0.3-1,0.6-1.2c0.3-0.3,0.7-0.4,1.2-0.4h0.4v9h-1v0.9
		h4.3v-0.9h-1v-9h0.4c0.5,0,0.9,0.1,1.2,0.4c0.3,0.3,0.5,0.7,0.6,1.2h0.8L154,82.4z"/>
	<path class="st0" d="M160.3,82.8h-2.1l-3.6,10.1h-0.7v0.9h2.8v-0.9h-1l0.8-2.2h4.3l0.7,2.2h-1v0.9h4.1v-0.9h-0.7L160.3,82.8z
		 M156.8,89.6l1.8-5l1.7,5H156.8z"/>
	<path class="st0" d="M171.6,89.9c1-0.2,1.7-0.7,2.3-1.3c0.5-0.6,0.8-1.3,0.8-2.2c0-1.1-0.4-2-1.3-2.7c-0.9-0.7-2.1-1-3.6-1h-4.3
		v0.9h0.9v9.2h-0.9v0.9h4.1v-0.9h-0.9v-2.6h0.9l1.8,2.5c0,0,0,0,0,0c0.3,0.4,0.5,0.7,0.7,1h2.9v-0.9H174L171.6,89.9z M169.5,89.3
		h-0.9v-5.6h0.9c0.9,0,1.7,0.2,2.2,0.7c0.5,0.5,0.8,1.1,0.8,2c0,0.9-0.3,1.6-0.8,2.1C171.2,89.1,170.4,89.3,169.5,89.3"/>
	<polygon class="st0" points="176.5,83.7 177.4,83.7 177.4,92.9 176.5,92.9 176.5,93.8 180.6,93.8 180.6,92.9 179.7,92.9 
		179.7,83.7 180.6,83.7 180.6,82.8 176.5,82.8 	"/>
	<path class="st0" d="M187.8,82.8h-2.1L182,92.9h-0.8v0.9h2.9v-0.9h-1l0.8-2.2h4.3l0.7,2.2h-1v0.9h4.1v-0.9h-0.7L187.8,82.8z
		 M184.3,89.6l1.8-5l1.7,5H184.3z"/>
	<path class="st0" d="M196.5,82.9c-0.1-0.1-0.2-0.1-0.3-0.2c0.3,0,0.6-0.1,0.7-0.3c0.2-0.2,0.2-0.4,0.2-0.6c0-0.2-0.1-0.4-0.1-0.5
		c-0.1-0.2-0.2-0.3-0.4-0.3c-0.2-0.1-0.4-0.1-0.7-0.1h-1.6v3.5h0.5v-1.6h0.5c0.1,0,0.2,0,0.3,0c0.1,0,0.1,0.1,0.2,0.1
		c0.1,0,0.1,0.1,0.2,0.2c0.1,0.1,0.2,0.3,0.3,0.5l0.5,0.7h0.6l-0.6-1C196.8,83.2,196.7,83,196.5,82.9 M195.9,82.4h-1v-1.2h1.1
		c0.3,0,0.4,0.1,0.6,0.2c0.1,0.1,0.2,0.2,0.2,0.4c0,0.1,0,0.2-0.1,0.3c-0.1,0.1-0.2,0.2-0.3,0.2C196.3,82.4,196.1,82.4,195.9,82.4"
		/>
	<path class="st0" d="M196,78.7c-2.2,0-3.9,1.7-3.9,3.9c0,2.1,1.7,3.9,3.9,3.9c2.1,0,3.9-1.7,3.9-3.9
		C199.9,80.5,198.1,78.7,196,78.7 M196,85.7c-1.7,0-3.1-1.4-3.1-3.1c0-1.7,1.4-3.1,3.1-3.1c1.7,0,3.1,1.4,3.1,3.1
		C199.1,84.3,197.7,85.7,196,85.7"/>
	<path class="st0" d="M71.5,30c0,1.7,0.4,3,1.2,3.9c0.8,0.9,2,1.3,3.6,1.3c0.9,0,1.7-0.2,2.4-0.5c0.8-0.3,1.5-0.9,2.1-1.5l0.1,1.7
		h4.7v-1.4h-1.4V18.1h-4.9v1.4h1.4v10.2c0,1.1-0.3,2-0.8,2.6c-0.6,0.6-1.3,0.9-2.3,0.9c-0.9,0-1.6-0.3-2.1-0.9
		c-0.5-0.6-0.7-1.4-0.7-2.6V18.1H70v1.4h1.4V30z"/>
	<path class="st0" d="M92.1,29.8H91v-7.5c0.5-0.4,0.9-0.8,1.5-1c0.5-0.2,1-0.4,1.5-0.4c0.6,0,1,0.2,1.3,0.5c0.3,0.3,0.5,0.8,0.5,1.4
		v7h-1.1V31h5.3v-1.2h-1.1v-7.4c0-1.1-0.3-2-0.9-2.6c-0.6-0.6-1.4-1-2.5-1c-0.6,0-1.3,0.2-2,0.5c-0.7,0.3-1.5,0.9-2.3,1.6l0-2h-0.1
		l-4,1.2v1.2l1.1-0.3v8.9h-1.1V31h5.3V29.8z"/>
	<path class="st0" d="M103.3,18.1c0.5,0,0.9-0.2,1.2-0.5c0.3-0.3,0.5-0.7,0.5-1.2c0-0.5-0.2-0.9-0.5-1.2c-0.3-0.3-0.7-0.5-1.2-0.5
		c-0.5,0-0.9,0.2-1.2,0.5c-0.3,0.3-0.5,0.7-0.5,1.2c0,0.5,0.2,0.9,0.5,1.2C102.5,17.9,102.9,18.1,103.3,18.1"/>
	<path class="st0" d="M106.1,29.8H105v-9.2c0-0.2,0-0.5,0-0.8c0-0.3,0-0.6,0.1-0.9h-0.1l-4.1,1.2v1.1l1.1-0.3v8.9h-1.1V31h5.3V29.8z
		"/>
	<path class="st0" d="M107.1,21.3l3.6,8c0,0,0,0.1,0.1,0.2c0.3,0.6,0.5,1.1,0.6,1.5h2.4c0.1-0.3,0.1-0.7,0.2-1
		c0.1-0.3,0.2-0.6,0.3-1l3.3-7.7c0-0.1,0.1-0.2,0.1-0.3c0.3-0.7,0.6-1.3,0.8-1.6l-0.5-0.5c-0.2,0.1-0.5,0.2-0.6,0.3
		c-0.2,0.1-0.4,0.1-0.6,0.1c-0.3,0-0.8-0.1-1.5-0.2c-0.7-0.2-1.2-0.2-1.6-0.2c-0.6,0-1.1,0.2-1.6,0.5c-0.5,0.3-1.1,1-1.8,1.9
		c-0.2-0.4-0.4-0.9-0.5-1.3c-0.1-0.4-0.2-0.8-0.3-1.2l-3.8,1.9l0.4,0.9L107.1,21.3z M111.6,21.3c0.3-0.2,0.7-0.3,1-0.3
		c0.3,0,0.7,0.1,1.3,0.3c0.6,0.2,1,0.3,1.3,0.3c0.2,0,0.4,0,0.5-0.1c0.1,0,0.3-0.1,0.4-0.2l-3,7l-2.6-6.1
		C110.9,21.8,111.3,21.5,111.6,21.3"/>
	<path class="st0" d="M119.7,29.6c1,1.2,2.4,1.8,4,1.8c1.1,0,2.2-0.2,3.1-0.8c1-0.5,1.8-1.2,2.6-2.2l-0.7-0.8
		c-0.5,0.5-1,0.8-1.6,1.1c-0.6,0.2-1.1,0.3-1.8,0.3c-0.9,0-1.7-0.3-2.3-0.8c-0.6-0.5-1.1-1.3-1.4-2.3l6.2-2c0.3-0.1,0.5-0.1,0.9-0.2
		c0.5-0.1,0.7-0.3,0.7-0.4c0-0.2-0.1-0.6-0.4-1.1c-0.3-0.6-0.6-1.1-1-1.5c-0.5-0.6-1.1-1.1-1.8-1.4c-0.7-0.3-1.4-0.5-2.1-0.5
		c-1.6,0-3,0.6-4.2,1.8c-1.1,1.2-1.7,2.7-1.7,4.5C118.1,27,118.6,28.4,119.7,29.6 M121.6,21.1c0.5-0.6,1-0.9,1.7-0.9
		c0.6,0,1.2,0.2,1.7,0.7c0.5,0.5,0.9,1.2,1.2,2.1l-5.2,1.6c0-0.2-0.1-0.4-0.1-0.7c0-0.2,0-0.4,0-0.7
		C120.9,22.5,121.1,21.7,121.6,21.1"/>
	<path class="st0" d="M130.6,21.7c0.2,0.1,0.3,0.2,0.3,0.3c0.1,0.1,0.1,0.3,0.1,0.7v7.1h-1.1V31h5.5v-1.2h-1.4v-6.2
		c0-0.6,0.2-1.1,0.4-1.5c0.3-0.4,0.7-0.5,1.1-0.5c0.3,0,0.6,0.1,0.9,0.2c0.3,0.1,0.6,0.3,1.1,0.6l1.5-3.2l-1-0.4l-0.4,0.6
		c-0.3-0.2-0.6-0.3-0.9-0.4c-0.3-0.1-0.5-0.1-0.8-0.1c-0.4,0-0.8,0.2-1.1,0.5c-0.4,0.3-0.8,0.9-1.2,1.7c-0.2-0.4-0.4-0.8-0.8-1.2
		c-0.4-0.3-0.9-0.7-1.5-1l-2.1,2.7l0.8,0.7L130.6,21.7z"/>
	<path class="st0" d="M139.4,24.3c0.4,0.5,1.4,1.2,3,1.9c0,0,0.1,0,0.2,0.1c1.5,0.7,2.3,1.4,2.3,2c0,0.4-0.1,0.8-0.4,1
		c-0.3,0.3-0.7,0.4-1.1,0.4c-0.6,0-1.2-0.2-1.8-0.6c-0.6-0.4-1.3-1-2.1-1.9l-1.6,2.2c0.6,0.6,1.3,1,2.1,1.3c0.8,0.3,1.6,0.5,2.4,0.5
		c1.4,0,2.5-0.4,3.4-1.2c0.9-0.8,1.4-1.8,1.4-2.9c0-0.8-0.2-1.5-0.6-2c-0.4-0.5-1.2-1-2.5-1.6c0,0-0.1,0-0.1,0c-2-0.9-3-1.6-3-2.2
		c0-0.3,0.1-0.6,0.4-0.8c0.2-0.2,0.5-0.3,0.9-0.3c0.5,0,1,0.1,1.5,0.4c0.5,0.3,1.1,0.7,1.7,1.3l1.3-2c-0.6-0.4-1.3-0.7-1.9-0.9
		c-0.6-0.2-1.3-0.3-1.9-0.3c-1.2,0-2.2,0.3-3,1c-0.8,0.7-1.2,1.5-1.2,2.5C138.8,23.2,139,23.8,139.4,24.3"/>
	<path class="st0" d="M150.1,18.1c0.5,0,0.9-0.2,1.2-0.5c0.3-0.3,0.5-0.7,0.5-1.2c0-0.5-0.2-0.9-0.5-1.2c-0.3-0.3-0.7-0.5-1.2-0.5
		c-0.5,0-0.9,0.2-1.2,0.5c-0.3,0.3-0.5,0.7-0.5,1.2c0,0.5,0.2,0.9,0.5,1.2C149.2,17.9,149.6,18.1,150.1,18.1"/>
	<path class="st0" d="M152.8,29.8h-1.1v-9.2c0-0.2,0-0.5,0-0.8c0-0.3,0-0.6,0.1-0.9h-0.1l-4.1,1.2v1.1l1.1-0.3v8.9h-1.1V31h5.3V29.8
		z"/>
	<path class="st0" d="M158.2,31.4c0.6,0,1.2-0.1,1.9-0.4c0.6-0.3,1.2-0.7,1.8-1.3l0.2,1.4h3.9v-1.2h-1.1V15.6l1.1-0.4V14l-5.2,1.7
		V17l1.1-0.4v3.1c-0.4-0.3-0.9-0.5-1.4-0.7c-0.5-0.1-1-0.2-1.5-0.2c-1.5,0-2.9,0.6-3.9,1.9c-1.1,1.3-1.6,2.9-1.6,4.8
		c0,1.7,0.4,3.1,1.3,4.2C155.6,30.8,156.8,31.4,158.2,31.4 M157.3,21.4c0.6-0.8,1.2-1.2,2.1-1.2c0.8,0,1.4,0.2,1.8,0.7
		c0.4,0.5,0.7,1.1,0.7,2v5.3c-0.3,0.3-0.6,0.6-1,0.8c-0.4,0.2-0.8,0.3-1.2,0.3c-0.9,0-1.7-0.5-2.3-1.4c-0.6-0.9-0.9-2.1-0.9-3.5
		C156.5,23.2,156.7,22.2,157.3,21.4"/>
	<path class="st0" d="M170.5,31.4c0.7,0,1.3-0.1,1.9-0.4c0.6-0.3,1.2-0.7,1.7-1.3l0.3,1.4h3.8v-1.2h-1.1v-6.9c0-1.4-0.3-2.4-1-3.1
		c-0.7-0.7-1.7-1-3-1c-0.5,0-1,0.1-1.5,0.2c-0.5,0.2-1,0.4-1.5,0.7l0.2-0.9l-1.1-0.3l-1.2,3.6l1.1,0.4c0.4-0.6,0.8-1.1,1.3-1.5
		c0.5-0.3,1.1-0.5,1.7-0.5c0.6,0,1.1,0.2,1.5,0.5c0.3,0.3,0.5,0.8,0.5,1.4v0.8c-0.3,0-0.5,0-0.7-0.1c-0.3,0-0.5,0-0.7,0
		c-1.9,0-3.4,0.4-4.4,1.1c-1,0.7-1.5,1.8-1.5,3.2c0,1.1,0.4,2,1.1,2.7C168.5,31,169.4,31.4,170.5,31.4 M170.5,25.1
		c0.6-0.5,1.4-0.8,2.4-0.8c0.2,0,0.4,0,0.6,0c0.2,0,0.4,0,0.5,0.1v2.3c0,0.8-0.2,1.5-0.6,2c-0.4,0.5-1,0.7-1.7,0.7
		c-0.7,0-1.2-0.2-1.6-0.6c-0.4-0.4-0.6-1-0.6-1.7C169.5,26.3,169.9,25.7,170.5,25.1"/>
	<path class="st0" d="M183.5,31.4c0.6,0,1.3-0.1,1.9-0.4c0.6-0.3,1.2-0.7,1.8-1.3l0.2,1.4h3.9v-1.2h-1.1V15.6l1.1-0.4V14l-5.2,1.7
		V17l1.1-0.4v3.1c-0.4-0.3-0.9-0.5-1.4-0.7c-0.5-0.1-1-0.2-1.5-0.2c-1.5,0-2.9,0.6-3.9,1.9c-1.1,1.3-1.6,2.9-1.6,4.8
		c0,1.7,0.4,3.1,1.3,4.2C181,30.8,182.1,31.4,183.5,31.4 M182.6,21.4c0.6-0.8,1.2-1.2,2.1-1.2c0.8,0,1.4,0.2,1.8,0.7
		c0.5,0.5,0.7,1.1,0.7,2v5.3c-0.3,0.3-0.6,0.6-1,0.8c-0.4,0.2-0.8,0.3-1.2,0.3c-0.9,0-1.7-0.5-2.3-1.4c-0.6-0.9-0.9-2.1-0.9-3.5
		C181.8,23.2,182.1,22.2,182.6,21.4"/>
	<path class="st0" d="M93.4,48.8h-1.7v-3.6c0.4,0.1,0.8,0.3,1.2,0.3c0.4,0.1,0.9,0.1,1.4,0.1c1.8,0,3.3-0.6,4.5-1.7
		c1.2-1.2,1.8-2.6,1.8-4.4c0-1.9-0.7-3.4-2-4.5c-1.3-1.1-3.2-1.6-5.5-1.6h-6.3v1.4h1.4v14h-1.4v1.4h6.5V48.8z M91.7,35h0.8
		c1.4,0,2.5,0.4,3.3,1.3c0.8,0.9,1.2,2.1,1.2,3.6c0,1.3-0.3,2.4-0.9,3.2c-0.6,0.8-1.4,1.2-2.4,1.2c-0.7,0-1.2-0.2-1.5-0.6
		c-0.3-0.4-0.5-1-0.5-1.9V35z"/>
	<path class="st0" d="M106.8,38c-1.9,0-3.4,0.6-4.7,1.8c-1.2,1.2-1.8,2.7-1.8,4.5c0,1.8,0.6,3.3,1.8,4.5c1.2,1.2,2.8,1.8,4.7,1.8
		c1.9,0,3.4-0.6,4.7-1.8c1.2-1.2,1.8-2.7,1.8-4.5c0-1.8-0.6-3.3-1.8-4.5C110.3,38.6,108.7,38,106.8,38 M109.4,48.1
		c-0.5,0.7-1.2,1.1-2.1,1.1c-1,0-1.9-0.6-2.7-1.7c-0.8-1.1-1.1-2.5-1.1-4.1c0-1.2,0.3-2.2,0.8-2.9c0.5-0.7,1.2-1.1,2.1-1.1
		c1,0,2,0.6,2.7,1.7c0.8,1.1,1.1,2.5,1.1,4.1C110.2,46.5,109.9,47.4,109.4,48.1"/>
	<path class="st0" d="M114.1,49v1.2h5.3V49h-1.1v-7.5c0.5-0.4,1-0.8,1.5-1c0.5-0.2,1-0.4,1.5-0.4c0.6,0,1,0.2,1.3,0.5
		c0.3,0.3,0.5,0.8,0.5,1.4v7h-1.1v1.2h5.3V49H126v-7.4c0-1.1-0.3-2-0.9-2.6c-0.6-0.6-1.5-1-2.5-1c-0.6,0-1.3,0.2-2,0.5
		c-0.7,0.3-1.5,0.8-2.4,1.5l0-2h-0.1l-4,1.2v1.2l1.1-0.3V49H114.1z"/>
	<path class="st0" d="M131.3,35.7c-0.3,0.8-0.7,1.4-1.3,2c-0.6,0.6-1.3,1-2.2,1.4v1h1.3v7.6c0,1,0.2,1.8,0.6,2.3
		c0.4,0.5,1,0.7,1.9,0.7c0.6,0,1.2-0.1,1.7-0.4c0.6-0.3,1.1-0.6,1.6-1.1l-0.5-0.8c-0.3,0.2-0.5,0.3-0.7,0.4
		c-0.2,0.1-0.4,0.1-0.5,0.1c-0.4,0-0.7-0.1-0.9-0.4c-0.2-0.3-0.3-0.7-0.3-1.3v-7h1.6c0.2,0,0.4,0,0.5-0.1c0.1-0.1,0.1-0.2,0.2-0.4
		l0.2-1h-2.4v-2.7L131.3,35.7z"/>
	<path class="st0" d="M135.1,49v1.2h5.3V49h-1.1v-9.2c0-0.3,0-0.5,0-0.8c0-0.3,0-0.6,0.1-0.9h-0.1l-4.1,1.2v1.1l1.1-0.3V49H135.1z"
		/>
	<path class="st0" d="M138.8,36.8c0.3-0.3,0.5-0.7,0.5-1.2c0-0.5-0.2-0.9-0.5-1.2c-0.3-0.3-0.7-0.5-1.2-0.5c-0.5,0-0.9,0.2-1.2,0.5
		c-0.3,0.3-0.5,0.7-0.5,1.2c0,0.4,0.2,0.8,0.5,1.2c0.3,0.3,0.7,0.5,1.2,0.5C138.1,37.3,138.5,37.1,138.8,36.8"/>
	<path class="st0" d="M140.9,40.3h1.6V49h-1.1v1.2h5.8V49h-1.7v-8.8h2.1l0.6-1.5H147c-0.8,0-1.5-0.2-2.1-0.8
		c-0.6-0.5-0.8-1.2-0.8-1.9c0-0.4,0.1-0.8,0.4-1c0.2-0.3,0.5-0.4,0.9-0.4c0.3,0,0.5,0.1,0.8,0.3c0.2,0.2,0.5,0.5,0.9,1l1.9-1.6
		c-0.3-0.4-0.7-0.6-1.2-0.8c-0.5-0.2-1-0.3-1.5-0.3c-1.1,0-2.1,0.4-3,1.2c-0.9,0.8-1.4,1.6-1.4,2.5c0,0.3,0.1,0.6,0.2,0.9
		c0.1,0.3,0.3,0.6,0.5,0.9h-1.2L140.9,40.3z"/>
	<path class="st0" d="M150.6,37.3c0.5,0,0.9-0.2,1.2-0.5c0.4-0.3,0.5-0.7,0.5-1.2c0-0.5-0.2-0.9-0.5-1.2c-0.3-0.3-0.7-0.5-1.2-0.5
		c-0.5,0-0.9,0.2-1.2,0.5c-0.3,0.3-0.5,0.7-0.5,1.2c0,0.4,0.2,0.8,0.5,1.2C149.8,37.1,150.2,37.3,150.6,37.3"/>
	<path class="st0" d="M152.3,39.8c0-0.3,0-0.5,0-0.8c0-0.3,0-0.6,0.1-0.9h-0.1l-4.1,1.2v1.1l1.1-0.3V49h-1.1v1.2h5.3V49h-1.1V39.8z"
		/>
	<path class="st0" d="M159.6,39.5c0.7,0,1.2,0.2,1.7,0.7c0.5,0.5,0.9,1.1,1.3,2.1l2.2-2c-0.6-0.7-1.3-1.3-2.1-1.7
		c-0.8-0.4-1.6-0.5-2.5-0.5c-1.7,0-3.2,0.7-4.4,2c-1.2,1.3-1.9,2.9-1.9,4.8c0,1.7,0.5,3.1,1.5,4.2c1,1.1,2.4,1.6,4,1.6
		c1,0,2-0.3,2.9-0.9c0.9-0.6,1.6-1.4,2.2-2.4l-0.7-0.6c-0.5,0.6-0.9,1-1.5,1.2c-0.5,0.3-1.1,0.4-1.7,0.4c-1.1,0-2-0.5-2.9-1.6
		c-0.8-1-1.2-2.3-1.2-3.7c0-1.1,0.3-2,0.8-2.7C158.1,39.8,158.8,39.5,159.6,39.5"/>
	<path class="st0" d="M165.3,49v1.2h5.3V49h-1.1v-9.2c0-0.3,0-0.5,0-0.8c0-0.3,0-0.6,0.1-0.9h-0.1l-4.1,1.2v1.1l1.1-0.3V49H165.3z"
		/>
	<path class="st0" d="M167.9,37.3c0.5,0,0.9-0.2,1.2-0.5c0.3-0.3,0.5-0.7,0.5-1.2c0-0.5-0.2-0.9-0.5-1.2c-0.3-0.3-0.7-0.5-1.2-0.5
		c-0.5,0-0.9,0.2-1.2,0.5c-0.4,0.3-0.5,0.7-0.5,1.2c0,0.4,0.2,0.8,0.5,1.2C167,37.1,167.4,37.3,167.9,37.3"/>
	<path class="st0" d="M178,42.5c-0.3,0-0.5,0-0.8,0c-1.9,0-3.4,0.4-4.4,1.1c-1,0.7-1.5,1.8-1.5,3.1c0,1.1,0.4,2,1.1,2.7
		c0.7,0.7,1.7,1.1,2.8,1.1c0.7,0,1.3-0.1,1.9-0.4c0.6-0.3,1.2-0.7,1.7-1.3l0.3,1.4h3.9V49h-1.1v-6.9c0-1.4-0.3-2.4-1-3.1
		c-0.7-0.7-1.7-1-3-1c-0.5,0-1,0.1-1.5,0.2c-0.5,0.2-1,0.4-1.5,0.7l0.2-0.8l-1.1-0.3l-1.2,3.6l1.1,0.4c0.4-0.6,0.8-1.1,1.3-1.5
		c0.5-0.3,1.1-0.5,1.7-0.5c0.6,0,1.1,0.2,1.5,0.5c0.4,0.3,0.5,0.8,0.5,1.4v0.8C178.4,42.5,178.2,42.5,178,42.5 M178.7,46
		c0,0.9-0.2,1.5-0.6,2c-0.4,0.5-1,0.7-1.7,0.7c-0.7,0-1.2-0.2-1.6-0.6c-0.4-0.4-0.6-1-0.6-1.7c0-0.8,0.3-1.5,0.9-2
		c0.6-0.5,1.4-0.8,2.4-0.8c0.2,0,0.4,0,0.6,0c0.2,0,0.4,0,0.6,0.1V46z"/>
	<path class="st0" d="M81.4,59.1c1-0.2,1.7-0.6,2.3-1.1c0.5-0.5,0.8-1.2,0.8-1.9c0-1.1-0.4-2-1.3-2.6c-0.8-0.6-2.1-0.9-3.8-0.9h-6.6
		V54h1.4v14h-1.4v1.4h7.5c1.8,0,3.2-0.5,4.3-1.5c1.1-1,1.7-2.3,1.7-3.9c0-1.4-0.4-2.5-1.3-3.4C84.2,59.7,83,59.2,81.4,59.1
		 M77.6,54.2h0.9c0.9,0,1.6,0.2,2.1,0.5c0.5,0.4,0.7,0.9,0.7,1.6c0,0.7-0.2,1.2-0.7,1.6c-0.5,0.4-1.1,0.6-2,0.6h-1.1V54.2z
		 M81.9,66.9c-0.7,0.7-1.7,1-3.1,1h-1.2V60H79c1.3,0,2.2,0.3,2.9,1c0.7,0.7,1,1.7,1,2.9C82.9,65.3,82.5,66.2,81.9,66.9"/>
	<path class="st0" d="M93,69.7c1.9,0,3.4-0.6,4.7-1.8c1.2-1.2,1.8-2.7,1.8-4.5c0-1.8-0.6-3.3-1.8-4.5c-1.2-1.2-2.8-1.8-4.7-1.8
		c-1.9,0-3.4,0.6-4.7,1.8c-1.2,1.2-1.8,2.7-1.8,4.5c0,1.8,0.6,3.3,1.8,4.5C89.6,69.1,91.1,69.7,93,69.7 M90.4,59.6
		c0.5-0.7,1.2-1.1,2-1.1c1.1,0,2,0.6,2.7,1.7c0.8,1.1,1.1,2.5,1.1,4.1c0,1.2-0.3,2.2-0.8,2.9c-0.5,0.7-1.2,1.1-2.1,1.1
		c-1,0-1.9-0.6-2.7-1.7c-0.8-1.1-1.1-2.5-1.1-4.1C89.7,61.3,89.9,60.4,90.4,59.6"/>
	<polygon class="st0" points="100.1,68.2 100.1,69.4 105.3,69.4 105.3,68.2 104.2,68.2 104.2,54 105.3,53.6 105.3,52.4 100.1,54.1 
		100.1,55.3 101.2,55 101.2,68.2 	"/>
	<path class="st0" d="M110.1,56c0.3-0.3,0.5-0.8,0.5-1.2c0-0.5-0.2-0.9-0.5-1.2c-0.3-0.3-0.7-0.5-1.2-0.5c-0.5,0-0.9,0.2-1.2,0.5
		c-0.3,0.3-0.5,0.7-0.5,1.2c0,0.5,0.2,0.9,0.5,1.2c0.3,0.3,0.7,0.5,1.2,0.5C109.3,56.5,109.8,56.3,110.1,56"/>
	<path class="st0" d="M106.4,68.2v1.2h5.3v-1.2h-1.1V59c0-0.2,0-0.5,0-0.8c0-0.3,0-0.6,0.1-0.9h-0.1l-4.1,1.2v1.1l1.1-0.3v8.9H106.4
		z"/>
	<path class="st0" d="M111.6,60.1l1-0.4l3.6,8c0,0,0,0.1,0.1,0.2c0.3,0.6,0.5,1.1,0.6,1.5h2.4c0.1-0.3,0.2-0.6,0.3-0.9
		c0.1-0.3,0.2-0.6,0.3-1l3.3-7.7c0-0.1,0.1-0.2,0.1-0.3c0.3-0.7,0.6-1.3,0.8-1.6l-0.5-0.5c-0.2,0.1-0.5,0.3-0.6,0.3
		c-0.2,0.1-0.4,0.1-0.6,0.1c-0.3,0-0.8-0.1-1.5-0.2c-0.7-0.2-1.2-0.2-1.6-0.2c-0.6,0-1.1,0.2-1.6,0.5c-0.5,0.3-1.1,1-1.8,1.9
		c-0.2-0.4-0.4-0.9-0.5-1.3c-0.1-0.4-0.2-0.8-0.3-1.2l-3.8,1.9L111.6,60.1z M117.1,59.7c0.3-0.2,0.7-0.3,1-0.3
		c0.3,0,0.7,0.1,1.3,0.3c0.6,0.2,1,0.3,1.3,0.3c0.2,0,0.4,0,0.5-0.1c0.1,0,0.3-0.1,0.4-0.2l-3,7l-2.6-6.1
		C116.5,60.2,116.8,59.9,117.1,59.7"/>
	<path class="st0" d="M126.1,57l-1.2,3.6l1.1,0.4c0.4-0.6,0.8-1.1,1.3-1.5c0.5-0.3,1.1-0.5,1.7-0.5c0.6,0,1.1,0.2,1.5,0.5
		c0.3,0.3,0.5,0.8,0.5,1.4v0.9c-0.3,0-0.5,0-0.7-0.1c-0.3,0-0.5,0-0.7,0c-1.9,0-3.4,0.4-4.4,1.1c-1,0.7-1.5,1.8-1.5,3.1
		c0,1.1,0.4,2,1.1,2.8c0.7,0.7,1.7,1.1,2.8,1.1c0.7,0,1.3-0.1,1.9-0.4c0.6-0.3,1.2-0.7,1.7-1.3l0.3,1.4h3.9v-1.2h-1.1v-6.9
		c0-1.4-0.3-2.4-1-3.1c-0.7-0.7-1.7-1-3.1-1c-0.5,0-1,0.1-1.5,0.2c-0.5,0.2-1,0.4-1.5,0.7l0.2-0.8L126.1,57z M131.1,65.2
		c0,0.9-0.2,1.5-0.6,2c-0.4,0.5-0.9,0.7-1.7,0.7c-0.7,0-1.2-0.2-1.6-0.6c-0.4-0.4-0.6-1-0.6-1.7c0-0.8,0.3-1.5,0.9-2
		c0.6-0.5,1.4-0.8,2.4-0.8c0.2,0,0.4,0,0.6,0c0.2,0,0.4,0,0.6,0.1V65.2z"/>
	<path class="st0" d="M139.1,58.2c-0.4-0.3-0.9-0.7-1.5-1l-2.1,2.7l0.8,0.7l0.5-0.5c0.2,0.1,0.3,0.2,0.3,0.3
		c0.1,0.1,0.1,0.3,0.1,0.7v7.1h-1.1v1.2h5.5v-1.2h-1.4v-6.2c0-0.6,0.1-1.1,0.4-1.5c0.3-0.4,0.7-0.5,1.1-0.5c0.3,0,0.6,0,0.9,0.2
		c0.3,0.1,0.6,0.3,1.1,0.6l1.4-3.2l-0.9-0.4l-0.4,0.6c-0.3-0.2-0.6-0.3-0.9-0.4c-0.3-0.1-0.5-0.1-0.8-0.1c-0.4,0-0.8,0.2-1.1,0.5
		c-0.3,0.3-0.7,0.9-1.2,1.7C139.7,59,139.5,58.6,139.1,58.2"/>
	<path class="st0" d="M147.6,53.1c-0.5,0-0.9,0.2-1.2,0.5c-0.3,0.3-0.5,0.7-0.5,1.2c0,0.5,0.2,0.9,0.5,1.2c0.4,0.3,0.8,0.5,1.2,0.5
		c0.5,0,0.9-0.2,1.2-0.5c0.3-0.3,0.5-0.8,0.5-1.2c0-0.5-0.2-0.9-0.5-1.2C148.5,53.2,148.1,53.1,147.6,53.1"/>
	<path class="st0" d="M145.1,68.2v1.2h5.3v-1.2h-1.1V59c0-0.2,0-0.5,0-0.8c0-0.3,0-0.6,0.1-0.9h-0.1l-4.1,1.2v1.1l1.1-0.3v8.9H145.1
		z"/>
	<path class="st0" d="M157.7,61.7c-0.2,0-0.5,0-0.7,0c-1.9,0-3.4,0.4-4.4,1.1c-1,0.7-1.5,1.8-1.5,3.1c0,1.1,0.4,2,1.1,2.8
		c0.7,0.7,1.7,1.1,2.8,1.1c0.7,0,1.3-0.1,1.9-0.4c0.6-0.3,1.2-0.7,1.7-1.3l0.3,1.4h3.8v-1.2h-1.1v-6.9c0-1.4-0.3-2.4-1-3.1
		c-0.7-0.7-1.7-1-3-1c-0.5,0-1,0.1-1.5,0.2c-0.5,0.2-1,0.4-1.5,0.7l0.2-0.8l-1.1-0.3l-1.2,3.6l1.1,0.4c0.4-0.6,0.8-1.1,1.3-1.5
		c0.5-0.3,1.1-0.5,1.7-0.5c0.6,0,1.1,0.2,1.5,0.5c0.3,0.3,0.5,0.8,0.5,1.4v0.9C158.2,61.7,157.9,61.7,157.7,61.7 M158.4,65.2
		c0,0.9-0.2,1.5-0.6,2c-0.4,0.5-1,0.7-1.7,0.7c-0.7,0-1.2-0.2-1.6-0.6c-0.4-0.4-0.6-1-0.6-1.7c0-0.8,0.3-1.5,0.9-2
		c0.6-0.5,1.4-0.8,2.4-0.8c0.2,0,0.4,0,0.6,0c0.2,0,0.4,0,0.6,0.1V65.2z"/>
	<path class="st0" d="M163.6,59.6l1.1-0.3v8.9h-1.1v1.2h5.3v-1.2h-1.1v-7.5c0.5-0.4,0.9-0.7,1.5-1c0.5-0.2,1-0.4,1.5-0.4
		c0.6,0,1,0.2,1.3,0.5c0.3,0.3,0.5,0.8,0.5,1.4v7h-1.1v1.2h5.2v-1.2h-1.1v-7.4c0-1.1-0.3-2-0.9-2.6c-0.6-0.7-1.4-1-2.5-1
		c-0.6,0-1.3,0.2-2,0.5c-0.7,0.3-1.5,0.9-2.3,1.5l0-2h-0.1l-4,1.2V59.6z"/>
	<path class="st0" d="M186.6,58.2c-0.7-0.7-1.7-1-3-1c-0.5,0-1,0.1-1.5,0.2c-0.5,0.2-1,0.4-1.5,0.7l0.2-0.8l-1.1-0.3l-1.2,3.6
		l1.1,0.4c0.4-0.6,0.8-1.1,1.3-1.5c0.5-0.3,1.1-0.5,1.7-0.5c0.6,0,1.1,0.2,1.5,0.5c0.4,0.3,0.5,0.8,0.5,1.4v0.9
		c-0.3,0-0.5,0-0.7-0.1c-0.3,0-0.5,0-0.7,0c-1.9,0-3.4,0.4-4.4,1.1c-1,0.7-1.5,1.8-1.5,3.1c0,1.1,0.4,2,1.1,2.8
		c0.7,0.7,1.7,1.1,2.8,1.1c0.7,0,1.3-0.1,1.9-0.4c0.6-0.3,1.2-0.7,1.7-1.3l0.3,1.4h3.8v-1.2h-1.1v-6.9
		C187.7,59.9,187.3,58.9,186.6,58.2 M184.6,65.2c0,0.9-0.2,1.5-0.6,2c-0.4,0.5-1,0.7-1.7,0.7c-0.7,0-1.2-0.2-1.6-0.6
		c-0.4-0.4-0.6-1-0.6-1.7c0-0.8,0.3-1.5,0.9-2c0.6-0.5,1.4-0.8,2.4-0.8c0.2,0,0.4,0,0.6,0c0.2,0,0.4,0,0.6,0.1V65.2z"/>
	<path class="st0" d="M9.4,85.7l0.6,0.6l2.6-2.3L12,83.3l-0.5,0.4c-0.5-0.4-1-0.7-1.5-0.9c-0.5-0.2-1.1-0.3-1.8-0.3
		c-0.8,0-1.5,0.2-2.3,0.5c-0.7,0.3-1.4,0.8-1.9,1.5c-0.5,0.6-0.8,1.2-1.1,1.9c-0.2,0.7-0.4,1.4-0.4,2.2c0,1.6,0.5,2.9,1.4,3.9
		c1,1,2.1,1.6,3.5,1.6c1,0,1.8-0.2,2.5-0.6c0.7-0.4,1.4-1,2.1-1.9L11.5,91c-0.4,0.5-0.8,0.9-1.3,1.1c-0.4,0.2-1,0.4-1.5,0.4
		c-1.1,0-2-0.5-2.8-1.4c-0.8-1-1.2-2.1-1.2-3.5c0-1.2,0.3-2.1,0.9-2.8c0.6-0.7,1.4-1.1,2.3-1.1c0.5,0,0.9,0.1,1.3,0.4
		c0.3,0.3,0.5,0.6,0.5,0.9c0,0.2,0,0.3-0.1,0.4C9.6,85.4,9.5,85.6,9.4,85.7"/>
	<path class="st0" d="M19.1,92.3c-0.5,0.3-1.1,0.5-1.9,0.5h-0.9v-9h1.2v-0.9h-4.4v0.9h0.9v9.2h-0.9v0.9h6.3l0,0.5h0.8l0.8-3.4
		l-0.7-0.2C20,91.4,19.6,92,19.1,92.3"/>
	<polygon class="st0" points="22,83.7 22.9,83.7 22.9,92.9 22,92.9 22,93.8 26.1,93.8 26.1,92.9 25.2,92.9 25.2,83.7 26.1,83.7 
		26.1,82.8 22,82.8 	"/>
	<polygon class="st0" points="22.9,81.7 23.8,81.7 26.2,78.8 24.4,78.8 	"/>
	<rect x="2.6" y="75.2" class="st0" width="189.3" height="2"/>
	<path class="st0" d="M14.3,41v9c0,2.8,4.7,6.9,7.7,6.9h6.3v5.5L15,68.6h36.3l-13.3-6.2v-5.5h6.3c3.1,0,7.7-4.1,7.7-6.9v-9h5.6
		l6.3,11.8V18l-6.3,13.2h-5.6V13.8h-14V8.3l13.3-6.2H15l13.3,6.2v5.5h-14v17.4H8.8L2.5,18v34.7L8.8,41H14.3z M52.1,34.3h5.6v3.4
		h-5.6V34.3z M35,62.4h-3.4v-5.5h0c0.7,0,1.7,1,1.7,1.4c0-0.4,0.8-1.4,1.7-1.4V62.4z M31.5,8.3H35v5.5h-3.4V8.3z M15.3,15h35.7v34.2
		c0,2.7-4.3,6.6-7.3,6.6h-8.9c-0.9,0-1.6,1-1.6,1.3c0-0.4-1-1.3-1.6-1.3h-9c-2.9,0-7.3-3.9-7.3-6.6V15z M8.8,34.3h5.6v3.4H8.8V34.3z
		"/>
	<path class="st0" d="M33.6,38.4c1.2,0,2.2-0.9,2.3-1.9c0.2-1.4-1.7-3.5-3-4.1c1.2,1,2.6,2.9,2.6,3.7c0,1.1-0.8,1.9-1.9,1.9
		c-1,0-2.9-0.9-1.3-3.3l0-0.1C29.9,37.1,32.4,38.4,33.6,38.4"/>
	<path class="st0" d="M33.5,37.8c-0.5-0.4-0.9-1-0.9-1.7c0-0.5,0.2-1.2,0.5-1.7c-0.5,0.5-0.9,1.3-0.9,1.8
		C32.1,37,32.7,37.6,33.5,37.8"/>
	<path class="st0" d="M32.9,36c0,0.6,0.4,1,0.9,1.2c0,0-0.1-0.1-0.1-0.1c0.5-0.3,0.8-0.9,0.7-1.5c-0.1-0.5-0.5-1.1-0.9-1.5
		c0.3,0.4,0.5,1,0.6,1.4c0.1,0.6-0.1,1.2-0.4,1.6c-0.3-0.3-0.5-0.7-0.5-1.2c0-0.4,0.1-0.9,0.4-1.3C33.2,35,32.9,35.6,32.9,36"/>
	<path class="st0" d="M33.8,37.6c-0.1,0-0.3,0-0.4-0.1c0.2,0.2,0.5,0.3,0.8,0.3c0.2,0,0.4-0.1,0.6-0.3c0.3-0.3,0.4-0.6,0.5-1
		c0.1-1-1-2.5-1.9-3.1c0,0,0,0,0,0c0.7,0.8,1.6,2.2,1.6,2.8C34.9,37,34.4,37.6,33.8,37.6"/>
	<path class="st0" d="M34,43.2c-0.1,0-0.2,0-0.3,0V46c0.2,0,0.3,0.1,0.5,0.1c0.8,0,1.6-0.7,1.4-1.7C35.4,43.6,34.8,43.2,34,43.2"/>
	<path class="st0" d="M42.7,46.2C42.7,46.2,42.7,46.2,42.7,46.2c-0.2,0-0.4,0-0.6,0c-0.2,0-0.5,0-0.7,0.1v2.6c0.2,0,0.3,0,0.5,0
		c0.2,0,0.4,0,0.5,0c0.1,0,0.1,0,0.2,0c1.2-0.2,1.4-0.6,1.4-1.3C44,47,43.5,46.2,42.7,46.2"/>
	<path class="st0" d="M42.4,45.6c0.1,0,0.1,0,0.2,0c1-0.2,1.3-0.6,1.3-1.2c0-0.7-0.6-1.2-1.3-1.2c0,0,0,0-0.1,0c-0.2,0-0.3,0-0.5,0
		c-0.2,0-0.4,0-0.6,0.1v2.4c0.2,0,0.3,0,0.5,0C42.1,45.7,42.3,45.7,42.4,45.6"/>
	<path class="st0" d="M21.8,52.9h9.6c0.7,0,1.7,1,1.7,1.4c0-0.4,0.9-1.4,1.7-1.4h9.5c1.8,0,3.2-1.4,3.2-2.8V29.3h-0.1V17.8H18.6
		v11.9v0.7V50C18.6,51.5,20.4,52.9,21.8,52.9 M41.6,49.5h-2.3v-0.4h0.3c0.3,0,0.6-0.2,0.6-0.5v-1.7v-1.8v-1.7c0-0.3-0.4-0.5-0.6-0.5
		h-0.3v-0.4h3.3v0c0,0,0,0,0.1,0v0c1.5,0,2.5,0.9,2.5,1.8c0,0.9-0.3,1.4-0.9,1.7c0.6,0.3,1.1,0.8,1.1,1.4
		C45.4,48.3,45.4,49.8,41.6,49.5 M45.6,28.4h-3l0-1h2c0.3,0,0.6-0.3,0.6-0.6v-0.1h0.4V28.4z M38.2,24c0.4-1.5,1.6-2.8,3.6-2.8
		c2,0,3.3,1.3,3.6,2.8c0.1,0.7-0.1,2.9-2.8,3.4l0-0.6c1-0.3,1.5-1.4,1.5-2.5c0-1.4-1-2.5-2.2-2.5c-1.2,0-2.2,1.1-2.2,2.5
		c0,1,0.5,2,1.3,2.4l0.1,0.7C38.9,27.1,37.9,25.2,38.2,24 M38.1,26.7h0.4v0.1c0,0.3,0.3,0.6,0.6,0.6h2l0.2,1h-3.1V26.7z M34.6,46.6
		c-0.8,0-1.1-0.1-1.2-0.2V47c0,0,0,0,0,0h0v1.6c0,0.3,0.3,0.6,0.6,0.6h0.5v0.4h-3.3v-0.4h0.3c0.3,0,0.6-0.2,0.6-0.5v-1.8v-1.8v-1.8
		c0-0.3-0.4-0.5-0.6-0.5h-0.3v-0.4h3.3v0c1.2,0.1,2.1,0.7,2.3,1.7C37.1,45.7,35.9,46.7,34.6,46.6 M32.4,31.8c-0.7-0.9,5,2.2,4.2,4.8
		c-0.4,1.3-1.3,2.6-2.9,2.6c-1.6,0-3-1.2-3-2.6C30.7,34.6,33.9,34.5,32.4,31.8 M20.5,28c0.3-0.1,0.6-0.2,0.7-0.5l2.8-6.3h0.3
		l2.6,6.2c0.2,0.4,0.6,0.5,0.9,0.5v0.5h-2.9v-0.4h0.6c0.2,0,0.2-0.3,0.2-0.6l-0.3-0.8h-2.9L22,27.4c0,0.3,0,0.6,0.3,0.6h0.5v0.4
		h-2.3V28z M20.2,42.5h3.2v0.4H23c-0.3,0-0.6,0.3-0.6,0.6v3.4c0,0,0,0,0,0c0,0,0,0.1,0,0.1c0,0.7,0.3,1.6,1.2,1.8
		c0.2,0.1,0.4,0.1,0.6,0.1c0.2,0,0.4,0,0.6-0.1c0.9-0.1,1.3-1.1,1.3-1.8c0-0.1,0-0.1,0-0.2c0,0,0-0.1,0-0.1v-3.3
		c0-0.3-0.2-0.6-0.6-0.6h-0.4v-0.4h2.8v0.4h-0.5c-0.3,0-0.6,0.3-0.6,0.6v3.3c0,0,0,0,0,0c0,0,0,0,0,0v0.1c0,0,0,0,0,0
		c0,0,0,0.1,0,0.1c0,0.1,0,0.1,0,0.2c-0.1,1.1-0.6,2.1-2,2.3c-0.3,0.1-0.6,0.1-0.9,0.1c-0.3,0-0.7-0.1-1-0.2
		c-1.3-0.3-1.8-1.4-1.8-2.5c0,0,0-0.1,0-0.1v-3.5c0-0.3-0.3-0.5-0.6-0.5h-0.3V42.5z"/>
	<path class="st0" d="M24.2,23.5C24.2,23.4,24.2,23.4,24.2,23.5C24.2,23.4,24.2,23.4,24.2,23.5l-1.3,2.3h2.2L24.2,23.5z"/>
</g>
</svg>
