<?xml version="1.0" encoding="utf-8"?>
<!-- Generator: Adobe Illustrator 19.1.0, SVG Export Plug-In . SVG Version: 6.00 Build 0)  -->
<svg version="1.1" id="Layer_1" xmlns="http://www.w3.org/2000/svg" xmlns:xlink="http://www.w3.org/1999/xlink" x="0px" y="0px"
	 viewBox="0 0 735.4 236.1" style="enable-background:new 0 0 735.4 236.1;" xml:space="preserve">
<style type="text/css">
	.st0{fill:#CE2026;}
	.st1{fill:#FFFFFF;}
	.st2{fill:#134C99;}
</style>
<g>
	<g>
		<rect x="310.9" y="4.3" class="st0" width="419.7" height="226.4"/>
		<g>
			<path class="st1" d="M368.9,36.2h27.2c9.8,0,17.6,2.6,23.6,7.8c6,5.2,9,13,9,23.4c0,1.9-0.1,3.8-0.3,5.9
				c-0.2,2.1-0.5,4.2-0.8,6.4l-14.4,82c-2.6,13.9-7.3,23.6-14.1,29c-6.7,5.4-15.1,8.1-25,8.1h-33.7L368.9,36.2z M374.5,175.6
				c3.1,0,5.8-1.1,8-3.2c2.2-2.2,3.9-6.2,5-12.1l14.9-83.9c0.3-1.4,0.5-2.5,0.5-3.2v-2.6c0-3.7-0.8-6.5-2.3-8.4
				c-1.6-1.9-3.5-2.8-5.8-2.8h-4.4l-20.5,116.2H374.5z"/>
			<path class="st1" d="M488.6,36.2h34.9l-8.8,162.7h-25.1l2.3-32.5h-19.3l-8.6,32.5h-26L488.6,36.2z M493.9,141.9l4-53.5
				c0.5-5.3,1-10,1.5-14.1c0.6-4.1,1.1-8,1.8-11.5h-0.9c-0.8,3.6-1.7,7.4-2.8,11.5c-1.1,4.1-2.3,8.8-3.7,14.1l-14.4,53.5H493.9z"/>
			<polygon class="st1" points="575.9,60.6 557.3,60.6 561.8,36.2 624.5,36.2 620.1,60.6 601.5,60.6 577.3,198.8 551.8,198.8 			"/>
			<polygon class="st1" points="651.2,36.2 701.2,36.2 696.8,60.6 672.4,60.6 664.7,104.7 686.8,104.7 682.4,129.1 660.3,129.1 
				652.4,174.4 677.9,174.4 673.8,198.8 622.6,198.8 			"/>
		</g>
	</g>
	<g>
		<path class="st2" d="M34.6,108.7c-7.2,0-13.7-1.8-19.3-5.4C9.7,99.7,5.6,95,3.1,89.1l9.4-5.5c1.7,4.4,4.5,8,8.3,10.7
			c3.8,2.7,8.5,4.1,14,4.1c5.4,0,9.9-1.4,13.7-4.2c3.8-2.8,5.6-6.8,5.6-11.9c0-4-1.1-7.2-3.4-9.8c-2.3-2.5-5.2-4.7-8.8-6.4
			c-3.6-1.7-7.4-3.4-11.4-4.9c-4-1.6-7.8-3.4-11.4-5.6c-3.6-2.1-6.5-4.9-8.8-8.1C8.1,44.3,7,40,7,34.9c0-5.3,1.2-9.8,3.6-13.6
			c2.4-3.8,5.7-6.8,9.8-8.8C24.5,10.4,29,9.4,34,9.4c5.6,0,10.6,1.2,15.1,3.5c4.5,2.3,8,5.2,10.7,8.6l-8.1,6.8
			c-4-5.7-9.8-8.5-17.4-8.5c-4.5,0-8.5,1.2-11.9,3.5c-3.4,2.4-5.1,6-5.1,10.8c0,3.9,1.1,7,3.4,9.4c2.3,2.4,5.2,4.4,8.8,6.1
			c3.6,1.7,7.4,3.3,11.4,4.8c4,1.6,7.8,3.4,11.4,5.6c3.6,2.2,6.5,5,8.8,8.5c2.3,3.5,3.4,8,3.4,13.5c0,5.6-1.3,10.4-4,14.4
			c-2.7,4-6.3,7.1-10.8,9.2C45.1,107.7,40.1,108.7,34.6,108.7"/>
		<path class="st2" d="M136.7,107.4l-7.9-22.6H85.7l-7.9,22.6H66.5l35-96.8H113l35,96.8H136.7z M89.1,75h36.3l-18.1-52.1L89.1,75z"
			/>
		<polygon class="st2" points="215.5,10.7 226.8,10.7 191.8,107.4 180.4,107.4 145.4,10.7 156.8,10.7 186.2,94.2 		"/>
		<polygon class="st2" points="289.7,20.7 247.1,20.7 247.1,54 284.2,54 284.2,64 247.1,64 247.1,97.4 289.7,97.4 289.7,107.4 
			236.8,107.4 236.8,10.7 289.7,10.7 		"/>
		<polygon class="st2" points="130.4,128.8 130.4,139.2 103.6,139.2 103.6,225.6 93.3,225.6 93.3,139.2 66.5,139.2 66.5,128.8 		"/>
		<polygon class="st2" points="204.7,128.8 215.1,128.8 215.1,225.6 204.7,225.6 204.7,182.4 151.3,182.4 151.3,225.6 141,225.6 
			141,128.8 151.3,128.8 151.3,172.1 204.7,172.1 		"/>
		<polygon class="st2" points="289.7,138.9 247.1,138.9 247.1,172.2 284.2,172.2 284.2,182.2 247.1,182.2 247.1,215.6 289.7,215.6 
			289.7,225.6 236.8,225.6 236.8,128.8 289.7,128.8 		"/>
	</g>
</g>
</svg>
