<?xml version="1.0" encoding="utf-8"?>
<!-- Generator: Adobe Illustrator 19.1.0, SVG Export Plug-In . SVG Version: 6.00 Build 0)  -->
<svg version="1.1" id="Layer_1" xmlns="http://www.w3.org/2000/svg" xmlns:xlink="http://www.w3.org/1999/xlink" x="0px" y="0px"
	 viewBox="0 0 661.4 199.4" style="enable-background:new 0 0 661.4 199.4;" xml:space="preserve">
<style type="text/css">
	.st0{fill:#FFFFFF;}
</style>
<g>
	<path class="st0" d="M212.8,10.3c-2,0.1-3.7,0.8-4.9,1.9c-1.2,1.2-2.3,3.2-3.1,6.2l-11.9,41.4l-0.6,1.8c-0.3,1-0.5,1.8-0.6,2.4
		c-0.1,0.6-0.2,1.2-0.2,1.7c0,2.9,2.1,4.4,6.4,4.4h1.5l-0.5,1.7h-27.7v-1.7c1.7-0.4,2.9-0.8,3.8-1.5c0.9-0.6,1.6-1.5,2.1-2.5
		c0.5-1.1,1.1-2.7,1.7-4.8L191,19.3c0.1-0.1,0.2-0.7,0.5-1.7c0.3-1,0.4-2,0.4-2.9c0-1.8-0.7-2.9-2.1-3.5c-1.4-0.6-3.2-0.8-5.4-0.8
		l0.5-1.6h28.3L212.8,10.3z"/>
	<path class="st0" d="M242.7,10.3c-2,0.1-3.7,0.8-4.9,1.9c-1.2,1.2-2.3,3.2-3.1,6.2l-11.9,41.4l-0.6,1.8c-0.3,1-0.5,1.8-0.6,2.4
		c-0.1,0.6-0.2,1.2-0.2,1.7c0,2.9,2.1,4.4,6.4,4.4h1.5l-0.5,1.7h-27.7v-1.7c1.7-0.4,2.9-0.8,3.8-1.5c0.9-0.6,1.6-1.5,2.1-2.5
		c0.5-1.1,1.1-2.7,1.7-4.8l12.1-42.1c0.1-0.1,0.2-0.7,0.5-1.7c0.3-1,0.4-2,0.4-2.9c0-1.8-0.7-2.9-2.1-3.5c-1.4-0.6-3.2-0.8-5.4-0.8
		l0.5-1.6h28.3L242.7,10.3z"/>
	<path class="st0" d="M282.6,7.3c2.4,0,4.5,0.2,6.1,0.5c1.6,0.3,3.4,0.8,5.4,1.4c0.2,0.1,0.9,0.3,2.1,0.6c1.2,0.3,2.5,0.5,3.9,0.5
		c1.1,0,2.1-0.2,3-0.7c0.9-0.5,1.6-1.2,2.2-2.1h1.9L302.5,28h-1.8c-0.2-3.3-1-6.2-2.4-8.7c-1.4-2.5-3.2-4.5-5.4-5.9
		c-2.2-1.4-4.7-2.1-7.4-2.1c-2.9,0-5.3,0.9-7.1,2.7c-1.8,1.8-2.8,4.1-2.8,6.9c0,2.6,0.8,4.8,2.4,6.8c1.6,1.9,4,4.3,7.4,7.1
		c2.8,2.3,4.9,4.3,6.6,6c1.6,1.7,3,3.7,4.2,6.1c1.2,2.4,1.8,5,1.8,8.1c0,3.6-1,6.8-2.9,9.6c-1.9,2.8-4.6,5-8.1,6.5
		c-3.5,1.5-7.5,2.3-12.1,2.3c-2.1,0-4-0.1-5.7-0.4c-1.6-0.2-3.5-0.6-5.7-1.1c-0.3-0.1-1.1-0.2-2.4-0.5c-1.3-0.3-2.5-0.4-3.8-0.4
		c-1.4,0-2.5,0.2-3.5,0.6c-0.9,0.4-1.9,1-3,1.8h-1.8l5.1-23.6h1.7c0.4,6.6,2.2,11.6,5.3,15c3.1,3.4,6.9,5.1,11.4,5.1
		c3.6,0,6.5-1.1,8.9-3.3c2.4-2.2,3.6-4.9,3.6-8.1c0-2.8-0.8-5.2-2.5-7.3c-1.7-2.1-4.2-4.6-7.5-7.5c-2.6-2.3-4.8-4.2-6.4-5.9
		c-1.6-1.7-2.9-3.6-4.1-5.8c-1.1-2.2-1.6-4.7-1.6-7.4c0-3.1,0.9-5.9,2.6-8.6c1.7-2.6,4.1-4.7,7.1-6.3C275.7,8.1,279,7.3,282.6,7.3"
		/>
	<path class="st0" d="M318.6,7.3c1.9,0,3.5,0.6,4.8,1.9c1.3,1.3,1.9,2.9,1.9,4.8c0,1.9-0.6,3.5-1.9,4.8c-1.3,1.3-2.9,2-4.8,2
		c-1.9,0-3.5-0.7-4.8-2c-1.3-1.3-2-2.9-2-4.8c0-1.9,0.7-3.5,2-4.8C315.1,8,316.7,7.3,318.6,7.3 M311.1,62.7
		c-0.4,1.5-0.6,2.4-0.6,2.8c0,1,0.4,1.6,1.2,1.6c0.9,0,1.8-0.5,2.7-1.5c1-1,2.4-2.8,4.2-5.3l1.3,1.2c-2.8,4.2-5.2,7.2-7.3,9
		c-2.1,1.7-4.5,2.6-7.1,2.6c-2,0-3.7-0.5-4.9-1.6c-1.2-1-1.8-2.4-1.8-4.1c0-1.3,0.3-2.9,0.9-5l6.4-20.3c0.7-2.4,1-3.9,1-4.4
		c0-1.1-0.4-1.9-1.3-2.4c-0.9-0.5-2-0.8-3.4-0.8h-0.5l0.6-1.8l17.1-2.7h1.7L311.1,62.7z"/>
	<path class="st0" d="M336.3,47.6c3.2-5.7,6.6-10.1,10.1-13.1c3.6-3.1,7.1-4.6,10.5-4.6c1.7,0,3,0.5,4,1.6c1,1.1,1.6,2.5,1.6,4.4
		c0,1.6-0.2,3.3-0.6,5.1c-0.4,1.8-1.1,4-2,6.5l0.2,0.2c3.1-5.6,6.5-9.9,10.1-13.1c3.6-3.1,6.9-4.7,9.9-4.7c1.8,0,3.2,0.6,4.3,1.7
		c1.1,1.1,1.6,2.6,1.6,4.5c0,2.5-0.5,5.3-1.5,8.4l-4.1,13.4c-0.6,2-1.1,3.6-1.4,4.8c-0.3,1.2-0.5,2-0.5,2.5c0,0.4,0.1,0.8,0.3,1
		c0.2,0.2,0.5,0.4,0.8,0.4c0.7,0,1.4-0.5,2.2-1.5c0.8-1,1.8-2.6,2.9-4.8l1.5,1.2c-1.7,3.3-3.7,6-5.8,8.1c-2.2,2.1-4.8,3.1-7.9,3.1
		c-1.7,0-3.1-0.5-4.2-1.6c-1.1-1-1.6-2.4-1.6-4.1c0-1.4,0.2-2.8,0.7-4.3l4.9-15.8c1.3-4.2,1.9-6.7,1.9-7.6c0-1-0.4-1.5-1.3-1.5
		c-1.6,0-3.5,1.1-5.8,3.2c-2.2,2.1-4.4,4.9-6.4,8.4c-2,3.4-3.5,6.9-4.6,10.5l-3.6,12.1H341L349,45c0.9-2.6,1.3-4.4,1.3-5.6
		c0-0.5-0.2-0.9-0.5-1.2c-0.3-0.3-0.8-0.5-1.2-0.5c-1.3,0-3,1-5.1,2.9c-2.1,1.9-4.1,4.5-6.2,7.8c-2,3.3-3.6,6.8-4.7,10.5l-4,13.1
		h-11.5l9.1-30c0.6-1.9,0.9-3.3,0.9-4.1c0-1.2-0.4-2.1-1.2-2.6c-0.8-0.5-2.2-0.8-4-0.8l0.6-1.8l17.1-2.7h1.7l-5.4,17.6L336.3,47.6z"
		/>
	<path class="st0" d="M408.5,29.8l-1.8,5.8l0.2,0.2c1.8-2,3.6-3.4,5.3-4.5c1.7-1,3.5-1.5,5.3-1.5c2.6,0,4.6,1.1,6.1,3.2
		c1.5,2.1,2.3,5,2.3,8.7c0,5-1.2,9.9-3.7,14.7c-2.5,4.8-5.7,8.8-9.6,11.9c-3.9,3.1-7.8,4.6-11.8,4.6c-1,0-1.9-0.1-2.6-0.3
		c-0.8-0.2-1.6-0.5-2.5-0.8l-2,6.6c-0.1,0.1-0.3,0.9-0.7,2.4c-0.4,1.5-0.6,2.8-0.6,4c0,1.4,0.5,2.4,1.6,3.3c1.1,0.8,2.5,1.4,4.3,1.6
		l-0.5,1.6h-25.1l0.5-1.6c2-0.2,3.6-0.8,4.8-1.8c1.2-0.9,2.1-2.4,2.7-4.5l12-38.8c0.4-1.2,0.7-2.5,1-3.7c0.3-1.3,0.5-2.1,0.5-2.5
		c0-1-0.4-2-1.3-2.8c-0.9-0.8-2.1-1.2-3.7-1.3l0.6-1.8l17.5-2.7H408.5z M405.6,39.1l-9,29.5c0.5,0.9,1.1,1.6,1.7,2
		c0.6,0.4,1.3,0.6,2.1,0.6c2.5,0,4.9-1.6,7-4.9c2.2-3.2,3.9-7.1,5.2-11.6c1.3-4.5,2-8.2,2-11.3c0-2-0.4-3.6-1.1-4.9
		c-0.7-1.3-1.8-1.9-3.1-1.9C408.9,36.7,407.3,37.5,405.6,39.1"/>
	<path class="st0" d="M452.9,29.8c4.1,0,7.3,1.2,9.7,3.6c2.4,2.4,3.5,5.6,3.5,9.7c0,4.3-1.3,8.8-3.8,13.4
		c-2.5,4.7-5.9,8.6-10.3,11.7c-4.3,3.1-9.1,4.7-14.2,4.7c-3.5,0-6.5-1.1-9.1-3.4c-2.6-2.2-3.9-5.5-3.9-9.9c0-5,1.4-9.8,4.1-14.4
		c2.7-4.6,6.3-8.4,10.6-11.2C444,31.3,448.4,29.8,452.9,29.8 M435.8,64.3c0,1.8,0.4,3.3,1.2,4.5c0.8,1.1,1.8,1.7,3.1,1.7
		c2.6,0,5.1-2,7.4-6c2.3-4,4.2-8.6,5.7-13.8c1.4-5.2,2.2-9.1,2.2-11.8c0-4.4-1.4-6.5-4.3-6.5c-2.4,0-4.8,1.9-7.1,5.8
		c-2.4,3.9-4.3,8.4-5.8,13.6C436.5,56.9,435.8,61.1,435.8,64.3"/>
	<path class="st0" d="M484,29.8c1.6,0,3.4,0.3,5.3,0.9c1.5,0.4,2.7,0.6,3.6,0.6c1.3,0,2.1-0.5,2.6-1.6h1.8L495,44h-2
		c-0.3-3.7-1.2-6.7-2.8-8.9c-1.5-2.2-3.3-3.3-5.4-3.3c-1.1,0-2,0.4-2.7,1.1c-0.7,0.7-1.1,1.7-1.1,2.8c0,1.5,0.4,3,1.2,4.4
		c0.8,1.4,2.1,3.3,3.9,5.5c2,2.5,3.6,4.7,4.7,6.6c1.1,2,1.7,4.1,1.7,6.3c0,2.4-0.6,4.7-1.8,6.8c-1.2,2.1-2.9,3.8-5.1,5.1
		c-2.1,1.3-4.5,1.9-7.2,1.9c-1,0-2-0.1-2.9-0.3c-1-0.2-1.9-0.4-2.8-0.7c-1.7-0.5-2.9-0.7-3.6-0.7c-1.5,0-2.5,0.6-2.9,1.8h-1.6
		l2.2-14.5h1.7c0.6,2.6,1.4,4.9,2.5,6.8c1.1,1.9,2.3,3.3,3.6,4.3c1.3,1,2.5,1.5,3.6,1.5c1.3,0,2.4-0.5,3.4-1.6
		c1-1.1,1.5-2.4,1.5-3.9c0-1.8-0.5-3.5-1.4-5.2c-0.9-1.7-2.4-3.9-4.4-6.5c-2-2.6-3.5-4.9-4.6-6.8c-1-1.9-1.5-3.9-1.5-5.9
		c0-2,0.6-3.7,1.7-5.4c1.1-1.6,2.7-2.9,4.6-3.9C479.5,30.3,481.7,29.8,484,29.8"/>
	<path class="st0" d="M514.3,7.3c1.9,0,3.5,0.6,4.8,1.9c1.3,1.3,1.9,2.9,1.9,4.8c0,1.9-0.6,3.5-1.9,4.8c-1.3,1.3-2.9,2-4.8,2
		c-1.9,0-3.5-0.7-4.8-2c-1.3-1.3-2-2.9-2-4.8c0-1.9,0.7-3.5,2-4.8C510.8,8,512.4,7.3,514.3,7.3 M506.7,62.7
		c-0.4,1.5-0.6,2.4-0.6,2.8c0,1,0.4,1.6,1.2,1.6c0.9,0,1.8-0.5,2.7-1.5c1-1,2.4-2.8,4.2-5.3l1.3,1.2c-2.8,4.2-5.2,7.2-7.3,9
		c-2.1,1.7-4.5,2.6-7.1,2.6c-2,0-3.7-0.5-4.9-1.6c-1.2-1-1.8-2.4-1.8-4.1c0-1.3,0.3-2.9,0.9-5l6.4-20.3c0.7-2.4,1-3.9,1-4.4
		c0-1.1-0.4-1.9-1.3-2.4c-0.9-0.5-2-0.8-3.4-0.8h-0.5l0.6-1.8l17.1-2.7h1.7L506.7,62.7z"/>
	<path class="st0" d="M542.7,29.8c4.1,0,7.3,1.2,9.7,3.6c2.4,2.4,3.5,5.6,3.5,9.7c0,4.3-1.3,8.8-3.8,13.4
		c-2.5,4.7-5.9,8.6-10.3,11.7c-4.3,3.1-9.1,4.7-14.2,4.7c-3.5,0-6.5-1.1-9.1-3.4c-2.6-2.2-3.9-5.5-3.9-9.9c0-5,1.4-9.8,4.1-14.4
		c2.7-4.6,6.3-8.4,10.6-11.2C533.8,31.3,538.2,29.8,542.7,29.8 M525.6,64.3c0,1.8,0.4,3.3,1.2,4.5c0.8,1.1,1.8,1.7,3.1,1.7
		c2.6,0,5.1-2,7.4-6c2.3-4,4.2-8.6,5.7-13.8c1.4-5.2,2.2-9.1,2.2-11.8c0-4.4-1.4-6.5-4.3-6.5c-2.4,0-4.8,1.9-7.1,5.8
		c-2.4,3.9-4.3,8.4-5.8,13.6C526.3,56.9,525.6,61.1,525.6,64.3"/>
	<path class="st0" d="M622.7,7.3l-15.9,52.2c-0.7,2-1,3.7-1,4.9c0,0.7,0.2,1.3,0.5,1.7c0.3,0.4,0.7,0.6,1.3,0.6c1,0,2-0.4,2.9-1.3
		c0.9-0.9,1.9-2.3,3-4.3l1.4,0.8c-3.4,7.4-8.2,11.1-14.4,11.1c-2.1,0-3.7-0.5-4.8-1.6c-1.1-1.1-1.7-2.6-1.7-4.6c0-2.1,0.7-5.1,2-9
		l-0.2-0.2c-2.7,5.6-5.2,9.5-7.6,11.9c-2.4,2.3-4.8,3.5-7.2,3.5c-2.5,0-4.4-1-5.9-2.9c-1.5-2-2.2-4.6-2.2-8c0-4.8,1.2-9.8,3.6-14.8
		c2.4-5,5.5-9.2,9.3-12.5c3.8-3.3,7.5-4.9,11.2-4.9c1.5,0,2.8,0.3,3.8,0.8c1,0.5,1.9,1.4,2.7,2.6l4.3-14.1c0.1-0.4,0.3-1,0.4-1.8
		c0.2-0.8,0.2-1.4,0.2-1.8c0-1-0.4-1.8-1.1-2.5c-0.8-0.7-1.8-1.2-3.1-1.3l0.5-1.8l16.5-2.7H622.7z M584.3,60.6
		c0,1.4,0.3,2.5,0.8,3.2c0.5,0.7,1.2,1.1,2.1,1.1c1.9,0,4-1.8,6.2-5.5c2.2-3.6,4.2-7.8,5.8-12.5c1.6-4.7,2.4-8.1,2.4-10.4
		c0-1.4-0.3-2.6-1-3.4c-0.7-0.9-1.6-1.3-2.7-1.3c-2,0-4.1,1.8-6.2,5.3c-2.1,3.5-3.9,7.6-5.3,12.3C585,54,584.3,57.8,584.3,60.6"/>
	<path class="st0" d="M642,29.8c2.4,0,4.3,0.6,5.6,1.7c1.4,1.1,2,2.7,2,4.7c0,2.9-1.1,5.8-3.2,8.6c-2.1,2.8-5.1,5-9,6.9
		c-3.8,1.8-8.1,2.8-12.8,3.1c-0.1,0.7-0.2,1.7-0.2,3c0,3.4,0.7,5.8,2,7.3c1.4,1.5,3.1,2.2,5.2,2.2c2.5,0,4.7-0.6,6.7-1.7
		c2-1.1,4.1-2.7,6.1-4.8l1.1,1.3c-6,7.4-12.5,11-19.5,11c-4,0-7.1-1.1-9.2-3.3c-2.2-2.2-3.3-5.3-3.3-9.3c0-5,1.4-9.9,4.2-14.6
		c2.8-4.7,6.5-8.6,10.9-11.5C633,31.3,637.5,29.8,642,29.8 M625.1,52.7c2.8-0.4,4.7-0.8,6-1.3c1.2-0.5,2.5-1.5,3.8-2.8
		c1.8-1.9,3.2-4.1,4-6.7c0.9-2.5,1.3-4.7,1.3-6.6c0-2-0.7-2.9-2.1-2.9c-1.4,0-2.9,1-4.6,2.9c-1.7,2-3.3,4.5-4.8,7.6
		C627.3,46,626,49.3,625.1,52.7"/>
	<path class="st0" d="M67.7,91.3c0,2.6-0.7,5.1-2.1,7.5c-1.4,2.5-3.5,4.6-6.2,6.4c-2.8,1.8-6.1,3.1-9.9,3.7l7.4,21.9
		c0.8,2.3,1.5,4.1,2.1,5.2c0.6,1.1,1.4,1.9,2.3,2.3c0.9,0.4,2.2,0.6,4,0.7l-0.5,1.7H47l-10.4-30.8h-2.8l-5.9,20.4
		c-0.6,1.9-0.8,3.4-0.8,4.5c0,1.7,0.6,2.8,1.7,3.4c1.2,0.6,3.1,0.9,5.7,0.9l-0.5,1.7H5l0.5-1.7c1.9-0.2,3.4-0.5,4.4-1.1
		c1-0.5,1.9-1.3,2.4-2.3c0.6-1,1.2-2.4,1.7-4.4L26.4,88c0.7-2.3,1-4,1-5.1c0-1.6-0.5-2.6-1.6-3.1c-1.1-0.5-3.1-0.7-6-0.7l0.5-1.6
		h28.1c5.6,0,10.3,1.1,13.9,3.3C65.9,82.9,67.7,86.4,67.7,91.3 M42,81.1L34.6,107c1.1,0.2,2.1,0.3,3.1,0.3c3,0,5.7-0.7,8.1-2.2
		c2.4-1.4,4.2-3.4,5.5-6c1.3-2.5,2-5.4,2-8.5c0-2.9-0.8-5.2-2.5-7c-1.7-1.8-4-2.7-6.9-2.7C43.5,81,42.8,81,42,81.1"/>
	<path class="st0" d="M92.3,98.6c2.4,0,4.3,0.6,5.6,1.7c1.4,1.1,2,2.7,2,4.7c0,2.9-1.1,5.8-3.2,8.6c-2.1,2.8-5.1,5-9,6.9
		c-3.8,1.8-8.1,2.8-12.8,3.1c-0.1,0.7-0.2,1.7-0.2,3c0,3.4,0.7,5.8,2,7.3c1.4,1.5,3.1,2.2,5.2,2.2c2.5,0,4.7-0.6,6.7-1.7
		c2-1.1,4.1-2.7,6.1-4.8l1.1,1.3c-6,7.4-12.5,11-19.5,11c-4,0-7.1-1.1-9.2-3.3c-2.2-2.2-3.3-5.3-3.3-9.3c0-5,1.4-9.9,4.2-14.6
		c2.8-4.7,6.5-8.6,10.9-11.5C83.4,100.1,87.8,98.6,92.3,98.6 M75.5,121.4c2.8-0.4,4.7-0.8,6-1.3c1.2-0.5,2.5-1.5,3.8-2.8
		c1.8-1.9,3.2-4.1,4-6.7c0.9-2.5,1.3-4.7,1.3-6.6c0-2-0.7-2.9-2.1-2.9c-1.4,0-2.9,1-4.6,2.9c-1.7,2-3.3,4.5-4.8,7.6
		C77.6,114.8,76.4,118.1,75.5,121.4"/>
	<path class="st0" d="M120.2,98.6L111,129c-0.1,0.2-0.2,0.6-0.4,1.3c-0.2,0.7-0.3,1.3-0.3,1.7c0,1.1,0.4,1.7,1.3,1.7
		c1.5,0,3.2-1.1,5.1-3.4c1.9-2.2,3.8-5.1,5.5-8.5c1.8-3.4,3.1-6.7,4.1-10l3.8-12.2h11.5l-9.9,32.2c-0.4,1.2-0.6,2.2-0.6,2.9
		c0,1,0.3,1.5,0.9,1.5c0.6,0,1.4-0.6,2.4-1.8c1-1.2,2-2.8,3.1-4.7l1.5,1c-1.5,3.4-3.4,6.1-5.8,8.1c-2.4,2-5,3-7.7,3
		c-1.8,0-3.2-0.4-4.4-1.3c-1.2-0.9-1.7-2.1-1.7-3.6c0-0.9,0.2-2,0.6-3.4c0.4-1.4,0.8-2.9,1.2-4.4c0.6-1.8,1-3.2,1.2-3.9l-0.2-0.2
		c-2.8,4.9-5.6,9-8.6,12.1c-3,3.2-6,4.8-9,4.8c-1.7,0-3.2-0.6-4.4-1.7c-1.2-1.2-1.8-2.8-1.8-4.9c0-1,0.1-2.1,0.3-3
		c0.2-1,0.7-2.7,1.5-5.2l4.8-16c0.7-2.2,1-3.7,1-4.6c0-2.1-1.5-3.2-4.6-3.2l0.6-1.9l16.6-2.6H120.2z"/>
	<path class="st0" d="M156,116.4c3.2-5.7,6.6-10.1,10.1-13.1c3.6-3.1,7.1-4.6,10.5-4.6c1.7,0,3,0.5,4,1.6c1,1.1,1.6,2.5,1.6,4.4
		c0,1.6-0.2,3.3-0.6,5.1c-0.4,1.8-1.1,4-2,6.5l0.2,0.2c3.1-5.6,6.5-9.9,10.1-13.1c3.6-3.1,6.9-4.7,9.9-4.7c1.8,0,3.2,0.6,4.3,1.7
		c1.1,1.1,1.6,2.6,1.6,4.5c0,2.5-0.5,5.3-1.5,8.4l-4.1,13.4c-0.6,2-1.1,3.6-1.4,4.8c-0.3,1.2-0.5,2-0.5,2.5c0,0.4,0.1,0.8,0.3,1
		c0.2,0.2,0.5,0.4,0.8,0.4c0.7,0,1.4-0.5,2.2-1.5c0.8-1,1.8-2.6,2.9-4.8l1.5,1.2c-1.7,3.3-3.7,6-5.8,8.1c-2.2,2.1-4.8,3.1-7.9,3.1
		c-1.7,0-3.1-0.5-4.2-1.6c-1.1-1-1.6-2.4-1.6-4.1c0-1.4,0.2-2.8,0.7-4.3l4.9-15.8c1.3-4.2,1.9-6.7,1.9-7.6c0-1-0.4-1.5-1.3-1.5
		c-1.6,0-3.5,1.1-5.8,3.2c-2.2,2.1-4.4,4.9-6.4,8.4c-2,3.4-3.5,6.9-4.6,10.5l-3.6,12.1h-11.5l8.1-26.9c0.9-2.6,1.3-4.4,1.3-5.6
		c0-0.5-0.2-0.9-0.5-1.2c-0.3-0.3-0.8-0.5-1.2-0.5c-1.3,0-3,1-5.1,2.9c-2.1,1.9-4.1,4.5-6.2,7.8c-2,3.3-3.6,6.8-4.7,10.5l-4,13.1
		h-11.5l9.1-30c0.6-1.9,0.9-3.3,0.9-4.1c0-1.2-0.4-2.1-1.2-2.6c-0.8-0.5-2.2-0.8-4-0.8l0.6-1.8l17.1-2.7h1.7l-5.4,17.6L156,116.4z"
		/>
	<path class="st0" d="M228,98.6c1.7,0,3.1,0.5,4.2,1.4c1.1,0.9,1.6,2.4,1.7,4.4h0.2l1.4-4.8h11.5l-8.3,26.8c-0.1,0.2-0.3,1-0.7,2.5
		c-0.4,1.5-0.6,2.9-0.6,4.3c0,0.6,0.2,1.1,0.5,1.6c0.3,0.4,0.8,0.6,1.2,0.6c0.9,0,1.9-0.5,2.9-1.5c1-1,1.9-2.4,2.9-4.2l1.6,0.9
		c-1.5,3.5-3.4,6.2-5.9,8.2c-2.5,2-5.2,2.9-8.2,2.9c-2.1,0-3.8-0.5-5-1.6c-1.2-1-1.8-2.5-1.8-4.4c0-1.2,0.1-2.3,0.4-3.5
		c0.2-1.2,0.7-3,1.4-5.3l-0.2-0.2c-2.7,5.5-5.2,9.4-7.5,11.6c-2.3,2.2-4.7,3.4-7.2,3.4c-2.5,0-4.5-1-6-3c-1.5-2-2.2-4.8-2.2-8.3
		c0-5,1.3-10,4-14.9c2.7-4.9,5.9-9,9.7-12.1C221.5,100.2,224.9,98.6,228,98.6 M215.6,129.1c0,1.3,0.3,2.3,0.8,3.2
		c0.5,0.8,1.2,1.2,2.2,1.2c1.9,0,3.9-1.7,6.1-5.1c2.2-3.4,4-7.3,5.6-11.6c1.5-4.4,2.3-7.7,2.3-10c0-1.6-0.3-2.9-0.9-4
		c-0.6-1.1-1.4-1.7-2.3-1.7c-2.1,0-4.2,1.8-6.3,5.4c-2.1,3.6-3.9,7.7-5.3,12.3C216.3,123.4,215.6,126.8,215.6,129.1"/>
	<path class="st0" d="M268.4,88h1.9l-2.8,11.6h6.4l-1.8,5.8h-6.3l-6.3,23.5c-0.1,0.1-0.3,1-0.7,2.5c-0.4,1.6-0.6,2.7-0.6,3.5
		c0,0.5,0.1,0.9,0.4,1.3c0.3,0.4,0.6,0.6,1.1,0.6c0.9,0,1.8-0.5,2.9-1.6c1.1-1.1,2.2-2.6,3.3-4.5l1.5,0.9c-2,3.4-4.3,6-6.9,7.7
		c-2.5,1.7-5.2,2.5-7.9,2.5c-1.8,0-3.2-0.5-4.3-1.5c-1.1-1-1.6-2.3-1.6-3.9c0-0.8,0.1-1.8,0.4-2.9c0.2-1.2,0.5-2.2,0.7-3.2
		c0.3-1,0.4-1.7,0.6-2.1l5.9-22.6h-6.6l1.3-4.1c3.5-0.9,6.8-2.4,9.8-4.6C261.7,94.4,264.9,91.5,268.4,88"/>
	<path class="st0" d="M297.7,98.6c4.1,0,7.3,1.2,9.7,3.6c2.4,2.4,3.5,5.6,3.5,9.7c0,4.3-1.3,8.8-3.8,13.4
		c-2.5,4.7-5.9,8.6-10.3,11.7c-4.3,3.1-9.1,4.7-14.2,4.7c-3.5,0-6.5-1.1-9.1-3.4c-2.6-2.2-3.9-5.5-3.9-9.9c0-5,1.4-9.8,4.1-14.4
		c2.7-4.6,6.3-8.4,10.6-11.2C288.8,100,293.2,98.6,297.7,98.6 M280.6,133.1c0,1.8,0.4,3.3,1.2,4.5c0.8,1.1,1.8,1.7,3.1,1.7
		c2.6,0,5.1-2,7.4-6c2.3-4,4.2-8.6,5.7-13.8c1.4-5.2,2.2-9.1,2.2-11.8c0-4.4-1.4-6.5-4.3-6.5c-2.4,0-4.8,1.9-7.1,5.8
		c-2.4,3.9-4.3,8.4-5.8,13.6C281.4,125.6,280.6,129.9,280.6,133.1"/>
	<path class="st0" d="M339,76.1l-15.8,52.1c-0.1,0.2-0.3,1-0.7,2.2c-0.4,1.2-0.6,2.1-0.6,2.8c0,0.5,0.2,0.9,0.5,1.2
		c0.3,0.3,0.8,0.5,1.2,0.5c1.7,0,3.6-1.9,5.7-5.7l1.4,1c-1.9,3.6-4.1,6.4-6.6,8.5c-2.5,2.1-5,3.1-7.7,3.1c-1.8,0-3.4-0.5-4.7-1.5
		c-1.3-1-1.9-2.4-1.9-4c0-1.2,0.2-2.3,0.5-3.5c0.3-1.2,0.9-3.2,1.7-5.9l11.8-38.6c0.5-1.6,0.7-2.9,0.7-3.8c0-1-0.4-1.9-1.2-2.6
		c-0.8-0.7-1.8-1.1-3-1.3l0.6-1.7l16.6-2.8H339z"/>
	<path class="st0" d="M357.6,98.6c4.1,0,7.3,1.2,9.7,3.6c2.4,2.4,3.5,5.6,3.5,9.7c0,4.3-1.3,8.8-3.8,13.4
		c-2.5,4.7-5.9,8.6-10.3,11.7c-4.3,3.1-9.1,4.7-14.2,4.7c-3.5,0-6.5-1.1-9.1-3.4c-2.6-2.2-3.9-5.5-3.9-9.9c0-5,1.4-9.8,4.1-14.4
		c2.7-4.6,6.3-8.4,10.6-11.2C348.7,100,353.1,98.6,357.6,98.6 M340.5,133.1c0,1.8,0.4,3.3,1.2,4.5c0.8,1.1,1.8,1.7,3.1,1.7
		c2.6,0,5.1-2,7.4-6c2.3-4,4.2-8.6,5.7-13.8c1.4-5.2,2.2-9.1,2.2-11.8c0-4.4-1.4-6.5-4.3-6.5c-2.4,0-4.8,1.9-7.1,5.8
		c-2.4,3.9-4.3,8.4-5.8,13.6C341.2,125.6,340.5,129.9,340.5,133.1"/>
	<path class="st0" d="M392.6,98.6c2,0,3.7,0.2,5,0.5c1.3,0.3,2.8,0.9,4.4,1.8h12l-1.6,5.1h-6.2c0.5,1.1,0.8,2,1,2.8
		c0.2,0.7,0.3,1.6,0.3,2.5c0,2.7-0.8,5.2-2.4,7.6c-1.6,2.3-3.8,4.2-6.6,5.5c-2.8,1.4-5.8,2-9.1,2c-1.7,0-3.4-0.2-5.1-0.6
		c-1.5,0.7-2.6,1.4-3.3,2c-0.6,0.6-1,1.2-1,1.7c0,1.2,1.3,2.3,3.8,3.1l9.2,2.9c3.1,1,5.5,2.4,7.1,4.2c1.6,1.8,2.4,4.1,2.4,6.7
		c0,4.2-1.8,7.5-5.5,10c-3.7,2.5-8.6,3.7-14.9,3.7c-6.2,0-10.8-0.9-13.8-2.7c-3-1.8-4.5-4.1-4.5-6.9c0-2.3,1.1-4.2,3.4-5.7
		c2.3-1.5,5.3-2.6,9.1-3.4c-1.6-1-2.8-2-3.5-3c-0.7-1-1.1-2.3-1.1-3.7c0-2,0.7-3.7,2.2-5.3c1.5-1.6,4.1-3.1,7.9-4.5
		c-2.9-1.3-5-2.8-6.3-4.6c-1.3-1.8-2-3.8-2-6.2c0-2.5,0.8-5,2.3-7.4c1.5-2.4,3.7-4.4,6.6-5.9C385.2,99.4,388.6,98.6,392.6,98.6
		 M383.7,121c0,1.1,0.3,2,1,2.6c0.6,0.6,1.5,1,2.6,1c3.1,0,5.6-3,7.4-8.9l1.6-5.1c0.7-2.4,1.1-4.4,1.1-6.2c0-2.6-1.3-4-3.8-4
		c-1.7,0-3,0.7-4,2.1c-1,1.4-2,3.5-2.9,6.4l-1.8,5.9c-0.3,0.9-0.6,2-0.8,3.2C383.8,119.1,383.7,120.1,383.7,121 M371.3,150.6
		c0,2.5,1,4.4,2.9,5.8c1.9,1.4,4.5,2.1,7.8,2.1c3.2,0,5.8-0.7,7.8-2c2-1.3,3-3,3-5.2c0-2.1-0.7-3.6-2.2-4.5c-1.5-0.9-3.8-1.8-7-2.7
		c-2.3-0.6-4.1-1.1-5.2-1.6c-2.3,0.6-4,1.5-5.3,2.8C371.9,146.6,371.3,148.4,371.3,150.6"/>
	<path class="st0" d="M420.1,131.5c-0.4,1.5-0.6,2.4-0.6,2.8c0,1,0.4,1.6,1.2,1.6c0.9,0,1.8-0.5,2.7-1.5c1-1,2.4-2.8,4.2-5.3
		l1.3,1.2c-2.8,4.2-5.2,7.2-7.3,9c-2.1,1.7-4.5,2.6-7.1,2.6c-2,0-3.7-0.5-4.9-1.6c-1.2-1-1.8-2.4-1.8-4.1c0-1.3,0.3-2.9,0.9-5
		l6.4-20.3c0.7-2.4,1-3.9,1-4.4c0-1.1-0.4-1.9-1.3-2.4c-0.9-0.5-2-0.8-3.4-0.8h-0.5l0.6-1.8l17.1-2.7h1.7L420.1,131.5z M426.7,94h-4
		l5.3-15.9h13.8L426.7,94z"/>
	<path class="st0" d="M451.9,98.6c1.7,0,3.1,0.5,4.2,1.4c1.1,0.9,1.6,2.4,1.7,4.4h0.2l1.4-4.8h11.5l-8.3,26.8
		c-0.1,0.2-0.3,1-0.7,2.5c-0.4,1.5-0.6,2.9-0.6,4.3c0,0.6,0.2,1.1,0.5,1.6c0.3,0.4,0.8,0.6,1.2,0.6c0.9,0,1.9-0.5,2.9-1.5
		c1-1,1.9-2.4,2.9-4.2l1.6,0.9c-1.5,3.5-3.4,6.2-5.9,8.2c-2.5,2-5.2,2.9-8.2,2.9c-2.1,0-3.8-0.5-5-1.6c-1.2-1-1.8-2.5-1.8-4.4
		c0-1.2,0.1-2.3,0.4-3.5c0.2-1.2,0.7-3,1.4-5.3l-0.2-0.2c-2.7,5.5-5.2,9.4-7.5,11.6c-2.3,2.2-4.7,3.4-7.2,3.4s-4.5-1-6-3
		c-1.5-2-2.2-4.8-2.2-8.3c0-5,1.3-10,4-14.9c2.7-4.9,5.9-9,9.7-12.1C445.4,100.2,448.8,98.6,451.9,98.6 M439.5,129.1
		c0,1.3,0.3,2.3,0.8,3.2c0.5,0.8,1.2,1.2,2.2,1.2c1.9,0,3.9-1.7,6.1-5.1c2.2-3.4,4-7.3,5.6-11.6c1.5-4.4,2.3-7.7,2.3-10
		c0-1.6-0.3-2.9-0.9-4c-0.6-1.1-1.4-1.7-2.3-1.7c-2.1,0-4.2,1.8-6.3,5.4c-2.1,3.6-3.9,7.7-5.3,12.3
		C440.2,123.4,439.5,126.8,439.5,129.1"/>
	<path class="st0" d="M510.9,76.1c3,0,5.7,0.7,8.1,2.2c2.4,1.4,4.3,3.4,5.7,5.9c1.4,2.5,2.1,5.4,2.1,8.6c0,3.2-0.8,6.4-2.3,9.6
		c-1.5,3.2-4,6.7-7.5,10.4c-3.4,3.8-8.1,8.2-14.1,13.2l-4.9,4h7.4c3.1,0,6-0.5,8.7-1.6c2.8-1.1,5.1-2.7,7-4.8h2.2l-7.1,17.1h-30.8
		V139l16.9-18c9-9.5,13.5-17.6,13.5-24.2c0-3.3-1-6-3.1-8.2c-2.1-2.2-4.6-3.2-7.8-3.2c-2.2,0-4.1,0.5-5.8,1.5
		c-1.6,1-3.1,2.6-4.5,4.7l-1.7-0.6C497.1,81,503,76.1,510.9,76.1"/>
	<path class="st0" d="M541.6,83.9c2.5-2.4,4.9-4.2,7.3-5.5c2.4-1.3,4.8-1.9,7.3-1.9c2.3,0,4.5,0.6,6.6,1.8c2.1,1.2,3.8,3.3,5.1,6.1
		c1.3,2.8,2,6.4,2,10.9c0,4-0.6,8.5-1.7,13.4c-1.1,4.9-2.7,9.6-4.8,14.2c-2.1,4.5-4.5,8.3-7.3,11.1c-2.2,2.4-4.7,4.3-7.5,5.7
		c-2.8,1.4-5.4,2.1-7.7,2.1c-4.1,0-7.4-1.8-9.9-5.3c-2.5-3.6-3.7-8.3-3.7-14.1c0-4.2,0.6-8.7,1.8-13.7c1.2-5,2.9-9.7,5.1-14.1
		C536.5,90.1,538.9,86.5,541.6,83.9 M536.2,131.5c0,5.2,1.7,7.7,5,7.7c4.3,0,7.9-4.8,10.7-14.5l6.8-23.7c0.7-2.6,1.4-5.4,1.8-8.5
		c0.5-3.1,0.7-5.2,0.7-6.4c0-2.1-0.4-3.8-1.3-5.1c-0.9-1.4-2.1-2-3.9-2c-2.4,0-4.4,1.4-6.1,4.1c-1.7,2.7-3.4,7.1-5.1,13.2l-3.9,13.1
		C537.8,119.5,536.2,126.9,536.2,131.5"/>
	<path class="st0" d="M591.8,76.1c3,0,5.7,0.7,8.1,2.2c2.4,1.4,4.3,3.4,5.7,5.9c1.4,2.5,2.1,5.4,2.1,8.6c0,3.2-0.8,6.4-2.3,9.6
		c-1.5,3.2-4,6.7-7.5,10.4c-3.4,3.8-8.1,8.2-14.1,13.2l-4.9,4h7.4c3.1,0,6-0.5,8.7-1.6c2.8-1.1,5.1-2.7,7-4.8h2.2l-7.1,17.1h-30.8
		V139l16.9-18c9-9.5,13.5-17.6,13.5-24.2c0-3.3-1-6-3.1-8.2c-2.1-2.2-4.6-3.2-7.8-3.2c-2.2,0-4.1,0.5-5.8,1.5
		c-1.6,1-3.1,2.6-4.5,4.7l-1.7-0.6C578.1,81,584,76.1,591.8,76.1"/>
	<path class="st0" d="M653.6,76.1l-0.4,1.4c-6.1,1.5-11.6,4.4-16.6,8.8c-5,4.4-9.1,9.8-12.2,16.1l0.2,0.2c2.3-1.2,4.8-1.8,7.6-1.8
		c2.9,0,5.5,0.7,7.8,2.1c2.3,1.4,4.1,3.4,5.4,5.9c1.3,2.5,1.9,5.3,1.9,8.5c0,4.2-1.1,8.2-3.3,12c-2.2,3.8-5.1,6.8-8.7,9.1
		c-3.6,2.3-7.5,3.4-11.5,3.4c-3.3,0-6.3-0.9-8.8-2.6c-2.6-1.7-4.6-4.1-6-7.1c-1.4-3-2.2-6.5-2.2-10.4c0-7,1.9-13.8,5.7-20.5
		c3.8-6.7,9.2-12.3,16.3-16.9C635.9,79.6,644.2,76.9,653.6,76.1 M623.4,106.1c-1.7,3.8-3.3,8.4-4.7,13.9c-1.4,5.4-2.2,9.5-2.2,12.3
		c0,2.1,0.6,3.9,1.8,5.1c1.2,1.3,2.7,1.9,4.6,1.9c2.5,0,4.7-1.5,6.7-4.5c2-3,3.5-6.5,4.6-10.5c1.1-4.1,1.6-7.5,1.6-10.2
		c0-2.7-0.6-4.9-1.9-6.7c-1.3-1.7-3.2-2.6-5.6-2.6C626.5,104.8,624.9,105.2,623.4,106.1"/>
	<g>
		<path class="st0" d="M12.2,185.5c-0.5,0-1-0.2-1.4-0.6c-0.4-0.4-0.5-0.9-0.5-1.7c0-0.6,0.1-1.2,0.4-1.7c0.2-0.5,0.6-0.9,0.9-1.3
			s0.8-0.6,1.2-0.8l0.7,0.6c-0.2,0.1-0.4,0.2-0.7,0.4c-0.3,0.2-0.5,0.4-0.7,0.7c-0.2,0.3-0.3,0.6-0.3,0.9c0.1-0.1,0.2-0.1,0.3-0.2
			c0.2,0,0.3-0.1,0.5-0.1c0.3,0,0.7,0.1,1,0.4s0.5,0.7,0.5,1.2c0,0.6-0.2,1.1-0.6,1.4C13.2,185.3,12.7,185.5,12.2,185.5z
			 M16.9,185.5c-0.5,0-1-0.2-1.4-0.6S15,184,15,183.3c0-0.6,0.1-1.2,0.4-1.7c0.2-0.5,0.6-0.9,0.9-1.3s0.8-0.6,1.2-0.8l0.7,0.6
			c-0.2,0.1-0.4,0.2-0.7,0.4c-0.3,0.2-0.5,0.4-0.7,0.7c-0.2,0.3-0.3,0.6-0.3,0.9c0.1-0.1,0.2-0.1,0.3-0.2c0.2,0,0.3-0.1,0.5-0.1
			c0.3,0,0.7,0.1,1,0.4s0.5,0.7,0.5,1.2c0,0.6-0.2,1.1-0.5,1.4S17.5,185.5,16.9,185.5z"/>
		<path class="st0" d="M23.3,182.4H20v-2.7h9.7v2.7h-3.3v11.1h-3.1V182.4z"/>
		<path class="st0" d="M31.4,179.7h8.8v2.7h-5.7v2.9h5.7v2.6h-5.7v2.9h5.7v2.7h-8.8V179.7z"/>
		<path class="st0" d="M42.5,179.7h5.6c0.8,0,1.5,0.2,2.1,0.5c0.6,0.3,1.1,0.8,1.5,1.4c0.4,0.6,0.5,1.4,0.5,2.3
			c0,0.9-0.2,1.6-0.5,2.1s-0.7,1-1.1,1.2c-0.4,0.3-0.8,0.4-1.2,0.5l3.4,5.7h-3.5l-3-5.5h-0.8v5.5h-3.1V179.7z M45.6,185.9H47
			c0.6,0,1.1-0.1,1.5-0.4c0.4-0.3,0.6-0.8,0.6-1.5s-0.2-1.2-0.6-1.5c-0.4-0.3-0.9-0.4-1.5-0.4h-1.4V185.9z"/>
		<path class="st0" d="M59.4,179.7h3.1l5.4,13.8h-3.3l-1-2.8h-5.3l-1,2.8H54L59.4,179.7z M59.3,188.1h3.3l-1.6-4.6h0L59.3,188.1z"/>
		<path class="st0" d="M69.1,179.7h5c0.9,0,1.7,0.2,2.4,0.5s1.3,0.8,1.7,1.4c0.4,0.6,0.6,1.4,0.6,2.4c0,1-0.2,1.8-0.6,2.4
			c-0.4,0.7-1,1.2-1.7,1.5c-0.7,0.3-1.5,0.5-2.4,0.5h-1.9v5.2h-3.1V179.7z M72.2,186h1c0.6,0,1.2-0.1,1.6-0.4s0.7-0.8,0.7-1.5
			c0-0.7-0.2-1.2-0.7-1.5c-0.4-0.3-1-0.4-1.6-0.4h-1V186z"/>
		<path class="st0" d="M80.6,179.7h8.8v2.7h-5.7v2.9h5.7v2.6h-5.7v2.9h5.7v2.7h-8.8V179.7z M83.9,179.1l-0.9-1.3l3.4-2.9l1.5,1.9
			L83.9,179.1z"/>
		<path class="st0" d="M99.8,179.7h3.1v8.5c0,1.1-0.2,2.1-0.7,3s-1.1,1.5-1.9,1.9c-0.8,0.5-1.8,0.7-3,0.7c-1.2,0-2.1-0.2-3-0.7
			c-0.8-0.5-1.5-1.1-1.9-1.9s-0.7-1.8-0.7-3v-8.5h3.1v8.3c0,1,0.2,1.7,0.7,2.2c0.5,0.5,1.1,0.7,1.8,0.7s1.4-0.3,1.8-0.7
			c0.4-0.5,0.7-1.2,0.7-2.2V179.7z"/>
		<path class="st0" d="M107.7,182.4h-3.3v-2.7h9.7v2.7h-3.3v11.1h-3.1V182.4z"/>
		<path class="st0" d="M115.9,179.7h3.1v13.8h-3.1V179.7z"/>
		<path class="st0" d="M128.7,190.7c0.6,0,1.2-0.1,1.8-0.3s0.9-0.4,1.2-0.6l1.3,2.6c-0.3,0.3-0.9,0.6-1.7,0.8s-1.7,0.4-2.8,0.4
			c-1,0-2-0.2-2.9-0.5c-0.9-0.4-1.7-0.9-2.4-1.5s-1.2-1.4-1.6-2.3c-0.4-0.9-0.6-1.8-0.6-2.8s0.2-2,0.6-2.8c0.4-0.9,0.9-1.6,1.6-2.3
			s1.5-1.2,2.4-1.5c0.9-0.4,1.9-0.5,2.9-0.5c1.1,0,2,0.1,2.8,0.4s1.3,0.6,1.7,0.8l-1.3,2.6c-0.3-0.2-0.7-0.4-1.2-0.6
			c-0.5-0.2-1.1-0.3-1.8-0.3c-0.9,0-1.7,0.2-2.4,0.6c-0.6,0.4-1.1,0.9-1.4,1.5c-0.3,0.6-0.5,1.3-0.5,2c0,0.7,0.2,1.4,0.5,2
			c0.3,0.6,0.8,1.1,1.4,1.5C127,190.6,127.8,190.7,128.7,190.7z"/>
		<path class="st0" d="M139.4,179.7h3.1l5.4,13.8h-3.3l-1-2.8h-5.3l-1,2.8H134L139.4,179.7z M139.3,188.1h3.3l-1.6-4.6h0
			L139.3,188.1z"/>
		<path class="st0" d="M159.1,179.7h3.1l5.4,13.8h-3.3l-1-2.8h-5.3l-1,2.8h-3.3L159.1,179.7z M159,188.1h3.3l-1.6-4.6h0L159,188.1z"
			/>
		<path class="st0" d="M176,190.7c0.6,0,1.2-0.1,1.8-0.3s0.9-0.4,1.2-0.6l1.3,2.6c-0.3,0.3-0.9,0.6-1.7,0.8s-1.7,0.4-2.8,0.4
			c-1,0-2-0.2-2.9-0.5c-0.9-0.4-1.7-0.9-2.4-1.5s-1.2-1.4-1.6-2.3c-0.4-0.9-0.6-1.8-0.6-2.8s0.2-2,0.6-2.8c0.4-0.9,0.9-1.6,1.6-2.3
			s1.5-1.2,2.4-1.5c0.9-0.4,1.9-0.5,2.9-0.5c1.1,0,2,0.1,2.8,0.4s1.3,0.6,1.7,0.8l-1.3,2.6c-0.3-0.2-0.7-0.4-1.2-0.6
			c-0.5-0.2-1.1-0.3-1.8-0.3c-0.9,0-1.7,0.2-2.4,0.6c-0.6,0.4-1.1,0.9-1.4,1.5c-0.3,0.6-0.5,1.3-0.5,2c0,0.7,0.2,1.4,0.5,2
			c0.3,0.6,0.8,1.1,1.4,1.5C174.3,190.6,175,190.7,176,190.7z"/>
		<path class="st0" d="M184.8,182.4h-3.3v-2.7h9.7v2.7h-3.3v11.1h-3.1V182.4z"/>
		<path class="st0" d="M200.9,179.7h3.1v8.5c0,1.1-0.2,2.1-0.7,3s-1.1,1.5-1.9,1.9c-0.8,0.5-1.8,0.7-3,0.7c-1.2,0-2.1-0.2-3-0.7
			c-0.8-0.5-1.5-1.1-1.9-1.9s-0.7-1.8-0.7-3v-8.5h3.1v8.3c0,1,0.2,1.7,0.7,2.2c0.5,0.5,1.1,0.7,1.8,0.7s1.4-0.3,1.8-0.7
			c0.4-0.5,0.7-1.2,0.7-2.2V179.7z"/>
		<path class="st0" d="M210.7,179.7h3.1l5.4,13.8h-3.3l-1-2.8h-5.3l-1,2.8h-3.3L210.7,179.7z M210.6,188.1h3.3l-1.6-4.6h0
			L210.6,188.1z"/>
		<path class="st0" d="M220.4,179.7h3.1v11.1h5v2.7h-8.1V179.7z"/>
		<path class="st0" d="M235.6,189.8c0-0.6,0.1-1.2,0.4-1.7c0.3-0.5,0.6-0.9,1.1-1.2c0.4-0.3,0.8-0.6,1.2-0.7
			c0.4-0.2,0.7-0.3,0.9-0.4c-0.2-0.1-0.4-0.3-0.7-0.6s-0.5-0.6-0.7-1c-0.2-0.4-0.3-0.9-0.3-1.4c0-0.6,0.2-1.2,0.5-1.7
			c0.3-0.5,0.8-0.9,1.5-1.3s1.4-0.5,2.4-0.5c1.4,0,2.4,0.3,3.1,1s1,1.5,1,2.5c0,0.4-0.1,0.9-0.3,1.2s-0.5,0.7-0.8,1
			s-0.6,0.6-0.9,0.8c-0.3,0.2-0.6,0.4-0.8,0.5l2,2.1c0.2-0.1,0.4-0.4,0.8-0.7c0.3-0.3,0.7-0.8,1-1.3l2,1.9c-0.2,0.3-0.4,0.6-0.8,1
			c-0.4,0.4-0.7,0.8-1,1l2.9,3.1h-3.9l-1.4-1.5c-0.5,0.4-1.2,0.8-1.9,1.2c-0.7,0.4-1.7,0.5-2.8,0.5c-0.8,0-1.6-0.2-2.3-0.5
			s-1.3-0.7-1.7-1.3C235.8,191.4,235.6,190.7,235.6,189.8z M240.7,187.7c-0.1,0.1-0.3,0.2-0.6,0.3c-0.3,0.2-0.5,0.4-0.7,0.6
			s-0.3,0.5-0.3,0.9c0,0.5,0.2,0.8,0.5,1c0.3,0.2,0.7,0.3,1.2,0.3c0.4,0,0.8-0.1,1.2-0.3s0.7-0.4,0.9-0.6L240.7,187.7z M241.9,181.8
			c-0.4,0-0.8,0.1-1,0.3s-0.3,0.5-0.3,0.8c0,0.3,0.1,0.5,0.2,0.8c0.2,0.3,0.3,0.5,0.5,0.7c0.2,0.2,0.3,0.3,0.3,0.3
			c0.1,0,0.3-0.1,0.6-0.3c0.3-0.2,0.5-0.4,0.7-0.6c0.2-0.3,0.3-0.6,0.3-0.9c0-0.3-0.1-0.6-0.3-0.8
			C242.6,181.9,242.3,181.8,241.9,181.8z"/>
		<path class="st0" d="M256.2,179.7h8.8v2.7h-5.7v2.9h5.7v2.6h-5.7v2.9h5.7v2.7h-8.8V179.7z"/>
		<path class="st0" d="M275.9,193.6l-5.4-10.6v10.6h-3.1v-13.8h4.2l5.4,10.5v-10.5h3.1v13.8H275.9z"/>
		<path class="st0" d="M282.6,179.7h8v2.7h-4.9v2.8h4.5v2.7h-4.5v5.6h-3.1V179.7z"/>
		<path class="st0" d="M292.1,186.6c0-1,0.2-1.9,0.5-2.8c0.4-0.9,0.9-1.6,1.5-2.3c0.6-0.6,1.4-1.2,2.3-1.5c0.9-0.4,1.8-0.5,2.8-0.5
			c1,0,2,0.2,2.8,0.5c0.9,0.4,1.6,0.9,2.3,1.5c0.6,0.6,1.1,1.4,1.5,2.3c0.4,0.9,0.5,1.8,0.5,2.8c0,1-0.2,2-0.5,2.8s-0.8,1.6-1.5,2.3
			c-0.6,0.7-1.4,1.2-2.2,1.5c-0.9,0.4-1.8,0.5-2.9,0.5c-1.4,0-2.6-0.3-3.7-1c-1.1-0.6-1.9-1.5-2.5-2.6
			C292.4,189.2,292.1,188,292.1,186.6z M295.3,186.6c0,0.8,0.2,1.5,0.5,2.2c0.3,0.6,0.8,1.2,1.4,1.5s1.3,0.6,2,0.6
			c0.8,0,1.4-0.2,2-0.6s1-0.9,1.4-1.5c0.3-0.6,0.5-1.4,0.5-2.2c0-0.8-0.2-1.5-0.5-2.2c-0.3-0.6-0.8-1.2-1.4-1.5
			c-0.6-0.4-1.3-0.6-2-0.6c-0.8,0-1.4,0.2-2,0.6c-0.6,0.4-1,0.9-1.4,1.5S295.3,185.8,295.3,186.6z"/>
		<path class="st0" d="M307.6,186.6c0-1,0.2-1.9,0.5-2.8c0.4-0.9,0.9-1.6,1.5-2.3c0.6-0.6,1.4-1.2,2.3-1.5c0.9-0.4,1.8-0.5,2.8-0.5
			c1,0,2,0.2,2.8,0.5c0.9,0.4,1.6,0.9,2.3,1.5c0.6,0.6,1.1,1.4,1.5,2.3c0.4,0.9,0.5,1.8,0.5,2.8c0,1.2-0.2,2.2-0.7,3.2
			c-0.4,1-1.1,1.8-1.9,2.4c-0.8,0.7-1.7,1.1-2.8,1.4c0.3,0.1,0.6,0.2,1,0.3c0.3,0.1,0.6,0.1,1,0.1c0.6,0,1.1-0.1,1.5-0.3
			c0.4-0.2,0.6-0.3,0.7-0.4l1.1,2c-0.2,0.3-0.6,0.7-1.1,1c-0.5,0.3-1.2,0.5-2.1,0.5c-0.5,0-1-0.1-1.3-0.2c-0.4-0.1-0.7-0.3-1-0.4
			c-0.3-0.2-0.6-0.3-1-0.4c-0.4-0.1-0.8-0.2-1.3-0.2c-0.4,0-0.8,0.1-1.1,0.2c-0.3,0.1-0.6,0.3-0.8,0.4s-0.3,0.2-0.3,0.2l-1.3-1.5
			c0.3-0.3,0.6-0.6,1-0.8s0.8-0.4,1.3-0.6c-1-0.3-1.9-0.7-2.7-1.4c-0.8-0.7-1.3-1.5-1.8-2.4S307.6,187.7,307.6,186.6z M310.8,186.6
			c0,0.8,0.2,1.5,0.5,2.2c0.3,0.6,0.8,1.2,1.4,1.5s1.3,0.6,2,0.6c0.8,0,1.4-0.2,2-0.6s1-0.9,1.4-1.5c0.3-0.6,0.5-1.4,0.5-2.2
			c0-0.8-0.2-1.5-0.5-2.2c-0.3-0.6-0.8-1.2-1.4-1.5c-0.6-0.4-1.3-0.6-2-0.6c-0.8,0-1.4,0.2-2,0.6c-0.6,0.4-1,0.9-1.4,1.5
			S310.8,185.8,310.8,186.6z"/>
		<path class="st0" d="M331.4,179.7h3.1v8.5c0,1.1-0.2,2.1-0.7,3s-1.1,1.5-1.9,1.9c-0.8,0.5-1.8,0.7-3,0.7c-1.2,0-2.1-0.2-3-0.7
			c-0.8-0.5-1.5-1.1-1.9-1.9s-0.7-1.8-0.7-3v-8.5h3.1v8.3c0,1,0.2,1.7,0.7,2.2c0.5,0.5,1.1,0.7,1.8,0.7s1.4-0.3,1.8-0.7
			c0.4-0.5,0.7-1.2,0.7-2.2V179.7z"/>
		<path class="st0" d="M336.7,179.7h8.8v2.7h-5.7v2.9h5.7v2.6h-5.7v2.9h5.7v2.7h-8.8V179.7z"/>
		<path class="st0" d="M352.9,179.5c0.9,0,1.6,0.1,2.2,0.3s1.2,0.4,1.5,0.6c0.4,0.2,0.6,0.3,0.7,0.4l-1.5,2.5
			c-0.1-0.1-0.3-0.2-0.6-0.4c-0.3-0.2-0.6-0.3-1-0.4c-0.4-0.1-0.7-0.2-1.1-0.2c-0.5,0-1,0.1-1.3,0.3c-0.3,0.2-0.5,0.5-0.5,0.9
			s0.2,0.7,0.6,1c0.4,0.3,1,0.6,1.9,0.9c0.7,0.3,1.3,0.6,1.9,0.9c0.6,0.4,1,0.9,1.4,1.4c0.3,0.6,0.5,1.2,0.5,2
			c0,0.9-0.2,1.7-0.7,2.3s-1.1,1-1.9,1.3c-0.8,0.3-1.6,0.4-2.5,0.4c-0.9,0-1.8-0.1-2.5-0.3c-0.7-0.2-1.4-0.4-1.8-0.7
			s-0.7-0.4-0.8-0.5l1.5-2.6c0.1,0.1,0.4,0.2,0.7,0.4c0.4,0.2,0.8,0.4,1.4,0.6c0.5,0.2,1,0.3,1.6,0.3c0.6,0,1.1-0.1,1.5-0.4
			c0.3-0.3,0.5-0.6,0.5-1c0-0.5-0.2-0.9-0.7-1.2c-0.5-0.3-1.1-0.7-2.1-1c-0.6-0.2-1.2-0.5-1.7-0.9s-1-0.8-1.3-1.3s-0.5-1.2-0.5-1.9
			s0.2-1.4,0.7-2c0.4-0.6,1-1,1.7-1.3C351.3,179.6,352.1,179.5,352.9,179.5z"/>
		<path class="st0" d="M372.4,190.7c0.6,0,1.2-0.1,1.8-0.3s0.9-0.4,1.2-0.6l1.3,2.6c-0.3,0.3-0.9,0.6-1.7,0.8s-1.7,0.4-2.8,0.4
			c-1,0-2-0.2-2.9-0.5c-0.9-0.4-1.7-0.9-2.4-1.5s-1.2-1.4-1.6-2.3c-0.4-0.9-0.6-1.8-0.6-2.8s0.2-2,0.6-2.8c0.4-0.9,0.9-1.6,1.6-2.3
			c0.7-0.6,1.5-1.2,2.4-1.5s1.9-0.5,2.9-0.5c1.1,0,2,0.1,2.8,0.4s1.3,0.6,1.7,0.8l-1.3,2.6c-0.3-0.2-0.7-0.4-1.2-0.6
			c-0.5-0.2-1.1-0.3-1.8-0.3c-1,0-1.7,0.2-2.4,0.6s-1.1,0.9-1.4,1.5s-0.5,1.3-0.5,2c0,0.7,0.2,1.4,0.5,2c0.3,0.6,0.8,1.1,1.4,1.5
			S371.5,190.7,372.4,190.7z"/>
		<path class="st0" d="M378.7,179.7h3.1v11.1h5v2.7h-8.1V179.7z"/>
		<path class="st0" d="M389.6,179.1l-0.9-1.3l3.4-2.9l1.5,1.9L389.6,179.1z M389,179.7h3.1v13.8H389V179.7z"/>
		<path class="st0" d="M403,193.6l-5.4-10.6v10.6h-3.1v-13.8h4.2l5.4,10.5v-10.5h3.1v13.8H403z"/>
		<path class="st0" d="M409.7,179.7h3.1v13.8h-3.1V179.7z"/>
		<path class="st0" d="M422.6,190.7c0.6,0,1.2-0.1,1.8-0.3c0.5-0.2,0.9-0.4,1.2-0.6l1.3,2.6c-0.3,0.3-0.9,0.6-1.7,0.8
			s-1.7,0.4-2.8,0.4c-1,0-2-0.2-2.9-0.5s-1.7-0.9-2.4-1.5c-0.7-0.6-1.2-1.4-1.6-2.3s-0.6-1.8-0.6-2.8s0.2-2,0.6-2.8s0.9-1.6,1.6-2.3
			s1.5-1.2,2.4-1.5c0.9-0.4,1.9-0.5,2.9-0.5c1.1,0,2,0.1,2.8,0.4s1.3,0.6,1.7,0.8l-1.3,2.6c-0.3-0.2-0.7-0.4-1.2-0.6
			c-0.5-0.2-1.1-0.3-1.8-0.3c-1,0-1.7,0.2-2.4,0.6c-0.6,0.4-1.1,0.9-1.4,1.5c-0.3,0.6-0.5,1.3-0.5,2c0,0.7,0.2,1.4,0.5,2
			c0.3,0.6,0.8,1.1,1.4,1.5C420.8,190.6,421.6,190.7,422.6,190.7z"/>
		<path class="st0" d="M428.3,186.6c0-1,0.2-1.9,0.5-2.8c0.4-0.9,0.9-1.6,1.5-2.3c0.6-0.6,1.4-1.2,2.3-1.5s1.8-0.5,2.8-0.5
			c1,0,2,0.2,2.8,0.5c0.9,0.4,1.6,0.9,2.3,1.5s1.1,1.4,1.5,2.3c0.4,0.9,0.5,1.8,0.5,2.8c0,1-0.2,2-0.5,2.8s-0.8,1.6-1.5,2.3
			c-0.6,0.7-1.4,1.2-2.2,1.5c-0.9,0.4-1.8,0.5-2.9,0.5c-1.4,0-2.6-0.3-3.7-1c-1.1-0.6-1.9-1.5-2.5-2.6S428.3,188,428.3,186.6z
			 M431.5,186.6c0,0.8,0.2,1.5,0.5,2.2c0.3,0.6,0.8,1.2,1.4,1.5s1.3,0.6,2,0.6c0.8,0,1.4-0.2,2-0.6s1-0.9,1.4-1.5
			c0.3-0.6,0.5-1.4,0.5-2.2c0-0.8-0.2-1.5-0.5-2.2c-0.3-0.6-0.8-1.2-1.4-1.5c-0.6-0.4-1.3-0.6-2-0.6c-0.8,0-1.4,0.2-2,0.6
			c-0.6,0.4-1,0.9-1.4,1.5S431.5,185.8,431.5,186.6z"/>
		<path class="st0" d="M449.3,179.5c0.9,0,1.6,0.1,2.2,0.3s1.2,0.4,1.5,0.6c0.4,0.2,0.6,0.3,0.7,0.4l-1.5,2.5
			c-0.1-0.1-0.3-0.2-0.6-0.4s-0.6-0.3-1-0.4c-0.4-0.1-0.7-0.2-1.1-0.2c-0.5,0-1,0.1-1.3,0.3c-0.3,0.2-0.5,0.5-0.5,0.9s0.2,0.7,0.6,1
			s1,0.6,1.9,0.9c0.7,0.3,1.3,0.6,1.9,0.9c0.6,0.4,1,0.9,1.4,1.4c0.3,0.6,0.5,1.2,0.5,2c0,0.9-0.2,1.7-0.7,2.3s-1.1,1-1.9,1.3
			s-1.6,0.4-2.5,0.4c-0.9,0-1.8-0.1-2.5-0.3c-0.7-0.2-1.4-0.4-1.8-0.7s-0.7-0.4-0.8-0.5l1.5-2.6c0.1,0.1,0.4,0.2,0.7,0.4
			c0.4,0.2,0.8,0.4,1.4,0.6c0.5,0.2,1,0.3,1.6,0.3c0.6,0,1.1-0.1,1.5-0.4c0.3-0.3,0.5-0.6,0.5-1c0-0.5-0.2-0.9-0.7-1.2
			c-0.5-0.3-1.1-0.7-2.1-1c-0.6-0.2-1.2-0.5-1.7-0.9c-0.5-0.3-1-0.8-1.3-1.3s-0.5-1.2-0.5-1.9s0.2-1.4,0.7-2c0.4-0.6,1-1,1.7-1.3
			C447.7,179.6,448.5,179.5,449.3,179.5z"/>
		<path class="st0" d="M461.5,179.7h8.8v2.7h-5.7v2.9h5.7v2.6h-5.7v2.9h5.7v2.7h-8.8V179.7z"/>
		<path class="st0" d="M481.2,193.6l-5.4-10.6v10.6h-3.1v-13.8h4.2l5.4,10.5v-10.5h3.1v13.8H481.2z"/>
		<path class="st0" d="M493.3,179.7h5.6c0.8,0,1.5,0.2,2.1,0.5c0.6,0.3,1.1,0.8,1.5,1.4c0.4,0.6,0.5,1.4,0.5,2.3
			c0,0.9-0.2,1.6-0.5,2.1s-0.7,1-1.1,1.2c-0.4,0.3-0.8,0.4-1.2,0.5l3.4,5.7h-3.5l-3-5.5h-0.8v5.5h-3.1V179.7z M496.4,185.9h1.4
			c0.6,0,1.1-0.1,1.5-0.4c0.4-0.3,0.6-0.8,0.6-1.5s-0.2-1.2-0.6-1.5c-0.4-0.3-0.9-0.4-1.5-0.4h-1.4V185.9z"/>
		<path class="st0" d="M505.7,179.7h8.8v2.7h-5.7v2.9h5.7v2.6h-5.7v2.9h5.7v2.7h-8.8V179.7z"/>
		<path class="st0" d="M524.9,179.7h3.1v8.5c0,1.1-0.2,2.1-0.7,3s-1.1,1.5-1.9,1.9c-0.8,0.5-1.8,0.7-3,0.7c-1.2,0-2.1-0.2-3-0.7
			c-0.8-0.5-1.5-1.1-1.9-1.9c-0.4-0.8-0.7-1.8-0.7-3v-8.5h3.1v8.3c0,1,0.2,1.7,0.7,2.2c0.5,0.5,1.1,0.7,1.8,0.7s1.4-0.3,1.8-0.7
			c0.4-0.5,0.7-1.2,0.7-2.2V179.7z"/>
		<path class="st0" d="M544.9,179.7v13.8h-3.1v-8.2l0.1-2.3l-0.5,2.6l-2.4,6.8h-3l-2.3-6.8l-0.5-2.6l0.1,2.3v8.2h-3.1v-13.8h4.3
			l2.8,9.3l0.2,1.1l0.2-1.1l2.8-9.3H544.9z"/>
		<path class="st0" d="M551.9,179.7h3.1l5.4,13.8h-3.3l-1-2.8h-5.3l-1,2.8h-3.3L551.9,179.7z M551.8,188.1h3.3l-1.6-4.6h0
			L551.8,188.1z"/>
		<path class="st0" d="M564.1,182.4h-3.3v-2.7h9.7v2.7h-3.3v11.1h-3.1V182.4z"/>
		<path class="st0" d="M571.7,186.6c0-1,0.2-1.9,0.5-2.8c0.4-0.9,0.9-1.6,1.5-2.3c0.6-0.6,1.4-1.2,2.3-1.5s1.8-0.5,2.8-0.5
			c1,0,2,0.2,2.8,0.5c0.9,0.4,1.6,0.9,2.3,1.5s1.1,1.4,1.5,2.3c0.4,0.9,0.5,1.8,0.5,2.8c0,1-0.2,2-0.5,2.8s-0.8,1.6-1.5,2.3
			c-0.6,0.7-1.4,1.2-2.2,1.5c-0.9,0.4-1.8,0.5-2.9,0.5c-1.4,0-2.6-0.3-3.7-1c-1.1-0.6-1.9-1.5-2.5-2.6S571.7,188,571.7,186.6z
			 M575,186.6c0,0.8,0.2,1.5,0.5,2.2c0.3,0.6,0.8,1.2,1.4,1.5s1.3,0.6,2,0.6c0.8,0,1.4-0.2,2-0.6s1-0.9,1.4-1.5
			c0.3-0.6,0.5-1.4,0.5-2.2c0-0.8-0.2-1.5-0.5-2.2c-0.3-0.6-0.8-1.2-1.4-1.5c-0.6-0.4-1.3-0.6-2-0.6c-0.8,0-1.4,0.2-2,0.6
			c-0.6,0.4-1,0.9-1.4,1.5S575,185.8,575,186.6z"/>
		<path class="st0" d="M587.8,179.7h3.1v11.1h5v2.7h-8.1V179.7z"/>
		<path class="st0" d="M597.5,186.6c0-1,0.2-1.9,0.5-2.8c0.4-0.9,0.9-1.6,1.5-2.3s1.4-1.2,2.3-1.5c0.9-0.4,1.8-0.5,2.8-0.5
			c1,0,2,0.2,2.8,0.5s1.6,0.9,2.3,1.5c0.6,0.6,1.1,1.4,1.5,2.3c0.4,0.9,0.5,1.8,0.5,2.8c0,1-0.2,2-0.5,2.8s-0.8,1.6-1.5,2.3
			c-0.6,0.7-1.4,1.2-2.2,1.5c-0.9,0.4-1.8,0.5-2.9,0.5c-1.4,0-2.6-0.3-3.7-1c-1.1-0.6-1.9-1.5-2.5-2.6
			C597.8,189.2,597.5,188,597.5,186.6z M600.7,186.6c0,0.8,0.2,1.5,0.5,2.2c0.3,0.6,0.8,1.2,1.4,1.5c0.6,0.4,1.3,0.6,2,0.6
			c0.8,0,1.4-0.2,2-0.6c0.6-0.4,1-0.9,1.4-1.5c0.3-0.6,0.5-1.4,0.5-2.2c0-0.8-0.2-1.5-0.5-2.2c-0.3-0.6-0.8-1.2-1.4-1.5
			c-0.6-0.4-1.3-0.6-2-0.6c-0.8,0-1.4,0.2-2,0.6c-0.6,0.4-1,0.9-1.4,1.5S600.7,185.8,600.7,186.6z"/>
		<path class="st0" d="M620,185.8h7v0.9c0,1-0.2,1.9-0.5,2.8c-0.3,0.9-0.8,1.6-1.4,2.3c-0.6,0.6-1.3,1.2-2.2,1.5
			c-0.9,0.4-1.8,0.5-2.8,0.5c-1.1,0-2-0.2-2.9-0.6s-1.6-0.9-2.2-1.5c-0.6-0.7-1.1-1.4-1.4-2.3c-0.3-0.9-0.5-1.8-0.5-2.8
			c0-1,0.2-1.9,0.5-2.8s0.8-1.6,1.4-2.3c0.6-0.7,1.4-1.2,2.2-1.5c0.9-0.4,1.8-0.5,2.9-0.5c1.2,0,2.1,0.2,2.9,0.5
			c0.8,0.3,1.4,0.7,1.9,1.2c0.5,0.5,0.9,1,1.2,1.5l-2.9,1.4c-0.3-0.4-0.7-0.8-1.2-1.2c-0.5-0.3-1.2-0.5-2-0.5c-0.8,0-1.4,0.2-2,0.6
			c-0.6,0.4-1,0.9-1.4,1.6s-0.5,1.4-0.5,2.1c0,0.8,0.2,1.5,0.5,2.1s0.8,1.2,1.4,1.5s1.3,0.6,2,0.6c1,0,1.8-0.3,2.4-0.8
			c0.6-0.5,1-1.2,1-2H620V185.8z"/>
		<path class="st0" d="M629.7,179.1l-0.9-1.3l3.4-2.9l1.5,1.9L629.7,179.1z M629,179.7h3.1v13.8H629V179.7z"/>
		<path class="st0" d="M639,179.7h3.1l5.4,13.8h-3.3l-1-2.8h-5.3l-1,2.8h-3.3L639,179.7z M638.9,188.1h3.3l-1.6-4.6h0L638.9,188.1z"
			/>
		<path class="st0" d="M650.5,179.5c0.5,0,1,0.2,1.4,0.6c0.4,0.4,0.5,0.9,0.5,1.7c0,0.6-0.1,1.2-0.4,1.7c-0.2,0.5-0.6,0.9-0.9,1.3
			c-0.4,0.4-0.8,0.6-1.2,0.8l-0.7-0.6c0.2-0.1,0.4-0.2,0.7-0.4c0.3-0.2,0.5-0.4,0.7-0.7c0.2-0.3,0.3-0.6,0.3-0.9
			c-0.1,0.1-0.2,0.1-0.3,0.2s-0.3,0.1-0.5,0.1c-0.3,0-0.7-0.1-1-0.4c-0.3-0.3-0.5-0.7-0.5-1.2c0-0.6,0.2-1.1,0.5-1.4
			S649.9,179.5,650.5,179.5z M655.2,179.5c0.5,0,1,0.2,1.4,0.6c0.4,0.4,0.5,0.9,0.5,1.7c0,0.6-0.1,1.2-0.4,1.7
			c-0.2,0.5-0.6,0.9-0.9,1.3s-0.8,0.6-1.2,0.8l-0.7-0.6c0.2-0.1,0.4-0.2,0.7-0.4c0.3-0.2,0.5-0.4,0.7-0.7c0.2-0.3,0.3-0.6,0.3-0.9
			c-0.1,0.1-0.2,0.1-0.3,0.2s-0.3,0.1-0.5,0.1c-0.3,0-0.7-0.1-1-0.4c-0.3-0.3-0.5-0.7-0.5-1.2c0-0.6,0.2-1.1,0.6-1.4
			C654.2,179.7,654.7,179.5,655.2,179.5z"/>
	</g>
</g>
</svg>
