<?xml version="1.0" encoding="utf-8"?>
<!-- Generator: Adobe Illustrator 19.1.0, SVG Export Plug-In . SVG Version: 6.00 Build 0)  -->
<svg version="1.1" id="Layer_1" xmlns="http://www.w3.org/2000/svg" xmlns:xlink="http://www.w3.org/1999/xlink" x="0px" y="0px"
	 viewBox="0 0 976 36.3" style="enable-background:new 0 0 976 36.3;" xml:space="preserve">
<style type="text/css">
	.st0{fill:#FFFFFF;}
</style>
<g>
	<path class="st0" d="M7.3,17.6c-0.8,0-1.5-0.3-2-0.9c-0.5-0.6-0.8-1.4-0.8-2.5c0-0.9,0.2-1.8,0.5-2.5c0.4-0.7,0.8-1.4,1.4-1.9
		C7,9.2,7.6,8.8,8.3,8.5l1.1,1c-0.3,0.1-0.6,0.3-1,0.6s-0.8,0.7-1.1,1.1c-0.3,0.4-0.5,0.9-0.5,1.3c0.1-0.1,0.3-0.2,0.5-0.3
		s0.5-0.1,0.7-0.1c0.5,0,1,0.2,1.5,0.6c0.4,0.4,0.7,1,0.7,1.9c0,0.9-0.3,1.6-0.8,2.1C8.8,17.3,8.1,17.6,7.3,17.6z M14.4,17.6
		c-0.8,0-1.5-0.3-2-0.9c-0.5-0.6-0.8-1.4-0.8-2.5c0-0.9,0.2-1.8,0.5-2.5c0.4-0.7,0.8-1.4,1.4-1.9c0.6-0.5,1.2-0.9,1.9-1.2l1.1,1
		c-0.3,0.1-0.6,0.3-1,0.6s-0.8,0.7-1.1,1.1c-0.3,0.4-0.5,0.9-0.5,1.3c0.1-0.1,0.3-0.2,0.5-0.3s0.5-0.1,0.7-0.1c0.5,0,1,0.2,1.5,0.6
		c0.4,0.4,0.7,1,0.7,1.9c0,0.9-0.3,1.6-0.8,2.1C15.9,17.3,15.2,17.6,14.4,17.6z"/>
	<path class="st0" d="M23.9,13H19v-4h14.5v4h-4.9v16.6h-4.6V13z"/>
	<path class="st0" d="M36,8.9h13.2v4h-8.6v4.3h8.5v3.9h-8.5v4.4h8.6v4H36V8.9z"/>
	<path class="st0" d="M52.7,8.9h8.4c1.2,0,2.3,0.3,3.2,0.8c0.9,0.5,1.7,1.2,2.2,2.2c0.5,0.9,0.8,2.1,0.8,3.4c0,1.3-0.2,2.4-0.7,3.2
		s-1,1.4-1.7,1.9c-0.7,0.4-1.3,0.7-1.8,0.7l5,8.6H63l-4.5-8.2h-1.2v8.2h-4.6V8.9z M57.3,18.2h2.1c0.8,0,1.6-0.2,2.2-0.6
		c0.6-0.4,0.9-1.1,0.9-2.2s-0.3-1.8-0.9-2.2c-0.6-0.4-1.4-0.6-2.2-0.6h-2.1V18.2z"/>
	<path class="st0" d="M77.9,8.9h4.6l8.1,20.7h-4.9l-1.5-4.2h-8l-1.6,4.2h-4.9L77.9,8.9z M77.8,21.4h4.9l-2.4-6.9h0L77.8,21.4z"/>
	<path class="st0" d="M92.4,8.9h7.5c1.3,0,2.5,0.2,3.6,0.7c1.1,0.5,1.9,1.2,2.6,2.1s0.9,2.1,0.9,3.5s-0.3,2.6-0.9,3.6
		s-1.5,1.7-2.6,2.2c-1.1,0.5-2.3,0.8-3.6,0.8H97v7.7h-4.6V8.9z M97,18.2h1.6c1,0,1.8-0.2,2.4-0.6c0.7-0.4,1-1.2,1-2.2
		c0-1-0.3-1.8-1-2.2c-0.7-0.4-1.5-0.6-2.4-0.6H97V18.2z"/>
	<path class="st0" d="M109.6,8.9h13.2v4h-8.6v4.3h8.5v3.9h-8.5v4.4h8.6v4h-13.2V8.9z M114.5,8l-1.4-1.9l5.1-4.4l2.2,2.8L114.5,8z"/>
	<path class="st0" d="M138.3,8.9h4.6v12.7c0,1.7-0.3,3.2-1,4.4c-0.7,1.3-1.6,2.2-2.9,2.9c-1.2,0.7-2.7,1-4.4,1s-3.2-0.3-4.5-1
		c-1.2-0.7-2.2-1.6-2.9-2.9s-1-2.7-1-4.4V8.9h4.6v12.4c0,1.4,0.3,2.5,1,3.3s1.6,1.1,2.7,1.1s2-0.4,2.7-1.1s1-1.8,1-3.3V8.9z"/>
	<path class="st0" d="M150.1,13h-4.9v-4h14.5v4h-4.9v16.6h-4.6V13z"/>
	<path class="st0" d="M162.4,8.9h4.6v20.7h-4.6V8.9z"/>
	<path class="st0" d="M181.6,25.4c1,0,1.8-0.1,2.6-0.4c0.8-0.3,1.4-0.6,1.8-0.8l2,3.9c-0.5,0.4-1.3,0.8-2.5,1.3
		c-1.2,0.4-2.6,0.6-4.2,0.6c-1.5,0-3-0.3-4.3-0.8s-2.5-1.3-3.5-2.2c-1-1-1.8-2.1-2.4-3.4c-0.6-1.3-0.9-2.7-0.9-4.2s0.3-2.9,0.9-4.2
		c0.6-1.3,1.4-2.4,2.4-3.4c1-1,2.2-1.7,3.5-2.3s2.8-0.8,4.3-0.8c1.6,0,3,0.2,4.2,0.6c1.2,0.4,2,0.9,2.5,1.3l-2,3.9
		c-0.4-0.3-1-0.5-1.8-0.8c-0.8-0.3-1.7-0.4-2.6-0.4c-1.4,0-2.6,0.3-3.6,0.9c-1,0.6-1.7,1.3-2.1,2.3s-0.7,1.9-0.7,3
		c0,1.1,0.2,2.1,0.7,3c0.5,0.9,1.2,1.7,2.1,2.3C179,25.1,180.2,25.4,181.6,25.4z"/>
	<path class="st0" d="M197.5,8.9h4.6l8.1,20.7h-4.9l-1.5-4.2h-8l-1.6,4.2h-4.9L197.5,8.9z M197.4,21.4h4.9l-2.4-6.9h0L197.4,21.4z"
		/>
	<path class="st0" d="M226.9,8.9h4.6l8.1,20.7h-4.9l-1.5-4.2h-8l-1.6,4.2h-4.9L226.9,8.9z M226.8,21.4h4.9l-2.4-6.9h0L226.8,21.4z"
		/>
	<path class="st0" d="M252.2,25.4c1,0,1.8-0.1,2.6-0.4c0.8-0.3,1.4-0.6,1.8-0.8l2,3.9c-0.5,0.4-1.3,0.8-2.5,1.3
		c-1.2,0.4-2.6,0.6-4.2,0.6c-1.5,0-3-0.3-4.3-0.8s-2.5-1.3-3.5-2.2c-1-1-1.8-2.1-2.4-3.4c-0.6-1.3-0.9-2.7-0.9-4.2s0.3-2.9,0.9-4.2
		c0.6-1.3,1.4-2.4,2.4-3.4c1-1,2.2-1.7,3.5-2.3s2.8-0.8,4.3-0.8c1.6,0,3,0.2,4.2,0.6c1.2,0.4,2,0.9,2.5,1.3l-2,3.9
		c-0.4-0.3-1-0.5-1.8-0.8c-0.8-0.3-1.7-0.4-2.6-0.4c-1.4,0-2.6,0.3-3.6,0.9c-1,0.6-1.7,1.3-2.1,2.3s-0.7,1.9-0.7,3
		c0,1.1,0.2,2.1,0.7,3c0.5,0.9,1.2,1.7,2.1,2.3C249.6,25.1,250.8,25.4,252.2,25.4z"/>
	<path class="st0" d="M265.3,13h-4.9v-4h14.5v4H270v16.6h-4.6V13z"/>
	<path class="st0" d="M289.4,8.9h4.6v12.7c0,1.7-0.3,3.2-1,4.4c-0.7,1.3-1.6,2.2-2.9,2.9c-1.2,0.7-2.7,1-4.4,1s-3.2-0.3-4.5-1
		c-1.2-0.7-2.2-1.6-2.9-2.9s-1-2.7-1-4.4V8.9h4.6v12.4c0,1.4,0.3,2.5,1,3.3s1.6,1.1,2.7,1.1s2-0.4,2.7-1.1s1-1.8,1-3.3V8.9z"/>
	<path class="st0" d="M304,8.9h4.6l8.1,20.7h-4.9l-1.5-4.2h-8l-1.6,4.2h-4.9L304,8.9z M303.9,21.4h4.9l-2.4-6.9h0L303.9,21.4z"/>
	<path class="st0" d="M318.6,8.9h4.6v16.6h7.5v4h-12.1V8.9z"/>
	<path class="st0" d="M341.3,24c0-1,0.2-1.8,0.7-2.5c0.4-0.7,1-1.3,1.6-1.8c0.6-0.5,1.2-0.8,1.8-1.1c0.6-0.3,1-0.4,1.4-0.5
		c-0.3-0.2-0.7-0.5-1-0.9c-0.4-0.4-0.7-0.9-1-1.5c-0.3-0.6-0.4-1.3-0.4-2.1c0-0.9,0.3-1.7,0.8-2.5c0.5-0.8,1.2-1.4,2.2-1.9
		c1-0.5,2.2-0.7,3.6-0.7c2,0,3.6,0.5,4.6,1.5c1,1,1.5,2.2,1.5,3.7c0,0.7-0.2,1.3-0.5,1.8c-0.3,0.6-0.7,1.1-1.1,1.5s-0.9,0.8-1.4,1.1
		c-0.5,0.3-0.9,0.6-1.3,0.7l3,3.2c0.3-0.2,0.6-0.6,1.1-1.1s1-1.2,1.6-1.9l3.1,2.8c-0.3,0.4-0.7,0.9-1.2,1.5c-0.5,0.6-1,1.1-1.6,1.6
		l4.4,4.6h-5.8l-2.1-2.2c-0.8,0.6-1.8,1.2-2.9,1.8c-1.1,0.5-2.5,0.8-4.1,0.8c-1.2,0-2.3-0.2-3.4-0.7s-1.9-1.1-2.5-2
		S341.3,25.3,341.3,24z M349,20.9c-0.2,0.1-0.5,0.3-0.9,0.5s-0.7,0.5-1.1,0.9c-0.3,0.4-0.5,0.8-0.5,1.3c0,0.7,0.2,1.2,0.7,1.6
		s1.1,0.5,1.8,0.5c0.6,0,1.3-0.2,1.8-0.5s1-0.6,1.4-0.9L349,20.9z M350.8,12c-0.6,0-1.1,0.2-1.5,0.5c-0.3,0.3-0.5,0.7-0.5,1.2
		c0,0.4,0.1,0.8,0.3,1.2c0.2,0.4,0.5,0.8,0.7,1c0.3,0.3,0.4,0.5,0.5,0.5c0.2-0.1,0.4-0.2,0.8-0.5c0.4-0.2,0.7-0.6,1.1-0.9
		c0.3-0.4,0.5-0.8,0.5-1.4c0-0.5-0.2-0.9-0.5-1.2C351.8,12.2,351.4,12,350.8,12z"/>
	<path class="st0" d="M372.1,8.9h13.2v4h-8.6v4.3h8.5v3.9h-8.5v4.4h8.6v4h-13.2V8.9z"/>
	<path class="st0" d="M401.6,29.6l-8.1-15.8v15.8h-4.6V8.9h6.3l8.1,15.7V8.9h4.6v20.7H401.6z"/>
	<path class="st0" d="M411.6,8.9h11.9v4h-7.3v4.3h6.7v4h-6.7v8.3h-4.6V8.9z"/>
	<path class="st0" d="M425.8,19.2c0-1.5,0.3-2.9,0.8-4.2c0.5-1.3,1.3-2.4,2.2-3.4c1-1,2.1-1.7,3.4-2.3c1.3-0.5,2.7-0.8,4.2-0.8
		c1.5,0,2.9,0.3,4.2,0.8c1.3,0.5,2.4,1.3,3.4,2.3c1,1,1.7,2.1,2.2,3.4c0.5,1.3,0.8,2.7,0.8,4.2c0,1.5-0.3,2.9-0.8,4.2
		c-0.5,1.3-1.2,2.4-2.2,3.4s-2.1,1.7-3.4,2.3c-1.3,0.5-2.7,0.8-4.3,0.8c-2.1,0-4-0.5-5.6-1.4c-1.6-1-2.8-2.2-3.7-3.9
		C426.3,23.1,425.8,21.3,425.8,19.2z M430.6,19.2c0,1.2,0.2,2.3,0.7,3.2s1.2,1.7,2,2.3c0.9,0.6,1.9,0.9,3,0.9c1.1,0,2.2-0.3,3-0.9
		c0.9-0.6,1.6-1.3,2-2.3s0.7-2,0.7-3.2c0-1.2-0.2-2.3-0.7-3.2c-0.5-1-1.2-1.7-2-2.3c-0.9-0.6-1.9-0.9-3-0.9c-1.1,0-2.1,0.3-3,0.9
		c-0.9,0.6-1.6,1.3-2,2.3C430.9,17,430.6,18.1,430.6,19.2z"/>
	<path class="st0" d="M449,19.2c0-1.5,0.3-2.9,0.8-4.2c0.5-1.3,1.3-2.4,2.2-3.4c1-1,2.1-1.7,3.4-2.3c1.3-0.5,2.7-0.8,4.2-0.8
		c1.5,0,2.9,0.3,4.2,0.8c1.3,0.5,2.4,1.3,3.4,2.3c1,1,1.7,2.1,2.2,3.4c0.5,1.3,0.8,2.7,0.8,4.2c0,1.7-0.3,3.3-1,4.7
		c-0.7,1.4-1.6,2.7-2.8,3.6c-1.2,1-2.6,1.7-4.2,2c0.5,0.1,1,0.3,1.4,0.4c0.5,0.1,1,0.2,1.5,0.2c0.9,0,1.6-0.1,2.2-0.4
		c0.6-0.3,1-0.5,1-0.5l1.6,3c-0.3,0.5-0.9,1-1.7,1.5c-0.8,0.5-1.8,0.7-3.1,0.7c-0.8,0-1.4-0.1-2-0.3c-0.5-0.2-1-0.4-1.5-0.6
		c-0.5-0.2-1-0.4-1.5-0.6c-0.5-0.2-1.2-0.3-2-0.3c-0.6,0-1.2,0.1-1.7,0.3c-0.5,0.2-0.9,0.4-1.2,0.6c-0.3,0.2-0.4,0.3-0.4,0.4
		l-1.9-2.2c0.4-0.5,0.9-0.9,1.5-1.3c0.6-0.4,1.3-0.7,2-0.9c-1.5-0.4-2.9-1.1-4-2.1c-1.1-1-2-2.2-2.6-3.6
		C449.3,22.5,449,20.9,449,19.2z M453.8,19.2c0,1.2,0.2,2.3,0.7,3.2s1.2,1.7,2,2.3c0.9,0.6,1.9,0.9,3,0.9c1.1,0,2.2-0.3,3-0.9
		c0.9-0.6,1.6-1.3,2-2.3s0.7-2,0.7-3.2c0-1.2-0.2-2.3-0.7-3.2c-0.5-1-1.2-1.7-2-2.3c-0.9-0.6-1.9-0.9-3-0.9c-1.1,0-2.1,0.3-3,0.9
		c-0.9,0.6-1.6,1.3-2,2.3C454.1,17,453.8,18.1,453.8,19.2z"/>
	<path class="st0" d="M484.5,8.9h4.6v12.7c0,1.7-0.3,3.2-1,4.4s-1.6,2.2-2.9,2.9c-1.2,0.7-2.7,1-4.4,1s-3.2-0.3-4.5-1
		c-1.2-0.7-2.2-1.6-2.9-2.9s-1-2.7-1-4.4V8.9h4.6v12.4c0,1.4,0.3,2.5,1,3.3c0.7,0.7,1.6,1.1,2.7,1.1c1.1,0,2-0.4,2.7-1.1
		c0.7-0.7,1-1.8,1-3.3V8.9z"/>
	<path class="st0" d="M492.5,8.9h13.2v4h-8.6v4.3h8.5v3.9h-8.5v4.4h8.6v4h-13.2V8.9z"/>
	<path class="st0" d="M516.7,8.5c1.3,0,2.4,0.1,3.4,0.4c1,0.3,1.7,0.6,2.3,0.9c0.6,0.3,0.9,0.5,1.1,0.6l-2.2,3.7
		c-0.2-0.1-0.5-0.3-0.9-0.6c-0.4-0.2-0.9-0.4-1.4-0.6c-0.5-0.2-1.1-0.3-1.7-0.3c-0.8,0-1.5,0.1-2,0.4c-0.5,0.3-0.8,0.7-0.8,1.3
		s0.3,1.1,0.9,1.5c0.6,0.4,1.5,0.9,2.8,1.3c1,0.4,2,0.8,2.8,1.4c0.9,0.6,1.5,1.3,2.1,2.1c0.5,0.8,0.8,1.8,0.8,3
		c0,1.4-0.4,2.5-1.1,3.4c-0.7,0.9-1.7,1.6-2.9,2s-2.4,0.7-3.8,0.7c-1.4,0-2.7-0.2-3.8-0.5s-2-0.7-2.7-1c-0.7-0.4-1.1-0.6-1.2-0.8
		l2.3-3.9c0.2,0.1,0.5,0.3,1.1,0.6c0.6,0.3,1.3,0.6,2,0.9c0.8,0.3,1.6,0.4,2.3,0.4c1,0,1.7-0.2,2.2-0.6c0.5-0.4,0.7-0.9,0.7-1.5
		c0-0.7-0.3-1.3-1-1.8c-0.7-0.5-1.7-1-3.1-1.5c-0.9-0.4-1.8-0.8-2.5-1.3s-1.4-1.2-1.9-1.9c-0.5-0.8-0.7-1.8-0.7-2.9
		c0-1.2,0.3-2.2,1-3s1.5-1.5,2.6-2C514.3,8.8,515.5,8.5,516.7,8.5z"/>
	<path class="st0" d="M545.9,25.4c1,0,1.8-0.1,2.6-0.4c0.8-0.3,1.4-0.6,1.8-0.8l2,3.9c-0.5,0.4-1.3,0.8-2.5,1.3
		c-1.2,0.4-2.6,0.6-4.2,0.6c-1.5,0-3-0.3-4.3-0.8c-1.3-0.5-2.5-1.3-3.5-2.2c-1-1-1.8-2.1-2.4-3.4c-0.6-1.3-0.9-2.7-0.9-4.2
		s0.3-2.9,0.9-4.2c0.6-1.3,1.4-2.4,2.4-3.4c1-1,2.2-1.7,3.5-2.3c1.3-0.5,2.8-0.8,4.3-0.8c1.6,0,3,0.2,4.2,0.6c1.2,0.4,2,0.9,2.5,1.3
		l-2,3.9c-0.4-0.3-1-0.5-1.8-0.8c-0.8-0.3-1.7-0.4-2.6-0.4c-1.4,0-2.6,0.3-3.6,0.9s-1.7,1.3-2.1,2.3s-0.7,1.9-0.7,3
		c0,1.1,0.2,2.1,0.7,3c0.5,0.9,1.2,1.7,2.1,2.3S544.5,25.4,545.9,25.4z"/>
	<path class="st0" d="M555.3,8.9h4.6v16.6h7.5v4h-12.1V8.9z"/>
	<path class="st0" d="M571.6,8l-1.4-1.9l5.1-4.4l2.2,2.8L571.6,8z M570.6,8.9h4.6v20.7h-4.6V8.9z"/>
	<path class="st0" d="M591.6,29.6l-8.1-15.8v15.8h-4.6V8.9h6.3l8.1,15.7V8.9h4.6v20.7H591.6z"/>
	<path class="st0" d="M601.7,8.9h4.6v20.7h-4.6V8.9z"/>
	<path class="st0" d="M620.9,25.4c1,0,1.8-0.1,2.6-0.4c0.8-0.3,1.4-0.6,1.8-0.8l2,3.9c-0.5,0.4-1.3,0.8-2.5,1.3
		c-1.2,0.4-2.6,0.6-4.2,0.6c-1.5,0-3-0.3-4.3-0.8s-2.5-1.3-3.5-2.2c-1-1-1.8-2.1-2.4-3.4c-0.6-1.3-0.9-2.7-0.9-4.2s0.3-2.9,0.9-4.2
		c0.6-1.3,1.4-2.4,2.4-3.4c1-1,2.2-1.7,3.5-2.3s2.8-0.8,4.3-0.8c1.6,0,3,0.2,4.2,0.6c1.2,0.4,2,0.9,2.5,1.3l-2,3.9
		c-0.4-0.3-1-0.5-1.8-0.8s-1.7-0.4-2.6-0.4c-1.4,0-2.6,0.3-3.6,0.9c-0.9,0.6-1.7,1.3-2.1,2.3c-0.5,0.9-0.7,1.9-0.7,3
		c0,1.1,0.2,2.1,0.7,3c0.5,0.9,1.2,1.7,2.1,2.3C618.3,25.1,619.4,25.4,620.9,25.4z"/>
	<path class="st0" d="M629.4,19.2c0-1.5,0.3-2.9,0.8-4.2s1.3-2.4,2.2-3.4c1-1,2.1-1.7,3.4-2.3s2.7-0.8,4.2-0.8
		c1.5,0,2.9,0.3,4.2,0.8c1.3,0.5,2.4,1.3,3.4,2.3c1,1,1.7,2.1,2.2,3.4c0.5,1.3,0.8,2.7,0.8,4.2c0,1.5-0.3,2.9-0.8,4.2
		c-0.5,1.3-1.2,2.4-2.2,3.4c-0.9,1-2.1,1.7-3.4,2.3c-1.3,0.5-2.7,0.8-4.3,0.8c-2.1,0-4-0.5-5.6-1.4c-1.6-1-2.8-2.2-3.7-3.9
		C629.9,23.1,629.4,21.3,629.4,19.2z M634.2,19.2c0,1.2,0.2,2.3,0.7,3.2s1.2,1.7,2,2.3c0.9,0.6,1.9,0.9,3,0.9c1.1,0,2.2-0.3,3-0.9
		c0.9-0.6,1.6-1.3,2-2.3c0.5-1,0.7-2,0.7-3.2c0-1.2-0.2-2.3-0.7-3.2c-0.5-1-1.2-1.7-2-2.3c-0.9-0.6-1.9-0.9-3-0.9
		c-1.1,0-2.1,0.3-3,0.9c-0.9,0.6-1.6,1.3-2,2.3C634.5,17,634.2,18.1,634.2,19.2z"/>
	<path class="st0" d="M660.8,8.5c1.3,0,2.4,0.1,3.4,0.4c1,0.3,1.7,0.6,2.3,0.9c0.6,0.3,0.9,0.5,1.1,0.6l-2.2,3.7
		c-0.2-0.1-0.5-0.3-0.9-0.6c-0.4-0.2-0.9-0.4-1.4-0.6c-0.5-0.2-1.1-0.3-1.7-0.3c-0.8,0-1.5,0.1-2,0.4c-0.5,0.3-0.8,0.7-0.8,1.3
		s0.3,1.1,0.9,1.5c0.6,0.4,1.5,0.9,2.8,1.3c1,0.4,2,0.8,2.8,1.4c0.9,0.6,1.5,1.3,2.1,2.1c0.5,0.8,0.8,1.8,0.8,3
		c0,1.4-0.4,2.5-1.1,3.4c-0.7,0.9-1.7,1.6-2.9,2s-2.4,0.7-3.8,0.7c-1.4,0-2.7-0.2-3.8-0.5s-2-0.7-2.7-1c-0.7-0.4-1.1-0.6-1.2-0.8
		l2.3-3.9c0.2,0.1,0.5,0.3,1.1,0.6c0.6,0.3,1.3,0.6,2,0.9c0.8,0.3,1.6,0.4,2.3,0.4c1,0,1.7-0.2,2.2-0.6c0.5-0.4,0.7-0.9,0.7-1.5
		c0-0.7-0.3-1.3-1-1.8c-0.7-0.5-1.7-1-3.1-1.5c-0.9-0.4-1.8-0.8-2.5-1.3s-1.4-1.2-1.9-1.9c-0.5-0.8-0.7-1.8-0.7-2.9
		c0-1.2,0.3-2.2,1-3s1.5-1.5,2.6-2C658.5,8.8,659.6,8.5,660.8,8.5z"/>
	<path class="st0" d="M679.1,8.9h13.2v4h-8.6v4.3h8.5v3.9h-8.5v4.4h8.6v4h-13.2V8.9z"/>
	<path class="st0" d="M708.6,29.6l-8.1-15.8v15.8h-4.6V8.9h6.3l8.1,15.7V8.9h4.6v20.7H708.6z"/>
	<path class="st0" d="M726.6,8.9h8.4c1.2,0,2.3,0.3,3.2,0.8s1.7,1.2,2.2,2.2c0.5,0.9,0.8,2.1,0.8,3.4c0,1.3-0.2,2.4-0.7,3.2
		c-0.5,0.8-1,1.4-1.7,1.9c-0.7,0.4-1.3,0.7-1.8,0.7l5,8.6h-5.2l-4.5-8.2h-1.2v8.2h-4.6V8.9z M731.3,18.2h2.1c0.8,0,1.6-0.2,2.2-0.6
		c0.6-0.4,0.9-1.1,0.9-2.2s-0.3-1.8-0.9-2.2s-1.4-0.6-2.2-0.6h-2.1V18.2z"/>
	<path class="st0" d="M745.2,8.9h13.2v4h-8.6v4.3h8.5v3.9h-8.5v4.4h8.6v4h-13.2V8.9z"/>
	<path class="st0" d="M773.9,8.9h4.6v12.7c0,1.7-0.3,3.2-1,4.4c-0.7,1.3-1.6,2.2-2.9,2.9c-1.2,0.7-2.7,1-4.4,1s-3.2-0.3-4.5-1
		c-1.2-0.7-2.2-1.6-2.9-2.9s-1-2.7-1-4.4V8.9h4.6v12.4c0,1.4,0.3,2.5,1,3.3c0.7,0.7,1.6,1.1,2.7,1.1c1.1,0,2-0.4,2.7-1.1
		c0.7-0.7,1-1.8,1-3.3V8.9z"/>
	<path class="st0" d="M803.8,8.9v20.7h-4.6V17.3l0.2-3.4l-0.8,3.9L795.1,28h-4.5L787,17.8l-0.8-3.9l0.2,3.4v12.3h-4.6V8.9h6.5
		l4.2,13.9l0.3,1.6l0.3-1.6l4.2-13.9H803.8z"/>
	<path class="st0" d="M814.2,8.9h4.6l8.1,20.7H822l-1.5-4.2h-8l-1.6,4.2H806L814.2,8.9z M814,21.4h4.9l-2.4-6.9h0L814,21.4z"/>
	<path class="st0" d="M832.5,13h-4.9v-4H842v4h-4.9v16.6h-4.6V13z"/>
	<path class="st0" d="M843.9,19.2c0-1.5,0.3-2.9,0.8-4.2s1.3-2.4,2.2-3.4c1-1,2.1-1.7,3.4-2.3c1.3-0.5,2.7-0.8,4.2-0.8
		c1.5,0,2.9,0.3,4.2,0.8c1.3,0.5,2.4,1.3,3.4,2.3c1,1,1.7,2.1,2.2,3.4s0.8,2.7,0.8,4.2c0,1.5-0.3,2.9-0.8,4.2
		c-0.5,1.3-1.2,2.4-2.2,3.4c-0.9,1-2.1,1.7-3.4,2.3c-1.3,0.5-2.7,0.8-4.3,0.8c-2.1,0-4-0.5-5.6-1.4c-1.6-1-2.8-2.2-3.7-3.9
		C844.3,23.1,843.9,21.3,843.9,19.2z M848.7,19.2c0,1.2,0.2,2.3,0.7,3.2c0.5,1,1.2,1.7,2,2.3c0.9,0.6,1.9,0.9,3,0.9
		c1.1,0,2.2-0.3,3-0.9c0.9-0.6,1.6-1.3,2-2.3c0.5-1,0.7-2,0.7-3.2c0-1.2-0.2-2.3-0.7-3.2c-0.5-1-1.2-1.7-2-2.3
		c-0.9-0.6-1.9-0.9-3-0.9c-1.1,0-2.1,0.3-3,0.9c-0.9,0.6-1.6,1.3-2,2.3C848.9,17,848.7,18.1,848.7,19.2z"/>
	<path class="st0" d="M867.9,8.9h4.6v16.6h7.5v4h-12.1V8.9z"/>
	<path class="st0" d="M882.4,19.2c0-1.5,0.3-2.9,0.8-4.2s1.3-2.4,2.2-3.4c1-1,2.1-1.7,3.4-2.3c1.3-0.5,2.7-0.8,4.2-0.8
		c1.5,0,2.9,0.3,4.2,0.8c1.3,0.5,2.4,1.3,3.4,2.3c1,1,1.7,2.1,2.2,3.4s0.8,2.7,0.8,4.2c0,1.5-0.3,2.9-0.8,4.2
		c-0.5,1.3-1.2,2.4-2.2,3.4c-0.9,1-2.1,1.7-3.4,2.3c-1.3,0.5-2.7,0.8-4.3,0.8c-2.1,0-4-0.5-5.6-1.4c-1.6-1-2.8-2.2-3.7-3.9
		C882.9,23.1,882.4,21.3,882.4,19.2z M887.2,19.2c0,1.2,0.2,2.3,0.7,3.2c0.5,1,1.2,1.7,2,2.3c0.9,0.6,1.9,0.9,3,0.9
		c1.1,0,2.2-0.3,3-0.9c0.9-0.6,1.6-1.3,2-2.3c0.5-1,0.7-2,0.7-3.2c0-1.2-0.2-2.3-0.7-3.2c-0.5-1-1.2-1.7-2-2.3
		c-0.9-0.6-1.9-0.9-3-0.9c-1.1,0-2.1,0.3-3,0.9c-0.9,0.6-1.6,1.3-2,2.3C887.5,17,887.2,18.1,887.2,19.2z"/>
	<path class="st0" d="M916.1,18.1h10.5v1.3c0,1.5-0.3,2.9-0.8,4.1s-1.2,2.4-2.1,3.4s-2,1.7-3.3,2.3c-1.3,0.5-2.7,0.8-4.2,0.8
		c-1.6,0-3-0.3-4.3-0.8c-1.3-0.6-2.4-1.3-3.4-2.3s-1.7-2.1-2.2-3.4c-0.5-1.3-0.8-2.7-0.8-4.2s0.3-2.9,0.8-4.2
		c0.5-1.3,1.2-2.4,2.2-3.4c0.9-1,2.1-1.7,3.4-2.3c1.3-0.5,2.7-0.8,4.3-0.8c1.7,0,3.2,0.2,4.4,0.7s2.2,1.1,2.9,1.8
		c0.8,0.7,1.3,1.4,1.8,2.2l-4.4,2.1c-0.4-0.7-1-1.2-1.8-1.7c-0.7-0.5-1.7-0.7-3-0.7c-1.1,0-2.1,0.3-3,0.9c-0.9,0.6-1.6,1.4-2,2.3
		c-0.5,1-0.7,2-0.7,3.2c0,1.2,0.2,2.2,0.7,3.2c0.5,1,1.2,1.7,2,2.3c0.9,0.6,1.9,0.9,3,0.9c1.5,0,2.7-0.4,3.6-1.1
		c0.9-0.8,1.4-1.7,1.5-2.9h-5.3V18.1z"/>
	<path class="st0" d="M930.5,8l-1.4-1.9l5.1-4.4l2.2,2.8L930.5,8z M929.5,8.9h4.6v20.7h-4.6V8.9z"/>
	<path class="st0" d="M944.5,8.9h4.6l8.1,20.7h-4.9l-1.5-4.2h-8l-1.5,4.2h-4.9L944.5,8.9z M944.3,21.4h4.9l-2.4-6.9h0L944.3,21.4z"
		/>
	<path class="st0" d="M961.6,8.5c0.8,0,1.5,0.3,2,0.9c0.5,0.6,0.8,1.4,0.8,2.5c0,1-0.2,1.8-0.5,2.5s-0.8,1.4-1.4,1.9
		c-0.6,0.5-1.2,0.9-1.9,1.2l-1.1-1c0.3-0.1,0.6-0.3,1-0.6c0.4-0.3,0.8-0.7,1.1-1.1s0.5-0.9,0.5-1.3c-0.1,0.1-0.3,0.2-0.5,0.3
		c-0.2,0.1-0.5,0.1-0.7,0.1c-0.5,0-1-0.2-1.5-0.6c-0.4-0.4-0.7-1-0.7-1.9c0-0.9,0.3-1.6,0.8-2.1C960.1,8.8,960.8,8.5,961.6,8.5z
		 M968.7,8.5c0.8,0,1.5,0.3,2,0.9c0.5,0.6,0.8,1.4,0.8,2.5c0,1-0.2,1.8-0.5,2.5s-0.8,1.4-1.4,1.9c-0.6,0.5-1.2,0.9-1.9,1.2l-1.1-1
		c0.3-0.1,0.6-0.3,1-0.6c0.4-0.3,0.8-0.7,1.1-1.1s0.5-0.9,0.5-1.3c-0.1,0.1-0.3,0.2-0.5,0.3c-0.2,0.1-0.5,0.1-0.7,0.1
		c-0.5,0-1-0.2-1.5-0.6c-0.4-0.4-0.7-1-0.7-1.9c0-0.9,0.3-1.6,0.8-2.1C967.2,8.8,967.9,8.5,968.7,8.5z"/>
</g>
</svg>
