<?xml version="1.0" encoding="utf-8"?>
<!-- Generator: Adobe Illustrator 19.1.0, SVG Export Plug-In . SVG Version: 6.00 Build 0)  -->
<svg version="1.1" id="Layer_1" xmlns="http://www.w3.org/2000/svg" xmlns:xlink="http://www.w3.org/1999/xlink" x="0px" y="0px"
	 viewBox="0 0 976 239" style="enable-background:new 0 0 976 239;" xml:space="preserve">
<style type="text/css">
	.st0{fill:#134C99;}
</style>
<g>
	<path class="st0" d="M314.3,10.8c-3,0.2-5.5,1.2-7.3,2.9c-1.8,1.7-3.4,4.8-4.7,9.3l-17.7,61.9l-0.8,2.7c-0.5,1.5-0.8,2.7-1,3.6
		c-0.2,0.9-0.3,1.7-0.3,2.5c0,4.4,3.2,6.6,9.6,6.6h2.2l-0.8,2.5h-41.4v-2.5c2.5-0.5,4.4-1.3,5.7-2.2c1.3-0.9,2.4-2.2,3.2-3.8
		c0.8-1.6,1.6-4,2.5-7.2l18.2-63c0.1-0.2,0.3-1,0.7-2.5c0.4-1.5,0.6-3,0.6-4.3c0-2.7-1-4.4-3.1-5.2c-2.1-0.8-4.7-1.3-8-1.3l0.7-2.5
		H315L314.3,10.8z"/>
	<path class="st0" d="M359,10.8c-3,0.2-5.5,1.2-7.3,2.9c-1.8,1.7-3.4,4.8-4.7,9.3l-17.7,61.9l-0.8,2.7c-0.5,1.5-0.8,2.7-1,3.6
		c-0.2,0.9-0.3,1.7-0.3,2.5c0,4.4,3.2,6.6,9.6,6.6h2.2l-0.8,2.5h-41.4v-2.5c2.5-0.5,4.4-1.3,5.7-2.2c1.3-0.9,2.4-2.2,3.2-3.8
		c0.8-1.6,1.6-4,2.5-7.2l18.2-63c0.1-0.2,0.3-1,0.7-2.5c0.4-1.5,0.6-3,0.6-4.3c0-2.7-1-4.4-3.1-5.2c-2.1-0.8-4.7-1.3-8-1.3l0.7-2.5
		h42.4L359,10.8z"/>
	<path class="st0" d="M418.7,6.2c3.7,0,6.7,0.2,9.1,0.7c2.4,0.5,5.1,1.1,8.1,2.1c0.3,0.1,1.3,0.4,3.2,0.9c1.8,0.5,3.8,0.7,5.8,0.7
		c1.6,0,3.1-0.4,4.5-1.1c1.3-0.7,2.4-1.8,3.2-3.2h2.9l-7,30.8h-2.6c-0.3-5-1.4-9.3-3.5-13.1c-2.1-3.8-4.7-6.7-8-8.8
		c-3.3-2.1-7-3.2-11-3.2c-4.3,0-7.8,1.3-10.6,4c-2.7,2.7-4.1,6.1-4.1,10.3c0,3.8,1.2,7.2,3.6,10.1c2.4,2.9,6.1,6.4,11,10.7
		c4.1,3.5,7.4,6.5,9.8,9c2.4,2.5,4.5,5.5,6.3,9.1c1.7,3.5,2.6,7.5,2.6,12c0,5.4-1.4,10.2-4.3,14.4c-2.8,4.2-6.9,7.4-12.1,9.7
		c-5.2,2.3-11.3,3.4-18.2,3.4c-3.2,0-6-0.2-8.5-0.5c-2.4-0.4-5.3-0.9-8.6-1.7c-0.5-0.1-1.7-0.3-3.6-0.7c-1.9-0.4-3.8-0.6-5.6-0.6
		c-2,0-3.7,0.3-5.2,0.8c-1.4,0.6-2.9,1.5-4.5,2.7h-2.7l7.6-35.2h2.5c0.6,9.8,3.3,17.3,7.9,22.4c4.6,5.1,10.3,7.6,17,7.6
		c5.3,0,9.8-1.6,13.3-4.9c3.6-3.3,5.4-7.3,5.4-12.2c0-4.1-1.2-7.8-3.7-10.9c-2.5-3.2-6.2-6.9-11.3-11.2c-3.9-3.4-7.1-6.3-9.5-8.8
		c-2.4-2.5-4.4-5.4-6.1-8.7c-1.6-3.4-2.5-7.1-2.5-11.1c0-4.6,1.3-8.8,3.9-12.8c2.6-3.9,6.2-7.1,10.6-9.4
		C408.3,7.4,413.3,6.2,418.7,6.2"/>
	<path class="st0" d="M472.5,6.2c2.9,0,5.2,1,7.2,2.9c1.9,1.9,2.9,4.3,2.9,7.2c0,2.8-1,5.3-2.9,7.2c-1.9,2-4.3,3-7.2,3
		c-2.8,0-5.2-1-7.2-3c-2-2-2.9-4.4-2.9-7.2c0-2.8,1-5.2,2.9-7.2C467.2,7.2,469.6,6.2,472.5,6.2 M461.2,89c-0.6,2.2-0.9,3.6-0.9,4.1
		c0,1.6,0.6,2.3,1.8,2.3c1.3,0,2.6-0.7,4-2.2c1.4-1.5,3.5-4.1,6.3-8l1.9,1.8c-4.1,6.3-7.8,10.8-10.9,13.4c-3.2,2.6-6.7,3.9-10.7,3.9
		c-3,0-5.5-0.8-7.3-2.3c-1.8-1.6-2.7-3.6-2.7-6.2c0-1.9,0.5-4.4,1.4-7.4l9.5-30.4c1-3.6,1.5-5.8,1.5-6.6c0-1.7-0.7-2.9-2-3.7
		c-1.3-0.8-3.1-1.2-5.2-1.2h-0.7l0.8-2.7l25.6-4h2.6L461.2,89z"/>
	<path class="st0" d="M498.9,66.5c4.8-8.5,9.8-15.1,15.1-19.7c5.3-4.6,10.5-6.9,15.7-6.9c2.5,0,4.5,0.8,6,2.4
		c1.6,1.6,2.3,3.8,2.3,6.5c0,2.4-0.3,4.9-1,7.6c-0.6,2.7-1.6,5.9-3,9.7l0.3,0.3c4.7-8.3,9.7-14.9,15.1-19.5c5.4-4.7,10.3-7,14.7-7
		c2.7,0,4.8,0.8,6.4,2.5c1.6,1.7,2.4,3.9,2.4,6.7c0,3.8-0.7,7.9-2.2,12.5l-6.2,20.1c-0.9,3-1.6,5.4-2.1,7.2c-0.5,1.7-0.7,3-0.7,3.7
		c0,0.6,0.2,1.2,0.5,1.5c0.3,0.4,0.7,0.5,1.2,0.5c1,0,2.1-0.7,3.3-2.2c1.2-1.5,2.7-3.8,4.4-7.2l2.2,1.8c-2.6,5-5.5,9-8.7,12
		c-3.3,3.1-7.2,4.6-11.8,4.6c-2.6,0-4.7-0.8-6.3-2.3c-1.6-1.6-2.4-3.6-2.4-6.1c0-2.1,0.4-4.3,1.1-6.5l7.3-23.7
		c1.9-6.2,2.9-10,2.9-11.4c0-1.5-0.6-2.2-1.9-2.2c-2.4,0-5.3,1.6-8.6,4.8c-3.3,3.2-6.5,7.4-9.5,12.5c-3,5.1-5.3,10.4-6.9,15.7
		l-5.4,18.2h-17.2L518,62.6c1.3-3.8,1.9-6.6,1.9-8.4c0-0.7-0.3-1.4-0.8-1.9c-0.5-0.5-1.1-0.8-1.9-0.8c-1.9,0-4.5,1.4-7.6,4.3
		c-3.1,2.9-6.2,6.8-9.2,11.6c-3,4.9-5.3,10.1-7,15.7l-5.9,19.5h-17.2L484,58c0.9-2.8,1.4-4.9,1.4-6.2c0-1.8-0.6-3.1-1.9-3.9
		c-1.2-0.8-3.2-1.2-6-1.2l1-2.7l25.6-4h2.6l-8.1,26.3L498.9,66.5z"/>
	<path class="st0" d="M606.8,39.9l-2.7,8.7l0.3,0.3c2.8-2.9,5.4-5.2,8-6.7c2.6-1.5,5.2-2.3,8-2.3c3.8,0,6.9,1.6,9.2,4.7
		c2.2,3.2,3.4,7.5,3.4,13c0,7.4-1.9,14.8-5.6,22c-3.7,7.2-8.5,13.2-14.3,17.8c-5.8,4.6-11.7,7-17.7,7c-1.5,0-2.8-0.1-3.9-0.4
		c-1.1-0.3-2.4-0.7-3.8-1.2l-3,9.9c-0.1,0.2-0.4,1.4-1,3.6c-0.6,2.2-0.9,4.2-0.9,5.9c0,2,0.8,3.6,2.4,4.9c1.6,1.2,3.7,2,6.4,2.4
		l-0.7,2.5h-37.5l0.7-2.5c3-0.4,5.4-1.2,7.2-2.6c1.7-1.4,3.1-3.6,4-6.7l17.9-58c0.6-1.8,1.1-3.7,1.5-5.6c0.5-1.9,0.7-3.2,0.7-3.8
		c0-1.6-0.7-2.9-2-4.1c-1.3-1.2-3.2-1.8-5.6-1.9l0.8-2.7l26.1-4H606.8z M602.6,53.7l-13.5,44.1c0.8,1.4,1.7,2.4,2.5,3
		c0.9,0.6,1.9,0.9,3.1,0.9c3.8,0,7.3-2.4,10.5-7.3c3.3-4.9,5.9-10.6,7.8-17.3c2-6.7,3-12.3,3-16.9c0-2.9-0.6-5.4-1.7-7.3
		c-1.1-1.9-2.6-2.9-4.7-2.9C607.5,50.1,605.1,51.3,602.6,53.7"/>
	<path class="st0" d="M673.3,39.9c6.1,0,11,1.8,14.5,5.4c3.5,3.6,5.3,8.4,5.3,14.6c0,6.4-1.9,13.1-5.6,20.1
		c-3.8,7-8.9,12.8-15.3,17.5c-6.5,4.7-13.6,7-21.3,7c-5.2,0-9.8-1.7-13.6-5c-3.9-3.4-5.8-8.3-5.8-14.8c0-7.4,2-14.6,6.1-21.5
		c4.1-6.9,9.4-12.5,15.9-16.8C660,42.1,666.6,39.9,673.3,39.9 M647.7,91.5c0,2.7,0.6,5,1.8,6.7c1.2,1.7,2.7,2.5,4.6,2.5
		c3.9,0,7.6-3,11.1-9c3.5-6,6.3-12.9,8.5-20.7c2.2-7.8,3.2-13.7,3.2-17.6c0-6.5-2.2-9.8-6.5-9.8c-3.6,0-7.1,2.9-10.7,8.7
		c-3.5,5.8-6.4,12.5-8.7,20.3C648.8,80.4,647.7,86.7,647.7,91.5"/>
	<path class="st0" d="M719.8,39.9c2.4,0,5,0.5,8,1.4c2.2,0.6,4,0.9,5.4,0.9c1.9,0,3.2-0.8,3.8-2.3h2.7l-3.4,21.2h-3
		c-0.5-5.6-1.8-10-4.1-13.3c-2.3-3.3-5-4.9-8.1-4.9c-1.6,0-3,0.6-4.1,1.7c-1.1,1.1-1.6,2.5-1.6,4.2c0,2.3,0.6,4.5,1.9,6.6
		c1.2,2.1,3.2,4.9,5.9,8.3c3,3.7,5.3,7,7,9.9c1.7,2.9,2.5,6.1,2.5,9.5c0,3.6-0.9,7-2.7,10.1c-1.8,3.2-4.4,5.7-7.6,7.6
		c-3.2,1.9-6.8,2.8-10.7,2.8c-1.5,0-2.9-0.2-4.4-0.5c-1.5-0.3-2.8-0.7-4.1-1c-2.6-0.7-4.4-1.1-5.4-1.1c-2.2,0-3.7,0.9-4.4,2.6h-2.5
		l3.3-21.7h2.6c0.8,4,2.1,7.3,3.7,10.2c1.7,2.8,3.5,5,5.4,6.5c2,1.5,3.8,2.2,5.4,2.2c1.9,0,3.6-0.8,5.1-2.4c1.5-1.6,2.2-3.6,2.2-5.9
		c0-2.7-0.7-5.3-2.1-7.8c-1.4-2.6-3.6-5.8-6.5-9.8c-3-3.9-5.3-7.3-6.8-10.2c-1.5-2.8-2.3-5.8-2.3-8.8c0-2.9,0.8-5.6,2.5-8
		c1.7-2.4,4-4.4,6.9-5.8C713.1,40.7,716.3,39.9,719.8,39.9"/>
	<path class="st0" d="M765,6.2c2.9,0,5.2,1,7.2,2.9c1.9,1.9,2.9,4.3,2.9,7.2c0,2.8-1,5.3-2.9,7.2c-1.9,2-4.3,3-7.2,3
		c-2.8,0-5.2-1-7.2-3c-2-2-2.9-4.4-2.9-7.2c0-2.8,1-5.2,2.9-7.2C759.8,7.2,762.2,6.2,765,6.2 M753.7,89c-0.6,2.2-0.9,3.6-0.9,4.1
		c0,1.6,0.6,2.3,1.8,2.3c1.3,0,2.6-0.7,4-2.2c1.4-1.5,3.5-4.1,6.3-8l1.9,1.8c-4.1,6.3-7.8,10.8-10.9,13.4c-3.2,2.6-6.7,3.9-10.7,3.9
		c-3,0-5.5-0.8-7.3-2.3c-1.8-1.6-2.7-3.6-2.7-6.2c0-1.9,0.5-4.4,1.4-7.4l9.5-30.4c1-3.6,1.5-5.8,1.5-6.6c0-1.7-0.7-2.9-2-3.7
		c-1.3-0.8-3.1-1.2-5.2-1.2h-0.7l0.8-2.7l25.6-4h2.6L753.7,89z"/>
	<path class="st0" d="M807.5,39.9c6.1,0,11,1.8,14.5,5.4c3.5,3.6,5.3,8.4,5.3,14.6c0,6.4-1.9,13.1-5.6,20.1
		c-3.8,7-8.9,12.8-15.3,17.5c-6.5,4.7-13.6,7-21.3,7c-5.2,0-9.8-1.7-13.6-5c-3.9-3.4-5.8-8.3-5.8-14.8c0-7.4,2-14.6,6.1-21.5
		c4.1-6.9,9.4-12.5,15.9-16.8C794.2,42.1,800.8,39.9,807.5,39.9 M781.9,91.5c0,2.7,0.6,5,1.8,6.7c1.2,1.7,2.7,2.5,4.6,2.5
		c3.9,0,7.6-3,11.1-9c3.5-6,6.3-12.9,8.5-20.7c2.2-7.8,3.2-13.7,3.2-17.6c0-6.5-2.2-9.8-6.5-9.8c-3.6,0-7.1,2.9-10.7,8.7
		c-3.5,5.8-6.4,12.5-8.7,20.3C783,80.4,781.9,86.7,781.9,91.5"/>
	<path class="st0" d="M927.2,6.2l-23.8,78c-1,3-1.5,5.5-1.5,7.3c0,1.1,0.2,1.9,0.7,2.5c0.5,0.6,1.1,0.9,1.9,0.9c1.6,0,3-0.7,4.3-2
		c1.3-1.3,2.8-3.5,4.5-6.4l2.1,1.2c-5,11.1-12.2,16.6-21.6,16.6c-3.1,0-5.5-0.8-7.2-2.4c-1.7-1.6-2.5-3.9-2.5-6.8
		c0-3.1,1-7.6,3-13.5l-0.3-0.3c-4,8.3-7.8,14.3-11.4,17.7c-3.5,3.5-7.1,5.2-10.8,5.2c-3.7,0-6.6-1.5-8.8-4.4
		c-2.2-2.9-3.3-6.9-3.3-12c0-7.2,1.8-14.6,5.4-22.1c3.6-7.5,8.2-13.7,13.9-18.6c5.6-4.9,11.2-7.4,16.7-7.4c2.3,0,4.2,0.4,5.6,1.2
		c1.5,0.8,2.8,2.1,4,3.9l6.5-21.1c0.2-0.6,0.4-1.5,0.6-2.7c0.2-1.1,0.3-2,0.3-2.7c0-1.5-0.6-2.7-1.7-3.8c-1.1-1.1-2.7-1.7-4.6-2
		l0.8-2.6l24.6-4H927.2z M869.7,85.9c0,2.1,0.4,3.7,1.2,4.7c0.8,1.1,1.8,1.6,3.1,1.6c2.8,0,5.9-2.7,9.3-8.2
		c3.4-5.5,6.2-11.7,8.7-18.6c2.4-7,3.7-12.2,3.7-15.6c0-2.1-0.5-3.8-1.5-5.2c-1-1.3-2.3-2-4-2c-3,0-6.1,2.6-9.3,7.9
		c-3.2,5.3-5.8,11.4-7.9,18.4C870.7,76,869.7,81.7,869.7,85.9"/>
	<path class="st0" d="M955.9,39.9c3.6,0,6.4,0.8,8.4,2.5c2,1.6,3,4,3,7c0,4.4-1.6,8.7-4.8,12.8c-3.2,4.1-7.7,7.5-13.4,10.2
		c-5.7,2.7-12.1,4.2-19.2,4.6c-0.2,1-0.3,2.5-0.3,4.5c0,5,1,8.7,3,10.9c2,2.2,4.6,3.3,7.7,3.3c3.7,0,7-0.8,10-2.5
		c3-1.7,6.1-4.1,9.1-7.2l1.7,1.9c-8.9,11-18.6,16.5-29.2,16.5c-6,0-10.6-1.7-13.8-4.9c-3.3-3.3-4.9-7.9-4.9-13.9
		c0-7.5,2.1-14.8,6.3-21.9c4.2-7.1,9.7-12.8,16.3-17.2C942.5,42.1,949.2,39.9,955.9,39.9 M930.7,74c4.1-0.6,7.1-1.2,8.9-2
		c1.8-0.8,3.7-2.2,5.7-4.2c2.7-2.8,4.8-6.2,6-10c1.3-3.8,1.9-7.1,1.9-9.9c0-2.9-1.1-4.4-3.2-4.4c-2,0-4.3,1.5-6.8,4.4
		c-2.5,2.9-4.9,6.7-7.2,11.4C933.9,64.2,932.1,69,930.7,74"/>
	<path class="st0" d="M97.4,131.9c0,3.9-1,7.6-3.1,11.3c-2.1,3.7-5.2,6.8-9.3,9.6c-4.1,2.7-9.1,4.6-14.8,5.6l11,32.7
		c1.2,3.5,2.3,6.1,3.2,7.7c0.9,1.6,2.1,2.8,3.4,3.4c1.4,0.6,3.3,0.9,5.9,1l-0.7,2.5H66.3l-15.5-46.1h-4.1l-8.8,30.5
		c-0.8,2.8-1.3,5.1-1.3,6.7c0,2.5,0.9,4.2,2.6,5c1.7,0.9,4.6,1.3,8.5,1.3l-0.7,2.5H3.6l0.7-2.5c2.8-0.3,5-0.8,6.6-1.6
		c1.6-0.8,2.8-1.9,3.6-3.4c0.9-1.5,1.7-3.7,2.6-6.6l18.6-64.7c1-3.4,1.5-6,1.5-7.7c0-2.4-0.8-3.9-2.4-4.6c-1.6-0.7-4.6-1.1-9-1.1
		l0.7-2.5h41.9c8.4,0,15.4,1.6,20.8,4.9C94.7,119.2,97.4,124.5,97.4,131.9 M58.9,116.6l-11,38.7c1.6,0.3,3.2,0.4,4.7,0.4
		c4.5,0,8.5-1.1,12-3.2c3.5-2.2,6.3-5.1,8.2-8.9c2-3.8,3-8.1,3-12.7c0-4.3-1.2-7.8-3.7-10.4c-2.5-2.7-5.9-4-10.3-4
		C61.1,116.3,60.2,116.4,58.9,116.6"/>
	<path class="st0" d="M134.1,142.7c3.6,0,6.4,0.8,8.4,2.5c2,1.6,3,4,3,7c0,4.4-1.6,8.7-4.8,12.8c-3.2,4.1-7.7,7.5-13.4,10.2
		c-5.7,2.7-12.1,4.2-19.2,4.6c-0.2,1-0.3,2.5-0.3,4.5c0,5,1,8.7,3,10.9c2,2.2,4.6,3.3,7.7,3.3c3.7,0,7-0.8,10-2.5
		c3-1.7,6.1-4.1,9.1-7.2l1.7,1.9c-8.9,11-18.6,16.5-29.2,16.5c-6,0-10.6-1.7-13.8-4.9c-3.3-3.3-4.9-7.9-4.9-13.9
		c0-7.5,2.1-14.8,6.3-21.9c4.2-7.1,9.7-12.8,16.3-17.2C120.8,145,127.4,142.7,134.1,142.7 M109,176.9c4.1-0.6,7.1-1.2,8.9-2
		c1.8-0.8,3.7-2.2,5.7-4.2c2.7-2.8,4.8-6.2,6-10c1.3-3.8,1.9-7.1,1.9-9.9c0-2.9-1.1-4.4-3.2-4.4c-2,0-4.3,1.5-6.8,4.4
		c-2.5,2.9-4.9,6.7-7.2,11.4C112.1,167,110.3,171.8,109,176.9"/>
	<path class="st0" d="M175.8,142.7l-13.7,45.4c-0.1,0.3-0.3,0.9-0.6,1.9c-0.3,1-0.4,1.9-0.4,2.6c0,1.7,0.6,2.5,1.9,2.5
		c2.2,0,4.8-1.7,7.6-5c2.9-3.4,5.6-7.6,8.2-12.7c2.6-5.1,4.7-10.1,6.1-14.9l5.7-18.3h17.2l-14.7,48.1c-0.6,1.8-0.8,3.3-0.8,4.3
		c0,1.5,0.5,2.2,1.4,2.2c0.9,0,2.1-0.9,3.6-2.7c1.5-1.8,3.1-4.2,4.6-7.1l2.2,1.5c-2.2,5.1-5.1,9.2-8.7,12.2c-3.6,3-7.4,4.5-11.5,4.5
		c-2.7,0-4.9-0.7-6.6-2c-1.7-1.3-2.6-3.1-2.6-5.4c0-1.3,0.3-3,0.8-5.1c0.6-2.1,1.1-4.3,1.8-6.6c0.9-2.7,1.5-4.7,1.8-5.9l-0.3-0.3
		c-4.1,7.3-8.4,13.4-12.9,18.2c-4.5,4.8-9,7.2-13.5,7.2c-2.6,0-4.8-0.9-6.5-2.6c-1.8-1.7-2.7-4.2-2.7-7.3c0-1.6,0.1-3.1,0.4-4.5
		c0.3-1.5,1-4.1,2.2-7.8L153,161c1-3.3,1.5-5.6,1.5-6.9c0-3.2-2.3-4.8-6.9-4.8l0.8-2.8l24.9-3.8H175.8z"/>
	<path class="st0" d="M229.3,169.3c4.8-8.5,9.8-15.1,15.1-19.7c5.3-4.6,10.5-6.9,15.7-6.9c2.5,0,4.5,0.8,6,2.4
		c1.6,1.6,2.3,3.8,2.3,6.5c0,2.4-0.3,4.9-1,7.6c-0.6,2.7-1.6,5.9-3,9.7l0.3,0.3c4.7-8.3,9.7-14.9,15.1-19.5c5.4-4.7,10.3-7,14.7-7
		c2.7,0,4.8,0.8,6.4,2.5c1.6,1.7,2.4,3.9,2.4,6.7c0,3.8-0.7,7.9-2.2,12.5l-6.2,20.1c-0.9,3-1.6,5.4-2.1,7.2c-0.5,1.7-0.7,3-0.7,3.7
		c0,0.6,0.2,1.2,0.5,1.5c0.3,0.4,0.7,0.5,1.2,0.5c1,0,2.1-0.7,3.3-2.2c1.2-1.5,2.7-3.8,4.4-7.2l2.2,1.8c-2.6,5-5.5,9-8.7,12
		c-3.3,3.1-7.2,4.6-11.8,4.6c-2.6,0-4.7-0.8-6.3-2.3c-1.6-1.6-2.4-3.6-2.4-6.1c0-2.1,0.4-4.3,1.1-6.5l7.3-23.7
		c1.9-6.2,2.9-10,2.9-11.4c0-1.5-0.6-2.2-1.9-2.2c-2.4,0-5.3,1.6-8.6,4.8c-3.3,3.2-6.5,7.4-9.5,12.5c-3,5.1-5.3,10.4-6.9,15.7
		l-5.4,18.2h-17.2l12.1-40.2c1.3-3.8,1.9-6.6,1.9-8.4c0-0.7-0.3-1.4-0.8-1.9c-0.5-0.5-1.1-0.8-1.9-0.8c-1.9,0-4.5,1.4-7.6,4.3
		c-3.1,2.9-6.2,6.8-9.2,11.6c-3,4.9-5.3,10.1-7,15.7l-5.9,19.5h-17.2l13.6-44.8c0.9-2.8,1.4-4.9,1.4-6.2c0-1.8-0.6-3.1-1.9-3.9
		c-1.2-0.8-3.2-1.2-6-1.2l1-2.7l25.6-4h2.6L229,169L229.3,169.3z"/>
	<path class="st0" d="M337,142.7c2.6,0,4.7,0.7,6.3,2.1c1.6,1.4,2.4,3.6,2.5,6.5h0.3l2.1-7.2h17.2l-12.4,40
		c-0.1,0.3-0.5,1.5-1.1,3.7c-0.6,2.2-0.9,4.4-0.9,6.5c0,0.9,0.2,1.7,0.7,2.3c0.5,0.6,1.1,0.9,1.9,0.9c1.4,0,2.8-0.7,4.3-2.2
		c1.5-1.5,2.9-3.6,4.3-6.3l2.3,1.4c-2.2,5.2-5.1,9.3-8.8,12.2c-3.7,2.9-7.7,4.4-12.2,4.4c-3.2,0-5.7-0.8-7.5-2.3
		c-1.8-1.6-2.7-3.8-2.7-6.6c0-1.7,0.2-3.5,0.5-5.3c0.4-1.8,1.1-4.4,2.1-7.9l-0.3-0.3c-4,8.3-7.8,14.1-11.2,17.4c-3.4,3.3-7,5-10.8,5
		s-6.7-1.5-9-4.5c-2.2-3-3.3-7.2-3.3-12.4c0-7.5,2-15,6-22.3c4-7.4,8.8-13.4,14.4-18.1C327.3,145.1,332.4,142.7,337,142.7
		 M318.4,188.3c0,1.9,0.4,3.5,1.2,4.7c0.8,1.2,1.9,1.9,3.2,1.9c2.8,0,5.9-2.5,9.1-7.6c3.3-5.1,6-10.8,8.3-17.4
		c2.3-6.6,3.5-11.5,3.5-14.9c0-2.4-0.4-4.4-1.3-6c-0.9-1.7-2-2.5-3.5-2.5c-3.1,0-6.3,2.7-9.4,8c-3.2,5.4-5.8,11.5-7.9,18.4
		C319.5,179.7,318.4,184.9,318.4,188.3"/>
	<path class="st0" d="M397.4,126.9h2.8l-4.1,17.3h9.5l-2.7,8.7h-9.4L384,188c-0.1,0.2-0.4,1.4-1,3.8c-0.6,2.3-0.9,4.1-0.9,5.3
		c0,0.7,0.2,1.4,0.6,1.9c0.4,0.6,0.9,0.8,1.6,0.8c1.3,0,2.7-0.8,4.3-2.5c1.6-1.7,3.2-3.9,4.9-6.7l2.2,1.4c-3,5.1-6.5,9-10.3,11.5
		c-3.8,2.5-7.7,3.8-11.8,3.8c-2.7,0-4.8-0.8-6.4-2.3c-1.6-1.5-2.4-3.5-2.4-5.9c0-1.2,0.2-2.6,0.5-4.4c0.4-1.7,0.7-3.4,1.1-4.8
		c0.4-1.5,0.7-2.5,0.8-3.2l8.8-33.8h-9.9l1.9-6.2c5.2-1.3,10.1-3.6,14.6-6.9C387.4,136.4,392.2,132.2,397.4,126.9"/>
	<path class="st0" d="M441.3,142.7c6.1,0,11,1.8,14.5,5.4c3.5,3.6,5.3,8.4,5.3,14.6c0,6.4-1.9,13.1-5.6,20.1
		c-3.8,7-8.9,12.8-15.3,17.5c-6.5,4.7-13.6,7-21.3,7c-5.2,0-9.8-1.7-13.6-5c-3.9-3.4-5.8-8.3-5.8-14.8c0-7.4,2-14.6,6.1-21.5
		c4.1-6.9,9.4-12.5,15.9-16.8C428,144.9,434.6,142.7,441.3,142.7 M415.7,194.3c0,2.7,0.6,5,1.8,6.7c1.2,1.7,2.7,2.5,4.6,2.5
		c3.9,0,7.6-3,11.1-9c3.5-6,6.3-12.9,8.5-20.7c2.2-7.8,3.2-13.7,3.2-17.6c0-6.5-2.2-9.8-6.5-9.8c-3.6,0-7.1,2.9-10.7,8.7
		c-3.5,5.8-6.4,12.5-8.7,20.3C416.8,183.2,415.7,189.5,415.7,194.3"/>
	<path class="st0" d="M503,109l-23.7,77.8c-0.1,0.4-0.4,1.5-1,3.3c-0.6,1.8-0.9,3.2-0.9,4.1c0,0.7,0.2,1.3,0.7,1.9
		c0.5,0.5,1.1,0.7,1.9,0.7c2.6,0,5.4-2.8,8.5-8.5l2.1,1.5c-2.8,5.3-6.1,9.5-9.8,12.7c-3.7,3.1-7.5,4.7-11.5,4.7
		c-2.7,0-5.1-0.8-7-2.3c-1.9-1.5-2.9-3.5-2.9-6c0-1.7,0.2-3.5,0.7-5.3c0.5-1.8,1.3-4.7,2.6-8.9l17.6-57.6c0.7-2.5,1.1-4.3,1.1-5.6
		c0-1.5-0.6-2.8-1.8-3.8c-1.2-1-2.7-1.7-4.5-1.9l0.8-2.6l24.8-4.1H503z"/>
	<path class="st0" d="M530.8,142.7c6.1,0,11,1.8,14.5,5.4c3.5,3.6,5.3,8.4,5.3,14.6c0,6.4-1.9,13.1-5.6,20.1
		c-3.8,7-8.9,12.8-15.3,17.5c-6.5,4.7-13.6,7-21.3,7c-5.2,0-9.8-1.7-13.6-5c-3.9-3.4-5.8-8.3-5.8-14.8c0-7.4,2-14.6,6.1-21.5
		c4.1-6.9,9.4-12.5,15.9-16.8C517.5,144.9,524.1,142.7,530.8,142.7 M505.2,194.3c0,2.7,0.6,5,1.8,6.7c1.2,1.7,2.7,2.5,4.6,2.5
		c3.9,0,7.6-3,11.1-9c3.5-6,6.3-12.9,8.5-20.7c2.2-7.8,3.2-13.7,3.2-17.6c0-6.5-2.2-9.8-6.5-9.8c-3.6,0-7.1,2.9-10.7,8.7
		c-3.5,5.8-6.4,12.5-8.7,20.3C506.3,183.2,505.2,189.5,505.2,194.3"/>
	<path class="st0" d="M583,142.7c3,0,5.5,0.3,7.5,0.8c2,0.5,4.2,1.4,6.5,2.7h18l-2.5,7.7h-9.2c0.7,1.7,1.2,3,1.5,4.1
		c0.3,1.1,0.4,2.3,0.4,3.7c0,4-1.2,7.8-3.7,11.3c-2.4,3.5-5.7,6.2-9.9,8.2c-4.2,2-8.7,3-13.7,3c-2.5,0-5-0.3-7.7-1
		c-2.3,1.1-3.9,2.1-4.9,3c-1,0.9-1.4,1.8-1.4,2.6c0,1.8,1.9,3.4,5.6,4.7l13.8,4.3c4.7,1.5,8.2,3.6,10.6,6.3c2.4,2.7,3.6,6.1,3.6,10
		c0,6.2-2.8,11.2-8.3,14.9c-5.5,3.7-12.9,5.6-22.3,5.6c-9.3,0-16.1-1.4-20.6-4.1c-4.4-2.7-6.7-6.1-6.7-10.2c0-3.4,1.7-6.2,5.2-8.5
		c3.4-2.2,8-3.9,13.6-5c-2.4-1.5-4.1-3-5.2-4.5c-1.1-1.6-1.6-3.4-1.6-5.5c0-2.9,1.1-5.6,3.4-8c2.2-2.4,6.2-4.6,11.8-6.7
		c-4.3-1.9-7.5-4.2-9.4-6.9c-2-2.7-3-5.7-3-9.2c0-3.8,1.1-7.4,3.4-11.1c2.2-3.6,5.5-6.6,9.9-8.9C572.1,143.9,577.2,142.7,583,142.7
		 M569.9,176.2c0,1.7,0.5,3,1.4,3.9c1,1,2.3,1.4,3.9,1.4c4.7,0,8.3-4.4,11-13.4l2.3-7.7c1.1-3.6,1.7-6.7,1.7-9.2
		c0-3.9-1.9-5.9-5.6-5.9c-2.5,0-4.5,1-6,3.1c-1.5,2.1-3,5.2-4.3,9.6l-2.7,8.8c-0.5,1.4-0.8,3-1.2,4.7
		C570,173.4,569.9,174.9,569.9,176.2 M551.3,220.5c0,3.7,1.4,6.6,4.3,8.7c2.9,2.1,6.8,3.2,11.6,3.2c4.8,0,8.7-1,11.7-3
		c3-2,4.5-4.6,4.5-7.8c0-3.1-1.1-5.4-3.3-6.7c-2.2-1.4-5.7-2.7-10.4-4c-3.5-0.9-6.1-1.7-7.8-2.3c-3.4,0.9-6,2.3-7.9,4.2
		C552.2,214.6,551.3,217.2,551.3,220.5"/>
	<path class="st0" d="M624.2,191.8c-0.6,2.2-0.9,3.6-0.9,4.1c0,1.6,0.6,2.3,1.8,2.3c1.3,0,2.6-0.7,4-2.2c1.4-1.5,3.5-4.1,6.3-8
		l1.9,1.8c-4.1,6.3-7.8,10.8-10.9,13.4c-3.2,2.6-6.7,3.9-10.7,3.9c-3,0-5.5-0.8-7.3-2.3c-1.8-1.6-2.7-3.6-2.7-6.2
		c0-1.9,0.5-4.4,1.4-7.4l9.5-30.4c1-3.6,1.5-5.8,1.5-6.6c0-1.7-0.7-2.9-2-3.7c-1.3-0.8-3.1-1.2-5.2-1.2h-0.7l0.8-2.7l25.6-4h2.6
		L624.2,191.8z M634.1,135.9h-6l8-23.8h20.6L634.1,135.9z"/>
	<path class="st0" d="M671.8,142.7c2.6,0,4.7,0.7,6.3,2.1c1.6,1.4,2.4,3.6,2.5,6.5h0.3l2.1-7.2h17.2l-12.4,40
		c-0.1,0.3-0.5,1.5-1.1,3.7c-0.6,2.2-0.9,4.4-0.9,6.5c0,0.9,0.2,1.7,0.7,2.3c0.5,0.6,1.1,0.9,1.9,0.9c1.4,0,2.8-0.7,4.3-2.2
		c1.5-1.5,2.9-3.6,4.3-6.3l2.3,1.4c-2.2,5.2-5.1,9.3-8.8,12.2c-3.7,2.9-7.7,4.4-12.2,4.4c-3.2,0-5.7-0.8-7.5-2.3
		c-1.8-1.6-2.7-3.8-2.7-6.6c0-1.7,0.2-3.5,0.5-5.3c0.4-1.8,1.1-4.4,2.1-7.9l-0.3-0.3c-4,8.3-7.8,14.1-11.2,17.4c-3.4,3.3-7,5-10.8,5
		c-3.8,0-6.7-1.5-9-4.5c-2.2-3-3.3-7.2-3.3-12.4c0-7.5,2-15,6-22.3c4-7.4,8.8-13.4,14.4-18.1C662.1,145.1,667.2,142.7,671.8,142.7
		 M653.2,188.3c0,1.9,0.4,3.5,1.2,4.7c0.8,1.2,1.9,1.9,3.2,1.9c2.8,0,5.9-2.5,9.1-7.6c3.3-5.1,6-10.8,8.3-17.4
		c2.3-6.6,3.5-11.5,3.5-14.9c0-2.4-0.4-4.4-1.3-6c-0.9-1.7-2-2.5-3.5-2.5c-3.1,0-6.3,2.7-9.4,8c-3.2,5.4-5.8,11.5-7.9,18.4
		C654.2,179.7,653.2,184.9,653.2,188.3"/>
	<path class="st0" d="M759.9,109c4.5,0,8.6,1.1,12.2,3.2c3.6,2.2,6.5,5.1,8.5,8.9c2.1,3.8,3.1,8,3.1,12.8c0,4.8-1.1,9.5-3.4,14.3
		c-2.3,4.8-6,10-11.2,15.6c-5.1,5.6-12.1,12.2-21,19.7l-7.3,6h11c4.6,0,9-0.8,13.1-2.4c4.1-1.6,7.6-4,10.5-7.2h3.3L768,205.6h-46.1
		v-2.5l25.3-27c13.5-14.2,20.2-26.3,20.2-36.2c0-5-1.5-9-4.6-12.2c-3.1-3.2-6.9-4.8-11.6-4.8c-3.3,0-6.2,0.8-8.6,2.3
		c-2.4,1.5-4.7,3.9-6.8,7.1l-2.5-0.9C739.3,116.5,748.2,109,759.9,109"/>
	<path class="st0" d="M805.9,120.7c3.8-3.6,7.4-6.3,10.9-8.2c3.5-1.9,7.2-2.9,10.9-2.9c3.5,0,6.8,0.9,9.9,2.7
		c3.1,1.8,5.7,4.9,7.6,9.1c2,4.2,2.9,9.6,2.9,16.2c0,6.1-0.8,12.7-2.5,20.1c-1.6,7.3-4,14.4-7.2,21.2c-3.1,6.8-6.7,12.3-10.8,16.6
		c-3.3,3.6-7.1,6.4-11.3,8.5c-4.2,2.1-8.1,3.2-11.6,3.2c-6.1,0-11.1-2.7-14.8-8c-3.7-5.3-5.6-12.3-5.6-21.1c0-6.2,0.9-13.1,2.7-20.5
		c1.8-7.4,4.4-14.5,7.6-21.1C798.2,130,801.8,124.7,805.9,120.7 M797.7,192c0,7.7,2.5,11.6,7.4,11.6c6.4,0,11.7-7.2,16-21.7
		l10.2-35.5c1.1-3.8,2-8.1,2.7-12.7c0.7-4.6,1.1-7.8,1.1-9.6c0-3.1-0.6-5.7-1.9-7.7c-1.3-2-3.2-3-5.8-3c-3.6,0-6.6,2-9.2,6.1
		c-2.5,4.1-5.1,10.7-7.6,19.7l-5.8,19.7C800.1,174,797.7,185,797.7,192"/>
	<path class="st0" d="M880.9,109c4.5,0,8.6,1.1,12.2,3.2c3.6,2.2,6.5,5.1,8.5,8.9c2.1,3.8,3.1,8,3.1,12.8c0,4.8-1.1,9.5-3.4,14.3
		c-2.3,4.8-6,10-11.2,15.6c-5.1,5.6-12.1,12.2-21,19.7l-7.3,6h11c4.6,0,9-0.8,13.1-2.4c4.1-1.6,7.6-4,10.5-7.2h3.3l-10.6,25.6H843
		v-2.5l25.3-27c13.5-14.2,20.2-26.3,20.2-36.2c0-5-1.5-9-4.6-12.2c-3.1-3.2-6.9-4.8-11.6-4.8c-3.3,0-6.2,0.8-8.6,2.3
		c-2.4,1.5-4.7,3.9-6.8,7.1l-2.5-0.9C860.4,116.5,869.2,109,880.9,109"/>
	<path class="st0" d="M973.4,109l-0.6,2.1c-9.1,2.2-17.4,6.6-24.9,13.2c-7.5,6.6-13.6,14.6-18.3,24.1l0.3,0.3
		c3.4-1.8,7.2-2.7,11.4-2.7c4.3,0,8.2,1.1,11.6,3.2c3.4,2.1,6.1,5,8.1,8.8c1.9,3.8,2.9,8,2.9,12.6c0,6.3-1.6,12.3-4.9,18
		c-3.2,5.6-7.6,10.2-13,13.6c-5.4,3.4-11.1,5.2-17.2,5.2c-5,0-9.4-1.3-13.2-3.9c-3.9-2.6-6.9-6.1-9-10.7c-2.2-4.5-3.2-9.7-3.2-15.6
		c0-10.5,2.8-20.7,8.5-30.7c5.6-10,13.8-18.4,24.4-25.3C946.9,114.3,959.3,110.2,973.4,109 M928.1,153.9c-2.6,5.7-4.9,12.6-7.1,20.7
		c-2.2,8.1-3.2,14.2-3.2,18.4c0,3.2,0.9,5.8,2.7,7.7c1.8,1.9,4.1,2.9,7,2.9c3.8,0,7.1-2.2,10-6.7c2.9-4.4,5.2-9.7,6.8-15.7
		c1.6-6.1,2.4-11.2,2.4-15.3c0-4-1-7.3-2.9-10c-1.9-2.6-4.7-3.9-8.4-3.9C932.8,152,930.4,152.6,928.1,153.9"/>
</g>
</svg>
